%TF.GenerationSoftware,KiCad,Pcbnew,9.99.0-679-g5f620f0fa1*%
%TF.CreationDate,2025-04-01T17:45:59+06:00*%
%TF.ProjectId,hakko_station,68616b6b-6f5f-4737-9461-74696f6e2e6b,rev?*%
%TF.SameCoordinates,Original*%
%TF.FileFunction,Drillmap*%
%TF.FilePolarity,Positive*%
%FSLAX45Y45*%
G04 Gerber Fmt 4.5, Leading zero omitted, Abs format (unit mm)*
G04 Created by KiCad (PCBNEW 9.99.0-679-g5f620f0fa1) date 2025-04-01 17:45:59*
%MOMM*%
%LPD*%
G01*
G04 APERTURE LIST*
%ADD10C,0.050000*%
%ADD11C,0.200000*%
G04 APERTURE END LIST*
D10*
X7100000Y-7100000D02*
G75*
G02*
X7450000Y-6750000I350000J0D01*
G01*
X12300000Y-12450000D02*
G75*
G02*
X11950000Y-12800000I-350000J0D01*
G01*
X7450000Y-12800000D02*
G75*
G02*
X7100000Y-12450000I0J350000D01*
G01*
X7450000Y-6750000D02*
X11950000Y-6750000D01*
X11950000Y-12800000D02*
X7450000Y-12800000D01*
X12300000Y-7100000D02*
X12300000Y-12450000D01*
X7100000Y-12450000D02*
X7100000Y-7100000D01*
X11950000Y-6750000D02*
G75*
G02*
X12300000Y-7100000I0J-350000D01*
G01*
D11*
X7358277Y-13113984D02*
X7358277Y-12913984D01*
X7358277Y-12913984D02*
X7405896Y-12913984D01*
X7405896Y-12913984D02*
X7434467Y-12923508D01*
X7434467Y-12923508D02*
X7453515Y-12942555D01*
X7453515Y-12942555D02*
X7463039Y-12961603D01*
X7463039Y-12961603D02*
X7472562Y-12999698D01*
X7472562Y-12999698D02*
X7472562Y-13028269D01*
X7472562Y-13028269D02*
X7463039Y-13066365D01*
X7463039Y-13066365D02*
X7453515Y-13085412D01*
X7453515Y-13085412D02*
X7434467Y-13104460D01*
X7434467Y-13104460D02*
X7405896Y-13113984D01*
X7405896Y-13113984D02*
X7358277Y-13113984D01*
X7558277Y-13113984D02*
X7558277Y-12980650D01*
X7558277Y-13018746D02*
X7567801Y-12999698D01*
X7567801Y-12999698D02*
X7577324Y-12990174D01*
X7577324Y-12990174D02*
X7596372Y-12980650D01*
X7596372Y-12980650D02*
X7615420Y-12980650D01*
X7682086Y-13113984D02*
X7682086Y-12980650D01*
X7682086Y-12913984D02*
X7672562Y-12923508D01*
X7672562Y-12923508D02*
X7682086Y-12933031D01*
X7682086Y-12933031D02*
X7691610Y-12923508D01*
X7691610Y-12923508D02*
X7682086Y-12913984D01*
X7682086Y-12913984D02*
X7682086Y-12933031D01*
X7805896Y-13113984D02*
X7786848Y-13104460D01*
X7786848Y-13104460D02*
X7777324Y-13085412D01*
X7777324Y-13085412D02*
X7777324Y-12913984D01*
X7910658Y-13113984D02*
X7891610Y-13104460D01*
X7891610Y-13104460D02*
X7882086Y-13085412D01*
X7882086Y-13085412D02*
X7882086Y-12913984D01*
X8139229Y-13113984D02*
X8139229Y-12913984D01*
X8139229Y-12913984D02*
X8205896Y-13056841D01*
X8205896Y-13056841D02*
X8272562Y-12913984D01*
X8272562Y-12913984D02*
X8272562Y-13113984D01*
X8453515Y-13113984D02*
X8453515Y-13009222D01*
X8453515Y-13009222D02*
X8443991Y-12990174D01*
X8443991Y-12990174D02*
X8424944Y-12980650D01*
X8424944Y-12980650D02*
X8386848Y-12980650D01*
X8386848Y-12980650D02*
X8367801Y-12990174D01*
X8453515Y-13104460D02*
X8434467Y-13113984D01*
X8434467Y-13113984D02*
X8386848Y-13113984D01*
X8386848Y-13113984D02*
X8367801Y-13104460D01*
X8367801Y-13104460D02*
X8358277Y-13085412D01*
X8358277Y-13085412D02*
X8358277Y-13066365D01*
X8358277Y-13066365D02*
X8367801Y-13047317D01*
X8367801Y-13047317D02*
X8386848Y-13037793D01*
X8386848Y-13037793D02*
X8434467Y-13037793D01*
X8434467Y-13037793D02*
X8453515Y-13028269D01*
X8548753Y-12980650D02*
X8548753Y-13180650D01*
X8548753Y-12990174D02*
X8567801Y-12980650D01*
X8567801Y-12980650D02*
X8605896Y-12980650D01*
X8605896Y-12980650D02*
X8624944Y-12990174D01*
X8624944Y-12990174D02*
X8634467Y-12999698D01*
X8634467Y-12999698D02*
X8643991Y-13018746D01*
X8643991Y-13018746D02*
X8643991Y-13075888D01*
X8643991Y-13075888D02*
X8634467Y-13094936D01*
X8634467Y-13094936D02*
X8624944Y-13104460D01*
X8624944Y-13104460D02*
X8605896Y-13113984D01*
X8605896Y-13113984D02*
X8567801Y-13113984D01*
X8567801Y-13113984D02*
X8548753Y-13104460D01*
X8729705Y-13094936D02*
X8739229Y-13104460D01*
X8739229Y-13104460D02*
X8729705Y-13113984D01*
X8729705Y-13113984D02*
X8720182Y-13104460D01*
X8720182Y-13104460D02*
X8729705Y-13094936D01*
X8729705Y-13094936D02*
X8729705Y-13113984D01*
X8729705Y-12990174D02*
X8739229Y-12999698D01*
X8739229Y-12999698D02*
X8729705Y-13009222D01*
X8729705Y-13009222D02*
X8720182Y-12999698D01*
X8720182Y-12999698D02*
X8729705Y-12990174D01*
X8729705Y-12990174D02*
X8729705Y-13009222D01*
M02*
