%TF.GenerationSoftware,KiCad,Pcbnew,9.99.0-679-g5f620f0fa1*%
%TF.CreationDate,2025-04-01T17:44:36+06:00*%
%TF.ProjectId,hakko_station,68616b6b-6f5f-4737-9461-74696f6e2e6b,rev?*%
%TF.SameCoordinates,Original*%
%TF.FileFunction,Paste,Top*%
%TF.FilePolarity,Positive*%
%FSLAX46Y46*%
G04 Gerber Fmt 4.6, Leading zero omitted, Abs format (unit mm)*
G04 Created by KiCad (PCBNEW 9.99.0-679-g5f620f0fa1) date 2025-04-01 17:44:36*
%MOMM*%
%LPD*%
G01*
G04 APERTURE LIST*
G04 Aperture macros list*
%AMRoundRect*
0 Rectangle with rounded corners*
0 $1 Rounding radius*
0 $2 $3 $4 $5 $6 $7 $8 $9 X,Y pos of 4 corners*
0 Add a 4 corners polygon primitive as box body*
4,1,4,$2,$3,$4,$5,$6,$7,$8,$9,$2,$3,0*
0 Add four circle primitives for the rounded corners*
1,1,$1+$1,$2,$3*
1,1,$1+$1,$4,$5*
1,1,$1+$1,$6,$7*
1,1,$1+$1,$8,$9*
0 Add four rect primitives between the rounded corners*
20,1,$1+$1,$2,$3,$4,$5,0*
20,1,$1+$1,$4,$5,$6,$7,0*
20,1,$1+$1,$6,$7,$8,$9,0*
20,1,$1+$1,$8,$9,$2,$3,0*%
G04 Aperture macros list end*
%ADD10RoundRect,0.150000X-0.150000X0.512500X-0.150000X-0.512500X0.150000X-0.512500X0.150000X0.512500X0*%
%ADD11RoundRect,0.200000X0.200000X0.275000X-0.200000X0.275000X-0.200000X-0.275000X0.200000X-0.275000X0*%
%ADD12RoundRect,0.200000X0.275000X-0.200000X0.275000X0.200000X-0.275000X0.200000X-0.275000X-0.200000X0*%
%ADD13RoundRect,0.225000X-0.250000X0.225000X-0.250000X-0.225000X0.250000X-0.225000X0.250000X0.225000X0*%
%ADD14RoundRect,0.135000X-0.185000X0.135000X-0.185000X-0.135000X0.185000X-0.135000X0.185000X0.135000X0*%
%ADD15RoundRect,0.250000X-0.350000X0.850000X-0.350000X-0.850000X0.350000X-0.850000X0.350000X0.850000X0*%
%ADD16RoundRect,0.250000X-1.125000X1.275000X-1.125000X-1.275000X1.125000X-1.275000X1.125000X1.275000X0*%
%ADD17RoundRect,0.135000X0.185000X-0.135000X0.185000X0.135000X-0.185000X0.135000X-0.185000X-0.135000X0*%
%ADD18RoundRect,0.100000X-0.225000X-0.100000X0.225000X-0.100000X0.225000X0.100000X-0.225000X0.100000X0*%
%ADD19RoundRect,0.250000X1.100000X-0.325000X1.100000X0.325000X-1.100000X0.325000X-1.100000X-0.325000X0*%
%ADD20RoundRect,0.200000X-0.275000X0.200000X-0.275000X-0.200000X0.275000X-0.200000X0.275000X0.200000X0*%
%ADD21RoundRect,0.250000X0.650000X-1.000000X0.650000X1.000000X-0.650000X1.000000X-0.650000X-1.000000X0*%
%ADD22RoundRect,0.172500X0.243952X0.000000X0.000000X0.243952X-0.243952X0.000000X0.000000X-0.243952X0*%
%ADD23RoundRect,0.050000X0.300520X-0.229810X-0.229810X0.300520X-0.300520X0.229810X0.229810X-0.300520X0*%
%ADD24RoundRect,0.050000X0.300520X0.229810X0.229810X0.300520X-0.300520X-0.229810X-0.229810X-0.300520X0*%
%ADD25RoundRect,0.150000X-0.825000X-0.150000X0.825000X-0.150000X0.825000X0.150000X-0.825000X0.150000X0*%
%ADD26RoundRect,0.140000X0.140000X0.170000X-0.140000X0.170000X-0.140000X-0.170000X0.140000X-0.170000X0*%
%ADD27R,2.200000X1.500000*%
%ADD28RoundRect,0.200000X-0.200000X-0.275000X0.200000X-0.275000X0.200000X0.275000X-0.200000X0.275000X0*%
%ADD29RoundRect,0.150000X0.150000X-0.825000X0.150000X0.825000X-0.150000X0.825000X-0.150000X-0.825000X0*%
%ADD30RoundRect,0.140000X-0.170000X0.140000X-0.170000X-0.140000X0.170000X-0.140000X0.170000X0.140000X0*%
%ADD31RoundRect,0.225000X0.225000X0.375000X-0.225000X0.375000X-0.225000X-0.375000X0.225000X-0.375000X0*%
%ADD32RoundRect,0.140000X-0.219203X-0.021213X-0.021213X-0.219203X0.219203X0.021213X0.021213X0.219203X0*%
%ADD33RoundRect,0.100000X-0.100000X0.225000X-0.100000X-0.225000X0.100000X-0.225000X0.100000X0.225000X0*%
%ADD34RoundRect,0.135000X0.135000X0.185000X-0.135000X0.185000X-0.135000X-0.185000X0.135000X-0.185000X0*%
%ADD35RoundRect,0.135000X-0.135000X-0.185000X0.135000X-0.185000X0.135000X0.185000X-0.135000X0.185000X0*%
%ADD36RoundRect,0.250000X0.250000X0.475000X-0.250000X0.475000X-0.250000X-0.475000X0.250000X-0.475000X0*%
G04 APERTURE END LIST*
D10*
%TO.C,U1*%
X94950000Y-118112500D03*
X94000000Y-118112500D03*
X93050000Y-118112500D03*
X93050000Y-120387500D03*
X94000000Y-120387500D03*
X94950000Y-120387500D03*
%TD*%
D11*
%TO.C,R14*%
X103225000Y-97600000D03*
X101575000Y-97600000D03*
%TD*%
D12*
%TO.C,R3*%
X108600000Y-107925000D03*
X108600000Y-106275000D03*
%TD*%
D13*
%TO.C,C7*%
X78190000Y-94525000D03*
X78190000Y-96075000D03*
%TD*%
D14*
%TO.C,R9*%
X104000000Y-106905707D03*
X104000000Y-107925707D03*
%TD*%
D15*
%TO.C,Q1*%
X86607500Y-110500000D03*
D16*
X85852500Y-115125000D03*
X82802500Y-115125000D03*
X85852500Y-118475000D03*
X82802500Y-118475000D03*
D15*
X82047500Y-110500000D03*
%TD*%
D17*
%TO.C,R2*%
X92000000Y-116260000D03*
X92000000Y-115240000D03*
%TD*%
D18*
%TO.C,U4*%
X94950000Y-98050000D03*
X94950000Y-98700000D03*
X94950000Y-99350000D03*
X96850000Y-99350000D03*
X96850000Y-98700000D03*
X96850000Y-98050000D03*
%TD*%
D14*
%TO.C,R1*%
X90500000Y-115240000D03*
X90500000Y-116260000D03*
%TD*%
D19*
%TO.C,C2*%
X90000000Y-122725000D03*
X90000000Y-119775000D03*
%TD*%
D20*
%TO.C,R12*%
X105000000Y-110275000D03*
X105000000Y-111925000D03*
%TD*%
D14*
%TO.C,R16*%
X112600000Y-85390000D03*
X112600000Y-86410000D03*
%TD*%
D21*
%TO.C,D3*%
X115500000Y-117500000D03*
X115500000Y-113500000D03*
%TD*%
D12*
%TO.C,R6*%
X105800000Y-107925000D03*
X105800000Y-106275000D03*
%TD*%
D21*
%TO.C,D2*%
X78500000Y-117400000D03*
X78500000Y-113400000D03*
%TD*%
D17*
%TO.C,R7*%
X89100000Y-111520000D03*
X89100000Y-110500000D03*
%TD*%
D22*
%TO.C,U7*%
X97409010Y-91120209D03*
X97988838Y-90540381D03*
X96829182Y-90540381D03*
X97409010Y-89960553D03*
D23*
X97868629Y-92131371D03*
X98151472Y-91848529D03*
X98434315Y-91565686D03*
X98717158Y-91282843D03*
X99000000Y-91000000D03*
D24*
X99000000Y-90080762D03*
X98717158Y-89797919D03*
X98434315Y-89515076D03*
X98151472Y-89232233D03*
X97868629Y-88949391D03*
D23*
X96949391Y-88949391D03*
X96666548Y-89232233D03*
X96383705Y-89515076D03*
X96100862Y-89797919D03*
X95818020Y-90080762D03*
D24*
X95818020Y-91000000D03*
X96100862Y-91282843D03*
X96383705Y-91565686D03*
X96666548Y-91848529D03*
X96949391Y-92131371D03*
%TD*%
D25*
%TO.C,U5*%
X106525000Y-90095000D03*
X106525000Y-91365000D03*
X106525000Y-92635000D03*
X106525000Y-93905000D03*
X111475000Y-93905000D03*
X111475000Y-92635000D03*
X111475000Y-91365000D03*
X111475000Y-90095000D03*
%TD*%
D26*
%TO.C,C12*%
X88480000Y-88500000D03*
X87520000Y-88500000D03*
%TD*%
D27*
%TO.C,L1*%
X102000000Y-120200000D03*
X102000000Y-113800000D03*
%TD*%
D17*
%TO.C,R17*%
X103100000Y-89190000D03*
X103100000Y-88170000D03*
%TD*%
D28*
%TO.C,R4*%
X84950000Y-107700000D03*
X86600000Y-107700000D03*
%TD*%
D29*
%TO.C,U2*%
X106095000Y-103475000D03*
X107365000Y-103475000D03*
X108635000Y-103475000D03*
X109905000Y-103475000D03*
X109905000Y-98525000D03*
X108635000Y-98525000D03*
X107365000Y-98525000D03*
X106095000Y-98525000D03*
%TD*%
D30*
%TO.C,C11*%
X104500000Y-93920000D03*
X104500000Y-94880000D03*
%TD*%
%TO.C,C6*%
X79700000Y-92820000D03*
X79700000Y-93780000D03*
%TD*%
D31*
%TO.C,D1*%
X97150000Y-114750000D03*
X93850000Y-114750000D03*
%TD*%
D32*
%TO.C,C10*%
X100160589Y-89360589D03*
X100839411Y-90039411D03*
%TD*%
D26*
%TO.C,C8*%
X105480000Y-96000000D03*
X104520000Y-96000000D03*
%TD*%
D15*
%TO.C,Q2*%
X112107500Y-111000000D03*
D16*
X111352500Y-115625000D03*
X108302500Y-115625000D03*
X111352500Y-118975000D03*
X108302500Y-118975000D03*
D15*
X107547500Y-111000000D03*
%TD*%
D30*
%TO.C,C9*%
X79690000Y-95420000D03*
X79690000Y-96380000D03*
%TD*%
D33*
%TO.C,U3*%
X93150000Y-102950000D03*
X92500000Y-102950000D03*
X91850000Y-102950000D03*
X91850000Y-104850000D03*
X92500000Y-104850000D03*
X93150000Y-104850000D03*
%TD*%
D12*
%TO.C,R11*%
X111000000Y-107925000D03*
X111000000Y-106275000D03*
%TD*%
D30*
%TO.C,C4*%
X77250000Y-99770000D03*
X77250000Y-100730000D03*
%TD*%
%TO.C,C1*%
X96500000Y-118770000D03*
X96500000Y-119730000D03*
%TD*%
D34*
%TO.C,R5*%
X78710000Y-92800000D03*
X77690000Y-92800000D03*
%TD*%
D25*
%TO.C,U6*%
X88525000Y-83095000D03*
X88525000Y-84365000D03*
X88525000Y-85635000D03*
X88525000Y-86905000D03*
X93475000Y-86905000D03*
X93475000Y-85635000D03*
X93475000Y-84365000D03*
X93475000Y-83095000D03*
%TD*%
D34*
%TO.C,R13*%
X115110000Y-107700000D03*
X114090000Y-107700000D03*
%TD*%
D30*
%TO.C,C5*%
X117250000Y-100520000D03*
X117250000Y-101480000D03*
%TD*%
D35*
%TO.C,R15*%
X102490000Y-99000000D03*
X103510000Y-99000000D03*
%TD*%
D34*
%TO.C,R10*%
X76800000Y-95500000D03*
X75780000Y-95500000D03*
%TD*%
D35*
%TO.C,R8*%
X75790000Y-94400000D03*
X76810000Y-94400000D03*
%TD*%
D36*
%TO.C,C3*%
X99450000Y-111000000D03*
X97550000Y-111000000D03*
%TD*%
M02*
