%TF.GenerationSoftware,KiCad,Pcbnew,9.99.0-679-g5f620f0fa1*%
%TF.CreationDate,2025-04-01T17:44:36+06:00*%
%TF.ProjectId,hakko_station,68616b6b-6f5f-4737-9461-74696f6e2e6b,rev?*%
%TF.SameCoordinates,Original*%
%TF.FileFunction,Copper,L2,Bot*%
%TF.FilePolarity,Positive*%
%FSLAX46Y46*%
G04 Gerber Fmt 4.6, Leading zero omitted, Abs format (unit mm)*
G04 Created by KiCad (PCBNEW 9.99.0-679-g5f620f0fa1) date 2025-04-01 17:44:36*
%MOMM*%
%LPD*%
G01*
G04 APERTURE LIST*
G04 Aperture macros list*
%AMRoundRect*
0 Rectangle with rounded corners*
0 $1 Rounding radius*
0 $2 $3 $4 $5 $6 $7 $8 $9 X,Y pos of 4 corners*
0 Add a 4 corners polygon primitive as box body*
4,1,4,$2,$3,$4,$5,$6,$7,$8,$9,$2,$3,0*
0 Add four circle primitives for the rounded corners*
1,1,$1+$1,$2,$3*
1,1,$1+$1,$4,$5*
1,1,$1+$1,$6,$7*
1,1,$1+$1,$8,$9*
0 Add four rect primitives between the rounded corners*
20,1,$1+$1,$2,$3,$4,$5,0*
20,1,$1+$1,$4,$5,$6,$7,0*
20,1,$1+$1,$6,$7,$8,$9,0*
20,1,$1+$1,$8,$9,$2,$3,0*%
%AMRotRect*
0 Rectangle, with rotation*
0 The origin of the aperture is its center*
0 $1 length*
0 $2 width*
0 $3 Rotation angle, in degrees counterclockwise*
0 Add horizontal line*
21,1,$1,$2,0,0,$3*%
G04 Aperture macros list end*
%TA.AperFunction,ComponentPad*%
%ADD10R,2.000000X2.000000*%
%TD*%
%TA.AperFunction,ComponentPad*%
%ADD11C,2.000000*%
%TD*%
%TA.AperFunction,ComponentPad*%
%ADD12R,2.000000X3.200000*%
%TD*%
%TA.AperFunction,ComponentPad*%
%ADD13RoundRect,0.250001X0.899999X-0.899999X0.899999X0.899999X-0.899999X0.899999X-0.899999X-0.899999X0*%
%TD*%
%TA.AperFunction,ComponentPad*%
%ADD14C,2.300000*%
%TD*%
%TA.AperFunction,ComponentPad*%
%ADD15C,5.600000*%
%TD*%
%TA.AperFunction,ComponentPad*%
%ADD16R,1.700000X1.700000*%
%TD*%
%TA.AperFunction,ComponentPad*%
%ADD17O,1.700000X1.700000*%
%TD*%
%TA.AperFunction,HeatsinkPad*%
%ADD18C,0.500000*%
%TD*%
%TA.AperFunction,HeatsinkPad*%
%ADD19RotRect,1.650000X1.650000X135.000000*%
%TD*%
%TA.AperFunction,ComponentPad*%
%ADD20RoundRect,0.250000X0.725000X-0.600000X0.725000X0.600000X-0.725000X0.600000X-0.725000X-0.600000X0*%
%TD*%
%TA.AperFunction,ComponentPad*%
%ADD21O,1.950000X1.700000*%
%TD*%
%TA.AperFunction,ComponentPad*%
%ADD22RoundRect,0.250002X-1.499998X-1.499998X1.499998X-1.499998X1.499998X1.499998X-1.499998X1.499998X0*%
%TD*%
%TA.AperFunction,ComponentPad*%
%ADD23C,3.500000*%
%TD*%
%TA.AperFunction,ViaPad*%
%ADD24C,0.600000*%
%TD*%
%TA.AperFunction,ViaPad*%
%ADD25C,0.700000*%
%TD*%
%TA.AperFunction,ViaPad*%
%ADD26C,0.500000*%
%TD*%
%TA.AperFunction,Conductor*%
%ADD27C,0.250000*%
%TD*%
%TA.AperFunction,Conductor*%
%ADD28C,0.500000*%
%TD*%
%TA.AperFunction,Conductor*%
%ADD29C,0.200000*%
%TD*%
G04 APERTURE END LIST*
D10*
%TO.P,SW1,A,A*%
%TO.N,Net-(R5-Pad2)*%
X81000000Y-76250000D03*
D11*
%TO.P,SW1,B,B*%
%TO.N,Net-(R10-Pad2)*%
X76000000Y-76250000D03*
%TO.P,SW1,C,C*%
%TO.N,GND*%
X78500000Y-76250000D03*
D12*
%TO.P,SW1,MP,MP*%
%TO.N,unconnected-(SW1-PadMP)_1*%
X84100000Y-83750000D03*
%TO.N,unconnected-(SW1-PadMP)*%
X72900000Y-83750000D03*
D11*
%TO.P,SW1,S1,S1*%
%TO.N,Net-(R8-Pad1)*%
X76000000Y-90750000D03*
%TO.P,SW1,S2,S2*%
%TO.N,GND*%
X81000000Y-90750000D03*
%TD*%
D13*
%TO.P,J3,1*%
%TO.N,+24V*%
X74000000Y-117800000D03*
D14*
%TO.P,J3,2*%
%TO.N,/HTR_0-*%
X74000000Y-113000000D03*
%TO.P,J3,3*%
%TO.N,Earth*%
X74000000Y-108200000D03*
%TO.P,J3,4*%
%TO.N,GND*%
X74000000Y-103400000D03*
%TO.P,J3,5*%
%TO.N,/SENS0+*%
X74000000Y-98600000D03*
%TD*%
D15*
%TO.P,H2,1,1*%
%TO.N,GND*%
X119500000Y-71000000D03*
%TD*%
D16*
%TO.P,J5,1,Pin_1*%
%TO.N,+5V*%
X96300000Y-76500000D03*
D17*
%TO.P,J5,2,Pin_2*%
%TO.N,GND*%
X93760000Y-76500000D03*
%TO.P,J5,3,Pin_3*%
%TO.N,/SWIO*%
X91220000Y-76500000D03*
%TO.P,J5,4,Pin_4*%
%TO.N,/NRST*%
X88680000Y-76500000D03*
%TD*%
D15*
%TO.P,H4,1,1*%
%TO.N,GND*%
X74500000Y-124500000D03*
%TD*%
D18*
%TO.P,U7,21,VSS*%
%TO.N,GND*%
X97409010Y-91106066D03*
X97974695Y-90540381D03*
D19*
X97409010Y-90540381D03*
D18*
X96843325Y-90540381D03*
X97409010Y-89974696D03*
%TD*%
D15*
%TO.P,H3,1,1*%
%TO.N,GND*%
X119500000Y-124500000D03*
%TD*%
D11*
%TO.P,TP6,1,1*%
%TO.N,/PWM_HTR1*%
X102497000Y-110800000D03*
%TD*%
D15*
%TO.P,H1,1,1*%
%TO.N,GND*%
X74500000Y-71000000D03*
%TD*%
D20*
%TO.P,J1,1,Pin_1*%
%TO.N,/I2C_SDA*%
X116000000Y-91750000D03*
D21*
%TO.P,J1,2,Pin_2*%
%TO.N,/I2C_SCL*%
X116000000Y-89250000D03*
%TO.P,J1,3,Pin_3*%
%TO.N,+5V*%
X116000000Y-86750000D03*
%TO.P,J1,4,Pin_4*%
%TO.N,GND*%
X116000000Y-84250000D03*
%TD*%
D11*
%TO.P,TP2,1,1*%
%TO.N,/HTR_1-*%
X115500000Y-110300000D03*
%TD*%
D22*
%TO.P,J2,1,Pin_1*%
%TO.N,+24V*%
X95500000Y-124600000D03*
D23*
%TO.P,J2,2,Pin_2*%
%TO.N,GND*%
X102500000Y-124600000D03*
%TO.P,J2,3,Pin_3*%
%TO.N,+24V*%
X109500000Y-124600000D03*
%TD*%
D13*
%TO.P,J4,1*%
%TO.N,+24V*%
X120000000Y-117800000D03*
D14*
%TO.P,J4,2*%
%TO.N,/HTR_1-*%
X120000000Y-113000000D03*
%TO.P,J4,3*%
%TO.N,Earth*%
X120000000Y-108200000D03*
%TO.P,J4,4*%
%TO.N,GND*%
X120000000Y-103400000D03*
%TO.P,J4,5*%
%TO.N,/SENS1+*%
X120000000Y-98600000D03*
%TD*%
D11*
%TO.P,TP1,1,1*%
%TO.N,/HTR_0-*%
X78500000Y-109900000D03*
%TD*%
%TO.P,TP4,1,1*%
%TO.N,/PWM_HTR0*%
X88900000Y-98500000D03*
%TD*%
D24*
%TO.N,GND*%
X75917257Y-78501750D03*
X120917257Y-78501750D03*
X97600000Y-96900000D03*
X90917257Y-108501750D03*
D25*
X104900000Y-90100000D03*
X90000000Y-118400000D03*
D24*
X100917257Y-73501750D03*
X110917257Y-73501750D03*
D25*
X90100000Y-111500000D03*
D24*
X90917257Y-68501750D03*
X105917257Y-78501750D03*
X120917257Y-88501750D03*
X80917257Y-83501750D03*
X115917257Y-73501750D03*
D25*
X78200000Y-100700000D03*
D26*
X90600000Y-78500000D03*
D24*
X95917257Y-83501750D03*
X115917257Y-103501750D03*
X100917257Y-118501750D03*
X85917257Y-83501750D03*
X75917257Y-83501750D03*
X100917257Y-83501750D03*
X75917257Y-108501750D03*
X80917257Y-103501750D03*
D25*
X93850000Y-116300000D03*
D24*
X85917257Y-68501750D03*
X95917257Y-73501750D03*
D25*
X98100000Y-102700000D03*
D24*
X100917257Y-103501750D03*
D26*
X93700000Y-87800000D03*
D25*
X115110000Y-106500000D03*
X101400000Y-99000000D03*
D24*
X80917257Y-88501750D03*
X80917257Y-108501750D03*
X120917257Y-83501750D03*
D25*
X103500000Y-94880000D03*
D24*
X115917257Y-78501750D03*
X75917257Y-88501750D03*
X80917257Y-68501750D03*
D25*
X99600000Y-98700000D03*
D24*
X105917257Y-118501750D03*
X105917257Y-68501750D03*
X120917257Y-93501750D03*
X110917257Y-68501750D03*
D25*
X96300000Y-111000000D03*
D24*
X110917257Y-78501750D03*
D25*
X94500000Y-104500000D03*
D24*
X85917257Y-78501750D03*
X100917257Y-78501750D03*
X85917257Y-98501750D03*
X95917257Y-78501750D03*
X80917257Y-78501750D03*
X105917257Y-83501750D03*
X85917257Y-88501750D03*
D25*
X103000000Y-106900000D03*
D24*
X95917257Y-68501750D03*
D25*
X83200000Y-110500000D03*
D24*
X85917257Y-103501750D03*
X100917257Y-68501750D03*
X105917257Y-73501750D03*
D26*
X94900000Y-88700000D03*
D24*
X93300000Y-94200000D03*
D26*
X92500000Y-101800000D03*
D24*
X85917257Y-73501750D03*
X115917257Y-68501750D03*
X90917257Y-73501750D03*
X110917257Y-83501750D03*
X75917257Y-103501750D03*
D26*
X95300000Y-96300000D03*
D25*
X108900000Y-111000000D03*
X80750000Y-93750000D03*
D26*
X99700000Y-93000000D03*
D25*
X109900000Y-105200000D03*
D24*
X92000000Y-98900000D03*
D25*
X106100000Y-111000000D03*
D24*
X80917257Y-73501750D03*
D25*
X101600000Y-90800000D03*
%TO.N,+5V*%
X99500000Y-104300000D03*
X98000000Y-99000000D03*
X111926000Y-99500000D03*
X114400000Y-96000000D03*
D26*
%TO.N,/SENS1+*%
X108675000Y-100800000D03*
X115050000Y-100750000D03*
%TO.N,/NRST*%
X90600000Y-86700000D03*
X96900000Y-93000000D03*
%TO.N,/SENS0_PTC+*%
X108000000Y-105200000D03*
D24*
X103500000Y-105200000D03*
D26*
X91850000Y-100250000D03*
%TO.N,/PWM_HTR0*%
X93861091Y-90738909D03*
X84950000Y-106200000D03*
%TO.N,/OPA0_OUT*%
X99100000Y-96650000D03*
X101250000Y-102050000D03*
%TO.N,/PWM_HTR1*%
X94900000Y-91800000D03*
%TO.N,/OPA1_OUT*%
X107000000Y-97000000D03*
X98200000Y-96000000D03*
X102600000Y-96000000D03*
%TO.N,/SENS0_CTL*%
X101800000Y-88600000D03*
X91200000Y-101500000D03*
%TO.N,/SPI_CS0*%
X108800000Y-92635000D03*
X96600000Y-88100000D03*
%TO.N,/SPI_SCK*%
X95417158Y-87982842D03*
X109600000Y-93300000D03*
%TO.N,/SPI_MISO*%
X109800000Y-89900000D03*
X93700000Y-88900000D03*
%TO.N,/ENC_CLK*%
X92700000Y-90600000D03*
X83750000Y-92850000D03*
%TO.N,/ENC_SW*%
X88500000Y-92250000D03*
X91200000Y-89500000D03*
%TO.N,/ENC_DT*%
X88700000Y-93200000D03*
X92000000Y-89900000D03*
%TO.N,/SENS0_TH+*%
X92774000Y-97500000D03*
X104600000Y-92200000D03*
%TD*%
D27*
%TO.N,+5V*%
X98000000Y-99000000D02*
X99500000Y-100500000D01*
X99500000Y-100500000D02*
X99500000Y-104300000D01*
D28*
X111926000Y-98474000D02*
X111926000Y-99500000D01*
X114400000Y-96000000D02*
X111926000Y-98474000D01*
D27*
%TO.N,/SENS1+*%
X108700000Y-100825000D02*
X114975000Y-100825000D01*
X108675000Y-100800000D02*
X108700000Y-100825000D01*
X114975000Y-100825000D02*
X115050000Y-100750000D01*
D29*
%TO.N,/NRST*%
X90600000Y-86700000D02*
X96900000Y-93000000D01*
%TO.N,/SENS0_PTC+*%
X91850000Y-100250000D02*
X91950000Y-100250000D01*
X91950000Y-100250000D02*
X96900000Y-105200000D01*
X103500000Y-105200000D02*
X108000000Y-105200000D01*
X96900000Y-105200000D02*
X103500000Y-105200000D01*
%TO.N,/PWM_HTR0*%
X84950000Y-106200000D02*
X84950000Y-106050000D01*
X89700000Y-94900000D02*
X93861091Y-90738909D01*
X89700000Y-101300000D02*
X89700000Y-94900000D01*
X84950000Y-106050000D02*
X89700000Y-101300000D01*
%TO.N,/OPA0_OUT*%
X99100000Y-96650000D02*
X100500000Y-98050000D01*
X100500000Y-98050000D02*
X100500000Y-101300000D01*
X100500000Y-101300000D02*
X101250000Y-102050000D01*
%TO.N,/PWM_HTR1*%
X90400000Y-95400000D02*
X90400000Y-102000000D01*
X94000000Y-91800000D02*
X90400000Y-95400000D01*
X101999000Y-109999000D02*
X102500000Y-110500000D01*
X98399000Y-109999000D02*
X101999000Y-109999000D01*
X94900000Y-91800000D02*
X94000000Y-91800000D01*
X90400000Y-102000000D02*
X98399000Y-109999000D01*
%TO.N,/OPA1_OUT*%
X103600000Y-97000000D02*
X107000000Y-97000000D01*
X98200000Y-96000000D02*
X102600000Y-96000000D01*
X102600000Y-96000000D02*
X103600000Y-97000000D01*
%TO.N,/SENS0_CTL*%
X91200000Y-98150000D02*
X94350000Y-95000000D01*
X91200000Y-101500000D02*
X91200000Y-98150000D01*
X94350000Y-95000000D02*
X96300000Y-95000000D01*
X96300000Y-95000000D02*
X101800000Y-89500000D01*
X101800000Y-89500000D02*
X101800000Y-88600000D01*
%TO.N,/SPI_CS0*%
X108800000Y-92635000D02*
X108800000Y-90600000D01*
X105901000Y-87701000D02*
X96999000Y-87701000D01*
X96999000Y-87701000D02*
X96600000Y-88100000D01*
X108800000Y-90600000D02*
X105901000Y-87701000D01*
%TO.N,/SPI_SCK*%
X96200000Y-87200000D02*
X95417158Y-87982842D01*
X109400000Y-93101762D02*
X109400000Y-90400000D01*
X109494636Y-93196398D02*
X109400000Y-93101762D01*
X106200000Y-87200000D02*
X96200000Y-87200000D01*
X109600000Y-93300000D02*
X109496398Y-93196398D01*
X109400000Y-90400000D02*
X106200000Y-87200000D01*
X109496398Y-93196398D02*
X109494636Y-93196398D01*
%TO.N,/SPI_MISO*%
X109800000Y-89900000D02*
X106600000Y-86700000D01*
X95900000Y-86700000D02*
X93700000Y-88900000D01*
X106600000Y-86700000D02*
X95900000Y-86700000D01*
%TO.N,/ENC_CLK*%
X84700000Y-93800000D02*
X83750000Y-92850000D01*
X89500000Y-93800000D02*
X84700000Y-93800000D01*
X92700000Y-90600000D02*
X89500000Y-93800000D01*
%TO.N,/ENC_SW*%
X91200000Y-89550000D02*
X88500000Y-92250000D01*
X91200000Y-89500000D02*
X91200000Y-89550000D01*
%TO.N,/ENC_DT*%
X88700000Y-93200000D02*
X92000000Y-89900000D01*
%TO.N,/SENS0_TH+*%
X98000000Y-93900000D02*
X102900000Y-93900000D01*
X96500000Y-95400000D02*
X98000000Y-93900000D01*
X94800000Y-95400000D02*
X96500000Y-95400000D01*
X92774000Y-97500000D02*
X92774000Y-97426000D01*
X92774000Y-97426000D02*
X94800000Y-95400000D01*
X102900000Y-93900000D02*
X104600000Y-92200000D01*
%TD*%
%TA.AperFunction,Conductor*%
%TO.N,GND*%
G36*
X95449398Y-92131638D02*
G01*
X95493746Y-92160139D01*
X96236468Y-92902861D01*
X96255017Y-92926579D01*
X96258154Y-92931789D01*
X96271799Y-92947136D01*
X96274211Y-92949848D01*
X96278077Y-92956360D01*
X96281713Y-92959152D01*
X96298247Y-92990334D01*
X96313623Y-93033152D01*
X96315263Y-93038035D01*
X96339767Y-93116360D01*
X96339774Y-93116380D01*
X96339776Y-93116386D01*
X96349685Y-93143494D01*
X96350542Y-93145534D01*
X96350554Y-93145561D01*
X96362993Y-93171633D01*
X96363012Y-93171672D01*
X96376921Y-93197589D01*
X96416880Y-93272049D01*
X96423800Y-93284262D01*
X96424346Y-93285177D01*
X96435920Y-93303098D01*
X96440221Y-93308380D01*
X96439493Y-93308972D01*
X96452227Y-93325435D01*
X96459487Y-93338009D01*
X96459489Y-93338012D01*
X96459491Y-93338015D01*
X96561985Y-93440509D01*
X96561986Y-93440510D01*
X96561988Y-93440511D01*
X96687511Y-93512982D01*
X96687512Y-93512982D01*
X96687515Y-93512984D01*
X96827525Y-93550500D01*
X96827528Y-93550500D01*
X96883745Y-93550500D01*
X96950784Y-93570185D01*
X96996539Y-93622989D01*
X97006483Y-93692147D01*
X96977458Y-93755703D01*
X96971426Y-93762181D01*
X96170426Y-94563181D01*
X96109103Y-94596666D01*
X96082745Y-94599500D01*
X94410339Y-94599500D01*
X94410323Y-94599499D01*
X94402727Y-94599499D01*
X94297273Y-94599499D01*
X94229366Y-94617695D01*
X94195412Y-94626793D01*
X94104084Y-94679522D01*
X91012181Y-97771426D01*
X90950858Y-97804911D01*
X90881166Y-97799927D01*
X90825233Y-97758055D01*
X90800816Y-97692591D01*
X90800500Y-97683745D01*
X90800500Y-95617255D01*
X90820185Y-95550216D01*
X90836819Y-95529574D01*
X94129574Y-92236819D01*
X94156501Y-92222115D01*
X94182320Y-92205523D01*
X94188520Y-92204631D01*
X94190897Y-92203334D01*
X94217255Y-92200500D01*
X94362132Y-92200500D01*
X94392019Y-92204156D01*
X94393933Y-92204631D01*
X94397919Y-92205621D01*
X94422035Y-92207036D01*
X94429372Y-92208905D01*
X94433918Y-92208309D01*
X94467653Y-92218663D01*
X94508849Y-92238088D01*
X94513430Y-92240367D01*
X94586164Y-92278436D01*
X94605184Y-92287274D01*
X94612329Y-92290594D01*
X94613180Y-92290941D01*
X94614372Y-92291428D01*
X94614385Y-92291432D01*
X94614391Y-92291435D01*
X94621530Y-92293962D01*
X94641681Y-92301097D01*
X94641691Y-92301100D01*
X94641696Y-92301102D01*
X94681096Y-92312982D01*
X94750739Y-92333982D01*
X94764443Y-92337769D01*
X94764447Y-92337770D01*
X94765491Y-92338033D01*
X94786117Y-92342467D01*
X94786122Y-92342468D01*
X94786126Y-92342467D01*
X94792892Y-92343161D01*
X94792796Y-92344096D01*
X94813466Y-92346732D01*
X94827525Y-92350500D01*
X94827526Y-92350500D01*
X94972472Y-92350500D01*
X94972475Y-92350500D01*
X95112485Y-92312984D01*
X95238015Y-92240509D01*
X95318387Y-92160136D01*
X95379706Y-92126654D01*
X95449398Y-92131638D01*
G37*
%TD.AperFunction*%
%TA.AperFunction,Conductor*%
G36*
X101243199Y-88103210D02*
G01*
X101249161Y-88102062D01*
X101276331Y-88112939D01*
X101304412Y-88121185D01*
X101308387Y-88125773D01*
X101314025Y-88128030D01*
X101331003Y-88151873D01*
X101350167Y-88173989D01*
X101351031Y-88179998D01*
X101354553Y-88184944D01*
X101355945Y-88214174D01*
X101360111Y-88243147D01*
X101357662Y-88250222D01*
X101357877Y-88254735D01*
X101344761Y-88287496D01*
X101287016Y-88387515D01*
X101249500Y-88527525D01*
X101249500Y-88527527D01*
X101249500Y-88672477D01*
X101262136Y-88719636D01*
X101265439Y-88736637D01*
X101267499Y-88753438D01*
X101267500Y-88753443D01*
X101267500Y-88753445D01*
X101267501Y-88753447D01*
X101284899Y-88808363D01*
X101306530Y-88876640D01*
X101306538Y-88876664D01*
X101316481Y-88903580D01*
X101316495Y-88903614D01*
X101317335Y-88905596D01*
X101317339Y-88905605D01*
X101317344Y-88905616D01*
X101321290Y-88913831D01*
X101329728Y-88931399D01*
X101361068Y-88989515D01*
X101363545Y-88994359D01*
X101379525Y-89027388D01*
X101380528Y-89029460D01*
X101392660Y-89075658D01*
X101394414Y-89103466D01*
X101395837Y-89109189D01*
X101399500Y-89139104D01*
X101399500Y-89282745D01*
X101379815Y-89349784D01*
X101363181Y-89370426D01*
X97662181Y-93071426D01*
X97600858Y-93104911D01*
X97531166Y-93099927D01*
X97475233Y-93058055D01*
X97450816Y-92992591D01*
X97450500Y-92983745D01*
X97450500Y-92927527D01*
X97450500Y-92927525D01*
X97412984Y-92787515D01*
X97412321Y-92786367D01*
X97340511Y-92661988D01*
X97340506Y-92661982D01*
X97238017Y-92559493D01*
X97238015Y-92559491D01*
X97195727Y-92535076D01*
X97181377Y-92525394D01*
X97168029Y-92514962D01*
X97168026Y-92514960D01*
X97053351Y-92455464D01*
X97053328Y-92455453D01*
X97027397Y-92443503D01*
X97025363Y-92442679D01*
X97025361Y-92442678D01*
X96998207Y-92433136D01*
X96934945Y-92414198D01*
X96929768Y-92412524D01*
X96892933Y-92399711D01*
X96851686Y-92375623D01*
X96830784Y-92357201D01*
X96825721Y-92354154D01*
X96801991Y-92335598D01*
X95822459Y-91356066D01*
X96860528Y-91356066D01*
X96928889Y-91474470D01*
X96928893Y-91474476D01*
X97040599Y-91586182D01*
X97040605Y-91586186D01*
X97159009Y-91654548D01*
X97159010Y-91654548D01*
X97659010Y-91654548D01*
X97777414Y-91586186D01*
X97777420Y-91586182D01*
X97889126Y-91474476D01*
X97889130Y-91474470D01*
X97957492Y-91356066D01*
X97659010Y-91356066D01*
X97659010Y-91654548D01*
X97159010Y-91654548D01*
X97159010Y-91356066D01*
X96860528Y-91356066D01*
X95822459Y-91356066D01*
X95256774Y-90790381D01*
X96294843Y-90790381D01*
X96363204Y-90908785D01*
X96363208Y-90908791D01*
X96474914Y-91020497D01*
X96474920Y-91020501D01*
X96593324Y-91088863D01*
X96593325Y-91088863D01*
X96593325Y-91076229D01*
X97259010Y-91076229D01*
X97259010Y-91135903D01*
X97281846Y-91191034D01*
X97324042Y-91233230D01*
X97379173Y-91256066D01*
X97438847Y-91256066D01*
X97493978Y-91233230D01*
X97536174Y-91191034D01*
X97559010Y-91135903D01*
X97559010Y-91088863D01*
X98224695Y-91088863D01*
X98343099Y-91020501D01*
X98343105Y-91020497D01*
X98454811Y-90908791D01*
X98454815Y-90908785D01*
X98523177Y-90790381D01*
X98224695Y-90790381D01*
X98224695Y-91088863D01*
X97559010Y-91088863D01*
X97559010Y-91076229D01*
X97536174Y-91021098D01*
X97493978Y-90978902D01*
X97438847Y-90956066D01*
X97379173Y-90956066D01*
X97324042Y-90978902D01*
X97281846Y-91021098D01*
X97259010Y-91076229D01*
X96593325Y-91076229D01*
X96593325Y-90856066D01*
X97093325Y-90856066D01*
X97159010Y-90856066D01*
X97659010Y-90856066D01*
X97724695Y-90856066D01*
X97724695Y-90790381D01*
X97659010Y-90790381D01*
X97659010Y-90856066D01*
X97159010Y-90856066D01*
X97159010Y-90790381D01*
X97093325Y-90790381D01*
X97093325Y-90856066D01*
X96593325Y-90856066D01*
X96593325Y-90790381D01*
X96294843Y-90790381D01*
X95256774Y-90790381D01*
X94976937Y-90510544D01*
X96693325Y-90510544D01*
X96693325Y-90570218D01*
X96716161Y-90625349D01*
X96758357Y-90667545D01*
X96813488Y-90690381D01*
X96873162Y-90690381D01*
X96928293Y-90667545D01*
X96970489Y-90625349D01*
X96993325Y-90570218D01*
X96993325Y-90510544D01*
X97824695Y-90510544D01*
X97824695Y-90570218D01*
X97847531Y-90625349D01*
X97889727Y-90667545D01*
X97944858Y-90690381D01*
X98004532Y-90690381D01*
X98059663Y-90667545D01*
X98101859Y-90625349D01*
X98124695Y-90570218D01*
X98124695Y-90510544D01*
X98101859Y-90455413D01*
X98059663Y-90413217D01*
X98004532Y-90390381D01*
X97944858Y-90390381D01*
X97889727Y-90413217D01*
X97847531Y-90455413D01*
X97824695Y-90510544D01*
X96993325Y-90510544D01*
X96970489Y-90455413D01*
X96928293Y-90413217D01*
X96873162Y-90390381D01*
X96813488Y-90390381D01*
X96758357Y-90413217D01*
X96716161Y-90455413D01*
X96693325Y-90510544D01*
X94976937Y-90510544D01*
X94756773Y-90290380D01*
X96294842Y-90290380D01*
X96294843Y-90290381D01*
X96593325Y-90290381D01*
X97093325Y-90290381D01*
X97159010Y-90290381D01*
X97659010Y-90290381D01*
X97724695Y-90290381D01*
X98224695Y-90290381D01*
X98523177Y-90290381D01*
X98523177Y-90290380D01*
X98454815Y-90171976D01*
X98454811Y-90171970D01*
X98343105Y-90060264D01*
X98343102Y-90060262D01*
X98224695Y-89991898D01*
X98224695Y-90290381D01*
X97724695Y-90290381D01*
X97724695Y-90224696D01*
X97659010Y-90224696D01*
X97659010Y-90290381D01*
X97159010Y-90290381D01*
X97159010Y-90224696D01*
X97093325Y-90224696D01*
X97093325Y-90290381D01*
X96593325Y-90290381D01*
X96593325Y-89991898D01*
X96474917Y-90060262D01*
X96474914Y-90060264D01*
X96363208Y-90171970D01*
X96363204Y-90171976D01*
X96294842Y-90290380D01*
X94756773Y-90290380D01*
X94411252Y-89944859D01*
X97259010Y-89944859D01*
X97259010Y-90004533D01*
X97281846Y-90059664D01*
X97324042Y-90101860D01*
X97379173Y-90124696D01*
X97438847Y-90124696D01*
X97493978Y-90101860D01*
X97536174Y-90059664D01*
X97559010Y-90004533D01*
X97559010Y-89944859D01*
X97536174Y-89889728D01*
X97493978Y-89847532D01*
X97438847Y-89824696D01*
X97379173Y-89824696D01*
X97324042Y-89847532D01*
X97281846Y-89889728D01*
X97259010Y-89944859D01*
X94411252Y-89944859D01*
X94191088Y-89724695D01*
X96860527Y-89724695D01*
X96860528Y-89724696D01*
X97159010Y-89724696D01*
X97659010Y-89724696D01*
X97957492Y-89724696D01*
X97957492Y-89724695D01*
X97889130Y-89606291D01*
X97889126Y-89606285D01*
X97777420Y-89494579D01*
X97777417Y-89494577D01*
X97659010Y-89426213D01*
X97659010Y-89724696D01*
X97159010Y-89724696D01*
X97159010Y-89426213D01*
X97040602Y-89494577D01*
X97040599Y-89494579D01*
X96928893Y-89606285D01*
X96928889Y-89606291D01*
X96860527Y-89724695D01*
X94191088Y-89724695D01*
X94005763Y-89539370D01*
X93972278Y-89478047D01*
X93977262Y-89408355D01*
X94019134Y-89352422D01*
X94031430Y-89344310D01*
X94038015Y-89340509D01*
X94140509Y-89238015D01*
X94164930Y-89195713D01*
X94174606Y-89181372D01*
X94185037Y-89168027D01*
X94188171Y-89161988D01*
X94244533Y-89053351D01*
X94244544Y-89053328D01*
X94256494Y-89027398D01*
X94257318Y-89025365D01*
X94266858Y-88998221D01*
X94285796Y-88934951D01*
X94287459Y-88929808D01*
X94300287Y-88892933D01*
X94324374Y-88851690D01*
X94342796Y-88830789D01*
X94345836Y-88825735D01*
X94364398Y-88801993D01*
X94823411Y-88342981D01*
X94884734Y-88309496D01*
X94954426Y-88314480D01*
X94998773Y-88342981D01*
X95079143Y-88423351D01*
X95079144Y-88423352D01*
X95079146Y-88423353D01*
X95204669Y-88495824D01*
X95204670Y-88495824D01*
X95204673Y-88495826D01*
X95344683Y-88533342D01*
X95344686Y-88533342D01*
X95489630Y-88533342D01*
X95489633Y-88533342D01*
X95629643Y-88495826D01*
X95755173Y-88423351D01*
X95857667Y-88320857D01*
X95867502Y-88303820D01*
X95918065Y-88255606D01*
X95986672Y-88242380D01*
X96051538Y-88268345D01*
X96080668Y-88306765D01*
X96082952Y-88305447D01*
X96159488Y-88438011D01*
X96159490Y-88438013D01*
X96159491Y-88438015D01*
X96261985Y-88540509D01*
X96261986Y-88540510D01*
X96261988Y-88540511D01*
X96387511Y-88612982D01*
X96387512Y-88612982D01*
X96387515Y-88612984D01*
X96527525Y-88650500D01*
X96527528Y-88650500D01*
X96672472Y-88650500D01*
X96672475Y-88650500D01*
X96812485Y-88612984D01*
X96938015Y-88540509D01*
X97040509Y-88438015D01*
X97064930Y-88395713D01*
X97074606Y-88381372D01*
X97085037Y-88368027D01*
X97094556Y-88349681D01*
X97144533Y-88253351D01*
X97144544Y-88253328D01*
X97156494Y-88227398D01*
X97157318Y-88225365D01*
X97166858Y-88198221D01*
X97169336Y-88189942D01*
X97207416Y-88131364D01*
X97271122Y-88102672D01*
X97288128Y-88101500D01*
X101237373Y-88101500D01*
X101243199Y-88103210D01*
G37*
%TD.AperFunction*%
%TA.AperFunction,Conductor*%
G36*
X118443484Y-67820185D02*
G01*
X118489239Y-67872989D01*
X118499183Y-67942147D01*
X118470158Y-68005703D01*
X118417400Y-68041541D01*
X118292654Y-68085191D01*
X118292640Y-68085197D01*
X117973887Y-68238700D01*
X117674311Y-68426937D01*
X117674308Y-68426939D01*
X117651909Y-68444802D01*
X117651909Y-68444803D01*
X118778835Y-69571728D01*
X118661417Y-69631557D01*
X118457670Y-69779588D01*
X118279588Y-69957670D01*
X118131557Y-70161417D01*
X118071729Y-70278835D01*
X116944803Y-69151909D01*
X116944802Y-69151909D01*
X116926939Y-69174308D01*
X116926937Y-69174311D01*
X116738700Y-69473887D01*
X116585197Y-69792640D01*
X116585191Y-69792654D01*
X116468344Y-70126582D01*
X116468341Y-70126590D01*
X116389613Y-70471524D01*
X116389611Y-70471536D01*
X116350000Y-70823095D01*
X116350000Y-71176904D01*
X116389611Y-71528463D01*
X116389613Y-71528475D01*
X116468341Y-71873409D01*
X116468344Y-71873417D01*
X116585191Y-72207345D01*
X116585197Y-72207359D01*
X116738700Y-72526112D01*
X116926937Y-72825689D01*
X116926939Y-72825693D01*
X116944801Y-72848089D01*
X116944802Y-72848090D01*
X118071728Y-71721163D01*
X118131557Y-71838583D01*
X118279588Y-72042330D01*
X118457670Y-72220412D01*
X118661417Y-72368443D01*
X118778834Y-72428270D01*
X117651908Y-73555196D01*
X117651909Y-73555197D01*
X117674308Y-73573061D01*
X117973887Y-73761299D01*
X118292640Y-73914802D01*
X118292654Y-73914808D01*
X118626582Y-74031655D01*
X118626590Y-74031658D01*
X118971524Y-74110386D01*
X118971536Y-74110388D01*
X119323095Y-74149999D01*
X119323097Y-74150000D01*
X119676903Y-74150000D01*
X119676904Y-74149999D01*
X120028463Y-74110388D01*
X120028475Y-74110386D01*
X120373409Y-74031658D01*
X120373417Y-74031655D01*
X120707345Y-73914808D01*
X120707359Y-73914802D01*
X121026112Y-73761299D01*
X121325687Y-73573063D01*
X121348090Y-73555197D01*
X120221164Y-72428270D01*
X120338583Y-72368443D01*
X120542330Y-72220412D01*
X120720412Y-72042330D01*
X120868443Y-71838583D01*
X120928270Y-71721164D01*
X122055197Y-72848090D01*
X122073063Y-72825687D01*
X122261299Y-72526112D01*
X122414802Y-72207359D01*
X122414808Y-72207345D01*
X122458459Y-72082600D01*
X122499180Y-72025824D01*
X122564133Y-72000077D01*
X122632695Y-72013533D01*
X122683097Y-72061921D01*
X122699500Y-72123555D01*
X122699500Y-123376444D01*
X122679815Y-123443483D01*
X122627011Y-123489238D01*
X122557853Y-123499182D01*
X122494297Y-123470157D01*
X122458459Y-123417399D01*
X122414808Y-123292654D01*
X122414802Y-123292640D01*
X122261299Y-122973887D01*
X122073061Y-122674308D01*
X122055197Y-122651909D01*
X122055196Y-122651908D01*
X120928270Y-123778834D01*
X120868443Y-123661417D01*
X120720412Y-123457670D01*
X120542330Y-123279588D01*
X120338583Y-123131557D01*
X120221164Y-123071728D01*
X121348090Y-121944802D01*
X121348089Y-121944801D01*
X121325693Y-121926939D01*
X121325689Y-121926937D01*
X121026112Y-121738700D01*
X120707359Y-121585197D01*
X120707345Y-121585191D01*
X120373417Y-121468344D01*
X120373409Y-121468341D01*
X120028475Y-121389613D01*
X120028463Y-121389611D01*
X119676904Y-121350000D01*
X119323095Y-121350000D01*
X118971536Y-121389611D01*
X118971524Y-121389613D01*
X118626590Y-121468341D01*
X118626582Y-121468344D01*
X118292654Y-121585191D01*
X118292640Y-121585197D01*
X117973887Y-121738700D01*
X117674311Y-121926937D01*
X117674308Y-121926939D01*
X117651909Y-121944802D01*
X117651909Y-121944803D01*
X118778835Y-123071728D01*
X118661417Y-123131557D01*
X118457670Y-123279588D01*
X118279588Y-123457670D01*
X118131557Y-123661417D01*
X118071729Y-123778835D01*
X116944803Y-122651909D01*
X116944802Y-122651909D01*
X116926939Y-122674308D01*
X116926937Y-122674311D01*
X116738700Y-122973887D01*
X116585197Y-123292640D01*
X116585191Y-123292654D01*
X116468344Y-123626582D01*
X116468341Y-123626590D01*
X116389613Y-123971524D01*
X116389611Y-123971536D01*
X116350000Y-124323095D01*
X116350000Y-124676904D01*
X116389611Y-125028463D01*
X116389613Y-125028475D01*
X116468341Y-125373409D01*
X116468344Y-125373417D01*
X116585191Y-125707345D01*
X116585197Y-125707359D01*
X116738700Y-126026112D01*
X116926937Y-126325689D01*
X116926939Y-126325693D01*
X116944801Y-126348089D01*
X116944802Y-126348090D01*
X118071728Y-125221163D01*
X118131557Y-125338583D01*
X118279588Y-125542330D01*
X118457670Y-125720412D01*
X118661417Y-125868443D01*
X118778834Y-125928270D01*
X117651908Y-127055196D01*
X117651909Y-127055197D01*
X117674308Y-127073061D01*
X117973887Y-127261299D01*
X118292640Y-127414802D01*
X118292654Y-127414808D01*
X118417400Y-127458459D01*
X118474176Y-127499180D01*
X118499923Y-127564133D01*
X118486467Y-127632695D01*
X118438079Y-127683097D01*
X118376445Y-127699500D01*
X75623555Y-127699500D01*
X75556516Y-127679815D01*
X75510761Y-127627011D01*
X75500817Y-127557853D01*
X75529842Y-127494297D01*
X75582600Y-127458459D01*
X75707345Y-127414808D01*
X75707359Y-127414802D01*
X76026112Y-127261299D01*
X76325687Y-127073063D01*
X76348090Y-127055197D01*
X75221164Y-125928270D01*
X75338583Y-125868443D01*
X75542330Y-125720412D01*
X75720412Y-125542330D01*
X75868443Y-125338583D01*
X75928270Y-125221164D01*
X77055197Y-126348090D01*
X77073063Y-126325687D01*
X77261299Y-126026112D01*
X77414802Y-125707359D01*
X77414808Y-125707345D01*
X77531655Y-125373417D01*
X77531658Y-125373409D01*
X77610386Y-125028475D01*
X77610388Y-125028463D01*
X77649999Y-124676904D01*
X77650000Y-124676902D01*
X77650000Y-124323097D01*
X77649999Y-124323095D01*
X77610388Y-123971536D01*
X77610386Y-123971524D01*
X77531658Y-123626590D01*
X77531655Y-123626582D01*
X77414808Y-123292654D01*
X77414802Y-123292640D01*
X77325402Y-123106998D01*
X77301277Y-123056901D01*
X93449500Y-123056901D01*
X93449500Y-126143098D01*
X93460123Y-126231560D01*
X93460124Y-126231563D01*
X93506076Y-126348090D01*
X93515640Y-126372343D01*
X93607077Y-126492922D01*
X93676870Y-126545847D01*
X93727659Y-126584361D01*
X93868437Y-126639876D01*
X93956902Y-126650500D01*
X97043098Y-126650500D01*
X97131563Y-126639876D01*
X97272341Y-126584361D01*
X97392922Y-126492922D01*
X97484361Y-126372341D01*
X97539876Y-126231563D01*
X97550500Y-126143098D01*
X97550500Y-124462358D01*
X100400000Y-124462358D01*
X100400000Y-124737641D01*
X100435930Y-125010565D01*
X100507180Y-125276471D01*
X100612520Y-125530787D01*
X100612527Y-125530801D01*
X100703874Y-125689018D01*
X100703875Y-125689019D01*
X101725000Y-124667894D01*
X101725000Y-124676331D01*
X101754783Y-124826059D01*
X101813204Y-124967100D01*
X101898018Y-125094034D01*
X102005966Y-125201982D01*
X102132900Y-125286796D01*
X102273941Y-125345217D01*
X102423669Y-125375000D01*
X102432106Y-125375000D01*
X101410979Y-126396124D01*
X101410979Y-126396125D01*
X101569193Y-126487470D01*
X101569209Y-126487478D01*
X101823528Y-126592819D01*
X102089434Y-126664069D01*
X102362358Y-126700000D01*
X102637642Y-126700000D01*
X102910565Y-126664069D01*
X103176471Y-126592819D01*
X103430790Y-126487478D01*
X103430806Y-126487470D01*
X103589019Y-126396125D01*
X103589019Y-126396124D01*
X102567894Y-125375000D01*
X102576331Y-125375000D01*
X102726059Y-125345217D01*
X102867100Y-125286796D01*
X102994034Y-125201982D01*
X103101982Y-125094034D01*
X103186796Y-124967100D01*
X103245217Y-124826059D01*
X103275000Y-124676331D01*
X103275000Y-124667894D01*
X104296124Y-125689019D01*
X104296125Y-125689019D01*
X104387470Y-125530806D01*
X104387478Y-125530790D01*
X104492819Y-125276471D01*
X104564069Y-125010565D01*
X104600000Y-124737641D01*
X104600000Y-124465602D01*
X107449500Y-124465602D01*
X107449500Y-124734397D01*
X107484582Y-125000880D01*
X107484583Y-125000885D01*
X107484584Y-125000891D01*
X107491972Y-125028463D01*
X107554152Y-125260524D01*
X107657011Y-125508850D01*
X107657019Y-125508866D01*
X107737830Y-125648832D01*
X107791413Y-125741641D01*
X107791415Y-125741644D01*
X107791416Y-125741645D01*
X107955042Y-125954888D01*
X107955048Y-125954895D01*
X108145104Y-126144951D01*
X108145110Y-126144956D01*
X108358359Y-126308587D01*
X108507968Y-126394964D01*
X108591133Y-126442980D01*
X108591149Y-126442988D01*
X108711702Y-126492922D01*
X108839474Y-126545847D01*
X109099109Y-126615416D01*
X109284897Y-126639875D01*
X109365602Y-126650500D01*
X109365603Y-126650500D01*
X109634398Y-126650500D01*
X109694905Y-126642534D01*
X109900891Y-126615416D01*
X110160526Y-126545847D01*
X110347457Y-126468417D01*
X110408850Y-126442988D01*
X110408853Y-126442986D01*
X110408859Y-126442984D01*
X110641641Y-126308587D01*
X110854890Y-126144956D01*
X111044956Y-125954890D01*
X111208587Y-125741641D01*
X111342984Y-125508859D01*
X111445847Y-125260526D01*
X111515416Y-125000891D01*
X111550500Y-124734397D01*
X111550500Y-124465603D01*
X111548762Y-124452405D01*
X111543577Y-124413022D01*
X111515416Y-124199109D01*
X111445847Y-123939474D01*
X111385131Y-123792893D01*
X111342988Y-123691149D01*
X111342980Y-123691133D01*
X111294964Y-123607968D01*
X111208587Y-123458359D01*
X111044956Y-123245110D01*
X111044951Y-123245104D01*
X110854895Y-123055048D01*
X110854888Y-123055042D01*
X110641645Y-122891416D01*
X110641644Y-122891415D01*
X110641641Y-122891413D01*
X110531216Y-122827659D01*
X110408866Y-122757019D01*
X110408850Y-122757011D01*
X110160524Y-122654152D01*
X110030708Y-122619368D01*
X109900891Y-122584584D01*
X109900885Y-122584583D01*
X109900880Y-122584582D01*
X109634398Y-122549500D01*
X109634397Y-122549500D01*
X109365603Y-122549500D01*
X109365602Y-122549500D01*
X109099119Y-122584582D01*
X109099112Y-122584583D01*
X109099109Y-122584584D01*
X109044239Y-122599286D01*
X108839475Y-122654152D01*
X108591149Y-122757011D01*
X108591133Y-122757019D01*
X108358354Y-122891416D01*
X108145111Y-123055042D01*
X108145104Y-123055048D01*
X107955048Y-123245104D01*
X107955042Y-123245111D01*
X107791416Y-123458354D01*
X107657019Y-123691133D01*
X107657011Y-123691149D01*
X107554152Y-123939475D01*
X107504352Y-124125332D01*
X107487177Y-124189434D01*
X107484585Y-124199106D01*
X107484582Y-124199119D01*
X107449500Y-124465602D01*
X104600000Y-124465602D01*
X104600000Y-124462358D01*
X104564069Y-124189434D01*
X104492819Y-123923528D01*
X104387478Y-123669209D01*
X104387470Y-123669193D01*
X104296124Y-123510979D01*
X103275000Y-124532104D01*
X103275000Y-124523669D01*
X103245217Y-124373941D01*
X103186796Y-124232900D01*
X103101982Y-124105966D01*
X102994034Y-123998018D01*
X102867100Y-123913204D01*
X102726059Y-123854783D01*
X102576331Y-123825000D01*
X102567892Y-123825000D01*
X103589018Y-122803874D01*
X103430801Y-122712527D01*
X103430787Y-122712520D01*
X103176471Y-122607180D01*
X102910565Y-122535930D01*
X102637642Y-122500000D01*
X102362358Y-122500000D01*
X102089434Y-122535930D01*
X101823528Y-122607180D01*
X101569212Y-122712520D01*
X101569202Y-122712525D01*
X101410980Y-122803874D01*
X101410979Y-122803874D01*
X102432106Y-123825000D01*
X102423669Y-123825000D01*
X102273941Y-123854783D01*
X102132900Y-123913204D01*
X102005966Y-123998018D01*
X101898018Y-124105966D01*
X101813204Y-124232900D01*
X101754783Y-124373941D01*
X101725000Y-124523669D01*
X101725000Y-124532105D01*
X100703874Y-123510979D01*
X100703874Y-123510980D01*
X100612525Y-123669202D01*
X100612520Y-123669212D01*
X100507180Y-123923528D01*
X100435930Y-124189434D01*
X100400000Y-124462358D01*
X97550500Y-124462358D01*
X97550500Y-123056902D01*
X97539876Y-122968437D01*
X97484361Y-122827659D01*
X97484359Y-122827656D01*
X97392922Y-122707077D01*
X97272343Y-122615640D01*
X97272341Y-122615639D01*
X97131563Y-122560124D01*
X97131560Y-122560123D01*
X97043098Y-122549500D01*
X93956902Y-122549500D01*
X93868439Y-122560123D01*
X93868438Y-122560123D01*
X93868437Y-122560124D01*
X93772284Y-122598041D01*
X93727656Y-122615640D01*
X93607077Y-122707077D01*
X93515640Y-122827656D01*
X93460124Y-122968438D01*
X93460123Y-122968439D01*
X93449500Y-123056901D01*
X77301277Y-123056901D01*
X77261299Y-122973887D01*
X77073061Y-122674308D01*
X77055197Y-122651909D01*
X77055196Y-122651908D01*
X75928270Y-123778834D01*
X75868443Y-123661417D01*
X75720412Y-123457670D01*
X75542330Y-123279588D01*
X75338583Y-123131557D01*
X75221164Y-123071728D01*
X76348090Y-121944802D01*
X76348089Y-121944801D01*
X76325693Y-121926939D01*
X76325689Y-121926937D01*
X76026112Y-121738700D01*
X75707359Y-121585197D01*
X75707345Y-121585191D01*
X75373417Y-121468344D01*
X75373409Y-121468341D01*
X75028475Y-121389613D01*
X75028463Y-121389611D01*
X74676904Y-121350000D01*
X74323095Y-121350000D01*
X73971536Y-121389611D01*
X73971524Y-121389613D01*
X73626590Y-121468341D01*
X73626582Y-121468344D01*
X73292654Y-121585191D01*
X73292640Y-121585197D01*
X72973887Y-121738700D01*
X72674311Y-121926937D01*
X72674308Y-121926939D01*
X72651909Y-121944802D01*
X72651909Y-121944803D01*
X73778835Y-123071728D01*
X73661417Y-123131557D01*
X73457670Y-123279588D01*
X73279588Y-123457670D01*
X73131557Y-123661417D01*
X73071729Y-123778835D01*
X71944803Y-122651909D01*
X71944802Y-122651909D01*
X71926939Y-122674308D01*
X71926937Y-122674311D01*
X71738700Y-122973887D01*
X71585197Y-123292640D01*
X71585191Y-123292654D01*
X71541541Y-123417399D01*
X71500819Y-123474175D01*
X71435867Y-123499922D01*
X71367305Y-123486466D01*
X71316902Y-123438078D01*
X71300500Y-123376444D01*
X71300500Y-116856900D01*
X72549500Y-116856900D01*
X72549500Y-118743091D01*
X72560123Y-118831562D01*
X72615639Y-118972342D01*
X72615640Y-118972344D01*
X72707077Y-119092922D01*
X72827655Y-119184359D01*
X72827658Y-119184361D01*
X72968436Y-119239876D01*
X73056901Y-119250500D01*
X74943098Y-119250499D01*
X75031564Y-119239876D01*
X75172342Y-119184361D01*
X75292922Y-119092922D01*
X75384361Y-118972342D01*
X75439876Y-118831564D01*
X75450500Y-118743099D01*
X75450499Y-116856902D01*
X75450499Y-116856900D01*
X118549500Y-116856900D01*
X118549500Y-118743091D01*
X118560123Y-118831562D01*
X118615639Y-118972342D01*
X118615640Y-118972344D01*
X118707077Y-119092922D01*
X118827655Y-119184359D01*
X118827658Y-119184361D01*
X118968436Y-119239876D01*
X119056901Y-119250500D01*
X120943098Y-119250499D01*
X121031564Y-119239876D01*
X121172342Y-119184361D01*
X121292922Y-119092922D01*
X121384361Y-118972342D01*
X121439876Y-118831564D01*
X121450500Y-118743099D01*
X121450499Y-116856902D01*
X121439876Y-116768436D01*
X121384361Y-116627658D01*
X121384359Y-116627655D01*
X121292922Y-116507077D01*
X121172344Y-116415640D01*
X121172342Y-116415639D01*
X121031564Y-116360124D01*
X121031561Y-116360123D01*
X120943099Y-116349500D01*
X119056908Y-116349500D01*
X118968437Y-116360123D01*
X118827657Y-116415639D01*
X118827655Y-116415640D01*
X118707077Y-116507077D01*
X118615640Y-116627655D01*
X118560124Y-116768437D01*
X118560123Y-116768438D01*
X118549500Y-116856900D01*
X75450499Y-116856900D01*
X75439876Y-116768436D01*
X75384361Y-116627658D01*
X75384359Y-116627655D01*
X75292922Y-116507077D01*
X75172344Y-116415640D01*
X75172342Y-116415639D01*
X75031564Y-116360124D01*
X75031561Y-116360123D01*
X74943099Y-116349500D01*
X73056908Y-116349500D01*
X72968437Y-116360123D01*
X72827657Y-116415639D01*
X72827655Y-116415640D01*
X72707077Y-116507077D01*
X72615640Y-116627655D01*
X72560124Y-116768437D01*
X72560123Y-116768438D01*
X72549500Y-116856900D01*
X71300500Y-116856900D01*
X71300500Y-112885837D01*
X72549500Y-112885837D01*
X72549500Y-113114162D01*
X72585215Y-113339660D01*
X72655770Y-113556803D01*
X72759421Y-113760228D01*
X72893621Y-113944937D01*
X73055063Y-114106379D01*
X73239772Y-114240579D01*
X73335884Y-114289550D01*
X73443196Y-114344229D01*
X73443198Y-114344229D01*
X73443201Y-114344231D01*
X73559592Y-114382049D01*
X73660339Y-114414784D01*
X73885838Y-114450500D01*
X73885843Y-114450500D01*
X74114162Y-114450500D01*
X74339660Y-114414784D01*
X74556799Y-114344231D01*
X74760228Y-114240579D01*
X74944937Y-114106379D01*
X75106379Y-113944937D01*
X75240579Y-113760228D01*
X75344231Y-113556799D01*
X75414784Y-113339660D01*
X75450500Y-113114162D01*
X75450500Y-112885837D01*
X118549500Y-112885837D01*
X118549500Y-113114162D01*
X118585215Y-113339660D01*
X118655770Y-113556803D01*
X118759421Y-113760228D01*
X118893621Y-113944937D01*
X119055063Y-114106379D01*
X119239772Y-114240579D01*
X119335884Y-114289550D01*
X119443196Y-114344229D01*
X119443198Y-114344229D01*
X119443201Y-114344231D01*
X119559592Y-114382049D01*
X119660339Y-114414784D01*
X119885838Y-114450500D01*
X119885843Y-114450500D01*
X120114162Y-114450500D01*
X120339660Y-114414784D01*
X120556799Y-114344231D01*
X120760228Y-114240579D01*
X120944937Y-114106379D01*
X121106379Y-113944937D01*
X121240579Y-113760228D01*
X121344231Y-113556799D01*
X121414784Y-113339660D01*
X121450500Y-113114162D01*
X121450500Y-112885837D01*
X121414784Y-112660339D01*
X121344229Y-112443196D01*
X121240578Y-112239771D01*
X121139391Y-112100500D01*
X121106379Y-112055063D01*
X120944937Y-111893621D01*
X120760228Y-111759421D01*
X120556803Y-111655770D01*
X120339660Y-111585215D01*
X120114162Y-111549500D01*
X120114157Y-111549500D01*
X119885843Y-111549500D01*
X119885838Y-111549500D01*
X119660339Y-111585215D01*
X119443196Y-111655770D01*
X119239771Y-111759421D01*
X119055061Y-111893622D01*
X118893622Y-112055061D01*
X118759421Y-112239771D01*
X118655770Y-112443196D01*
X118585215Y-112660339D01*
X118549500Y-112885837D01*
X75450500Y-112885837D01*
X75414784Y-112660339D01*
X75344229Y-112443196D01*
X75240578Y-112239771D01*
X75139391Y-112100500D01*
X75106379Y-112055063D01*
X74944937Y-111893621D01*
X74760228Y-111759421D01*
X74556803Y-111655770D01*
X74339660Y-111585215D01*
X74114162Y-111549500D01*
X74114157Y-111549500D01*
X73885843Y-111549500D01*
X73885838Y-111549500D01*
X73660339Y-111585215D01*
X73443196Y-111655770D01*
X73239771Y-111759421D01*
X73055061Y-111893622D01*
X72893622Y-112055061D01*
X72759421Y-112239771D01*
X72655770Y-112443196D01*
X72585215Y-112660339D01*
X72549500Y-112885837D01*
X71300500Y-112885837D01*
X71300500Y-109797648D01*
X77199500Y-109797648D01*
X77199500Y-110002351D01*
X77231522Y-110204534D01*
X77294781Y-110399223D01*
X77325967Y-110460427D01*
X77374901Y-110556466D01*
X77387715Y-110581613D01*
X77508028Y-110747213D01*
X77652786Y-110891971D01*
X77807749Y-111004556D01*
X77818390Y-111012287D01*
X77914071Y-111061039D01*
X78000776Y-111105218D01*
X78000778Y-111105218D01*
X78000781Y-111105220D01*
X78105137Y-111139127D01*
X78195465Y-111168477D01*
X78296557Y-111184488D01*
X78397648Y-111200500D01*
X78397649Y-111200500D01*
X78602351Y-111200500D01*
X78602352Y-111200500D01*
X78804534Y-111168477D01*
X78999219Y-111105220D01*
X79181610Y-111012287D01*
X79332924Y-110902352D01*
X79347213Y-110891971D01*
X79347215Y-110891968D01*
X79347219Y-110891966D01*
X79491966Y-110747219D01*
X79491968Y-110747215D01*
X79491971Y-110747213D01*
X79544732Y-110674590D01*
X79612287Y-110581610D01*
X79705220Y-110399219D01*
X79768477Y-110204534D01*
X79800500Y-110002352D01*
X79800500Y-109797648D01*
X79768593Y-109596196D01*
X79768477Y-109595465D01*
X79705218Y-109400776D01*
X79657960Y-109308028D01*
X79612287Y-109218390D01*
X79604556Y-109207749D01*
X79491971Y-109052786D01*
X79347213Y-108908028D01*
X79181613Y-108787715D01*
X79181612Y-108787714D01*
X79181610Y-108787713D01*
X79120938Y-108756799D01*
X78999223Y-108694781D01*
X78804534Y-108631522D01*
X78629995Y-108603878D01*
X78602352Y-108599500D01*
X78397648Y-108599500D01*
X78373329Y-108603351D01*
X78195465Y-108631522D01*
X78000776Y-108694781D01*
X77818386Y-108787715D01*
X77652786Y-108908028D01*
X77508028Y-109052786D01*
X77387715Y-109218386D01*
X77294781Y-109400776D01*
X77231522Y-109595465D01*
X77199500Y-109797648D01*
X71300500Y-109797648D01*
X71300500Y-108085837D01*
X72549500Y-108085837D01*
X72549500Y-108314162D01*
X72585215Y-108539660D01*
X72655770Y-108756803D01*
X72671520Y-108787713D01*
X72759421Y-108960228D01*
X72893621Y-109144937D01*
X73055063Y-109306379D01*
X73239772Y-109440579D01*
X73263730Y-109452786D01*
X73443196Y-109544229D01*
X73443198Y-109544229D01*
X73443201Y-109544231D01*
X73527474Y-109571613D01*
X73660339Y-109614784D01*
X73885838Y-109650500D01*
X73885843Y-109650500D01*
X74114162Y-109650500D01*
X74339660Y-109614784D01*
X74556799Y-109544231D01*
X74760228Y-109440579D01*
X74944937Y-109306379D01*
X75106379Y-109144937D01*
X75240579Y-108960228D01*
X75344231Y-108756799D01*
X75414784Y-108539660D01*
X75450500Y-108314162D01*
X75450500Y-108085837D01*
X75414784Y-107860339D01*
X75344229Y-107643196D01*
X75240578Y-107439771D01*
X75106379Y-107255063D01*
X74944937Y-107093621D01*
X74760228Y-106959421D01*
X74556803Y-106855770D01*
X74339660Y-106785215D01*
X74114162Y-106749500D01*
X74114157Y-106749500D01*
X73885843Y-106749500D01*
X73885838Y-106749500D01*
X73660339Y-106785215D01*
X73443196Y-106855770D01*
X73239771Y-106959421D01*
X73055061Y-107093622D01*
X72893622Y-107255061D01*
X72759421Y-107439771D01*
X72655770Y-107643196D01*
X72585215Y-107860339D01*
X72549500Y-108085837D01*
X71300500Y-108085837D01*
X71300500Y-104753919D01*
X73353184Y-104753919D01*
X73424197Y-104790102D01*
X73648752Y-104863065D01*
X73648751Y-104863065D01*
X73881948Y-104900000D01*
X74118052Y-104900000D01*
X74351247Y-104863065D01*
X74575797Y-104790104D01*
X74646814Y-104753919D01*
X74000001Y-104107106D01*
X74000000Y-104107106D01*
X73353184Y-104753919D01*
X71300500Y-104753919D01*
X71300500Y-103281947D01*
X72500000Y-103281947D01*
X72500000Y-103518052D01*
X72536934Y-103751247D01*
X72609898Y-103975805D01*
X72646078Y-104046813D01*
X72646079Y-104046814D01*
X73292894Y-103400000D01*
X73220485Y-103327591D01*
X73450000Y-103327591D01*
X73450000Y-103472409D01*
X73487482Y-103612292D01*
X73559890Y-103737708D01*
X73662292Y-103840110D01*
X73787708Y-103912518D01*
X73927591Y-103950000D01*
X74072409Y-103950000D01*
X74212292Y-103912518D01*
X74337708Y-103840110D01*
X74440110Y-103737708D01*
X74512518Y-103612292D01*
X74550000Y-103472409D01*
X74550000Y-103399999D01*
X74707106Y-103399999D01*
X74707106Y-103400001D01*
X75353919Y-104046814D01*
X75390104Y-103975797D01*
X75463065Y-103751247D01*
X75500000Y-103518052D01*
X75500000Y-103281947D01*
X75463065Y-103048752D01*
X75390102Y-102824197D01*
X75353919Y-102753184D01*
X74707106Y-103399999D01*
X74550000Y-103399999D01*
X74550000Y-103327591D01*
X74512518Y-103187708D01*
X74440110Y-103062292D01*
X74337708Y-102959890D01*
X74212292Y-102887482D01*
X74072409Y-102850000D01*
X73927591Y-102850000D01*
X73787708Y-102887482D01*
X73662292Y-102959890D01*
X73559890Y-103062292D01*
X73487482Y-103187708D01*
X73450000Y-103327591D01*
X73220485Y-103327591D01*
X72646078Y-102753184D01*
X72609894Y-102824202D01*
X72609894Y-102824203D01*
X72536934Y-103048751D01*
X72500000Y-103281947D01*
X71300500Y-103281947D01*
X71300500Y-102046078D01*
X73353184Y-102046078D01*
X74000000Y-102692894D01*
X74000001Y-102692894D01*
X74646814Y-102046079D01*
X74646813Y-102046078D01*
X74575805Y-102009898D01*
X74351247Y-101936934D01*
X74351248Y-101936934D01*
X74118052Y-101900000D01*
X73881948Y-101900000D01*
X73648751Y-101936934D01*
X73424203Y-102009894D01*
X73424202Y-102009894D01*
X73353184Y-102046078D01*
X71300500Y-102046078D01*
X71300500Y-98485837D01*
X72549500Y-98485837D01*
X72549500Y-98714162D01*
X72585215Y-98939660D01*
X72655770Y-99156803D01*
X72757022Y-99355519D01*
X72759421Y-99360228D01*
X72893621Y-99544937D01*
X73055063Y-99706379D01*
X73239772Y-99840579D01*
X73335884Y-99889550D01*
X73443196Y-99944229D01*
X73443198Y-99944229D01*
X73443201Y-99944231D01*
X73559592Y-99982049D01*
X73660339Y-100014784D01*
X73885838Y-100050500D01*
X73885843Y-100050500D01*
X74114162Y-100050500D01*
X74339660Y-100014784D01*
X74556799Y-99944231D01*
X74760228Y-99840579D01*
X74944937Y-99706379D01*
X75106379Y-99544937D01*
X75240579Y-99360228D01*
X75344231Y-99156799D01*
X75414784Y-98939660D01*
X75426615Y-98864964D01*
X75450500Y-98714162D01*
X75450500Y-98485837D01*
X75414784Y-98260339D01*
X75360587Y-98093540D01*
X75344231Y-98043201D01*
X75344229Y-98043198D01*
X75344229Y-98043196D01*
X75240578Y-97839771D01*
X75239302Y-97838015D01*
X75106379Y-97655063D01*
X74944937Y-97493621D01*
X74760228Y-97359421D01*
X74759027Y-97358809D01*
X74556803Y-97255770D01*
X74339660Y-97185215D01*
X74114162Y-97149500D01*
X74114157Y-97149500D01*
X73885843Y-97149500D01*
X73885838Y-97149500D01*
X73660339Y-97185215D01*
X73443196Y-97255770D01*
X73239771Y-97359421D01*
X73055061Y-97493622D01*
X72893622Y-97655061D01*
X72759421Y-97839771D01*
X72655770Y-98043196D01*
X72585215Y-98260339D01*
X72549500Y-98485837D01*
X71300500Y-98485837D01*
X71300500Y-92777525D01*
X83199500Y-92777525D01*
X83199500Y-92922475D01*
X83216927Y-92987511D01*
X83237017Y-93062488D01*
X83309488Y-93188011D01*
X83309490Y-93188013D01*
X83309491Y-93188015D01*
X83411985Y-93290509D01*
X83454271Y-93314922D01*
X83468622Y-93324604D01*
X83481972Y-93335038D01*
X83596672Y-93394545D01*
X83622650Y-93406514D01*
X83624679Y-93407336D01*
X83651779Y-93416858D01*
X83683294Y-93426292D01*
X83715053Y-93435799D01*
X83720232Y-93437474D01*
X83757062Y-93450285D01*
X83798311Y-93474374D01*
X83819211Y-93492795D01*
X83824267Y-93495838D01*
X83848006Y-93514399D01*
X84454087Y-94120480D01*
X84545412Y-94173207D01*
X84647273Y-94200500D01*
X84647275Y-94200500D01*
X89533745Y-94200500D01*
X89600784Y-94220185D01*
X89646539Y-94272989D01*
X89656483Y-94342147D01*
X89627458Y-94405703D01*
X89621426Y-94412181D01*
X89379522Y-94654084D01*
X89379518Y-94654090D01*
X89326792Y-94745412D01*
X89326793Y-94745413D01*
X89299500Y-94847273D01*
X89299500Y-97101378D01*
X89279815Y-97168417D01*
X89227011Y-97214172D01*
X89157853Y-97224116D01*
X89156103Y-97223851D01*
X89002352Y-97199500D01*
X88797648Y-97199500D01*
X88773329Y-97203351D01*
X88595465Y-97231522D01*
X88400776Y-97294781D01*
X88218386Y-97387715D01*
X88052786Y-97508028D01*
X87908028Y-97652786D01*
X87787715Y-97818386D01*
X87694781Y-98000776D01*
X87631522Y-98195465D01*
X87599500Y-98397648D01*
X87599500Y-98602351D01*
X87631522Y-98804534D01*
X87694781Y-98999223D01*
X87751689Y-99110910D01*
X87776345Y-99159300D01*
X87787715Y-99181613D01*
X87908028Y-99347213D01*
X88052786Y-99491971D01*
X88181292Y-99585334D01*
X88218390Y-99612287D01*
X88320438Y-99664283D01*
X88400776Y-99705218D01*
X88400778Y-99705218D01*
X88400781Y-99705220D01*
X88454059Y-99722531D01*
X88595465Y-99768477D01*
X88696557Y-99784488D01*
X88797648Y-99800500D01*
X88797649Y-99800500D01*
X89002351Y-99800500D01*
X89002352Y-99800500D01*
X89156102Y-99776148D01*
X89225395Y-99785103D01*
X89278847Y-99830099D01*
X89299487Y-99896850D01*
X89299500Y-99898621D01*
X89299500Y-101082744D01*
X89279815Y-101149783D01*
X89263181Y-101170425D01*
X84943867Y-105489738D01*
X84935184Y-105497636D01*
X84930889Y-105501185D01*
X84913293Y-105513249D01*
X84902097Y-105524452D01*
X84897819Y-105528518D01*
X84897811Y-105528525D01*
X84789773Y-105631220D01*
X84776055Y-105642504D01*
X84643681Y-105736343D01*
X84641840Y-105737659D01*
X84637436Y-105741482D01*
X84636911Y-105740877D01*
X84616669Y-105756786D01*
X84611985Y-105759490D01*
X84509490Y-105861986D01*
X84509488Y-105861988D01*
X84437017Y-105987511D01*
X84437016Y-105987515D01*
X84399500Y-106127525D01*
X84399500Y-106272475D01*
X84437016Y-106412485D01*
X84437017Y-106412488D01*
X84509488Y-106538011D01*
X84509490Y-106538013D01*
X84509491Y-106538015D01*
X84611985Y-106640509D01*
X84611986Y-106640510D01*
X84611988Y-106640511D01*
X84737511Y-106712982D01*
X84737512Y-106712982D01*
X84737515Y-106712984D01*
X84877525Y-106750500D01*
X84877528Y-106750500D01*
X85022472Y-106750500D01*
X85022475Y-106750500D01*
X85162485Y-106712984D01*
X85288015Y-106640509D01*
X85390509Y-106538015D01*
X85462984Y-106412485D01*
X85500500Y-106272475D01*
X85500500Y-106267923D01*
X85500710Y-106260709D01*
X85500790Y-106259331D01*
X85500796Y-106259310D01*
X85509366Y-106148872D01*
X85510276Y-106127070D01*
X85510286Y-106125404D01*
X85509717Y-106106146D01*
X85510034Y-106100715D01*
X85520048Y-106072744D01*
X85527575Y-106043998D01*
X85532677Y-106037471D01*
X85533586Y-106034934D01*
X85536284Y-106032857D01*
X85546139Y-106020252D01*
X89787821Y-101778571D01*
X89849142Y-101745088D01*
X89918834Y-101750072D01*
X89974767Y-101791944D01*
X89999184Y-101857408D01*
X89999500Y-101866254D01*
X89999500Y-101947273D01*
X89999500Y-102052727D01*
X90007652Y-102083152D01*
X90026793Y-102154589D01*
X90033617Y-102166408D01*
X90079520Y-102245913D01*
X98153087Y-110319480D01*
X98244412Y-110372207D01*
X98346273Y-110399500D01*
X98451727Y-110399500D01*
X100871202Y-110399500D01*
X100881624Y-110399939D01*
X100890797Y-110400712D01*
X100907585Y-110404685D01*
X100977106Y-110407992D01*
X100979361Y-110408183D01*
X100979997Y-110408429D01*
X100989040Y-110409385D01*
X100994498Y-110410282D01*
X101034687Y-110429625D01*
X101044509Y-110433432D01*
X101045542Y-110434850D01*
X101057452Y-110440582D01*
X101093694Y-110498886D01*
X101108081Y-110549746D01*
X101111115Y-110563346D01*
X101134363Y-110704497D01*
X101149576Y-110799219D01*
X101160605Y-110867895D01*
X101162299Y-110877472D01*
X101162423Y-110878114D01*
X101164490Y-110887937D01*
X101192781Y-111012284D01*
X101203877Y-111061051D01*
X101208380Y-111078459D01*
X101208386Y-111078479D01*
X101208765Y-111079786D01*
X101214325Y-111097012D01*
X101277798Y-111275401D01*
X101286838Y-111297930D01*
X101287601Y-111299633D01*
X101298483Y-111321520D01*
X101348234Y-111412287D01*
X101364655Y-111442244D01*
X101384713Y-111481610D01*
X101390901Y-111490127D01*
X101391504Y-111491227D01*
X101394587Y-111496570D01*
X101394608Y-111496607D01*
X101398231Y-111502883D01*
X101398242Y-111502902D01*
X101398764Y-111503762D01*
X101406122Y-111515028D01*
X101409801Y-111520660D01*
X101413676Y-111524450D01*
X101427290Y-111540213D01*
X101505030Y-111647215D01*
X101649786Y-111791971D01*
X101804749Y-111904556D01*
X101815390Y-111912287D01*
X101931607Y-111971503D01*
X101997776Y-112005218D01*
X101997778Y-112005218D01*
X101997781Y-112005220D01*
X102102137Y-112039127D01*
X102192465Y-112068477D01*
X102293557Y-112084488D01*
X102394648Y-112100500D01*
X102394649Y-112100500D01*
X102599351Y-112100500D01*
X102599352Y-112100500D01*
X102801534Y-112068477D01*
X102996219Y-112005220D01*
X103178610Y-111912287D01*
X103271590Y-111844732D01*
X103344213Y-111791971D01*
X103344215Y-111791968D01*
X103344219Y-111791966D01*
X103488966Y-111647219D01*
X103488968Y-111647215D01*
X103488971Y-111647213D01*
X103559962Y-111549500D01*
X103609287Y-111481610D01*
X103702220Y-111299219D01*
X103765477Y-111104534D01*
X103797500Y-110902352D01*
X103797500Y-110697648D01*
X103765477Y-110495466D01*
X103702220Y-110300781D01*
X103702217Y-110300777D01*
X103702217Y-110300774D01*
X103675873Y-110249072D01*
X103675872Y-110249071D01*
X103649671Y-110197648D01*
X114199500Y-110197648D01*
X114199500Y-110402352D01*
X114202865Y-110423597D01*
X114231522Y-110604534D01*
X114294781Y-110799223D01*
X114387715Y-110981613D01*
X114508028Y-111147213D01*
X114652786Y-111291971D01*
X114807749Y-111404556D01*
X114818390Y-111412287D01*
X114934607Y-111471503D01*
X115000776Y-111505218D01*
X115000778Y-111505218D01*
X115000781Y-111505220D01*
X115048304Y-111520661D01*
X115195465Y-111568477D01*
X115296557Y-111584488D01*
X115397648Y-111600500D01*
X115397649Y-111600500D01*
X115602351Y-111600500D01*
X115602352Y-111600500D01*
X115804534Y-111568477D01*
X115999219Y-111505220D01*
X116002081Y-111503762D01*
X116016123Y-111496607D01*
X116181610Y-111412287D01*
X116274590Y-111344732D01*
X116347213Y-111291971D01*
X116347215Y-111291968D01*
X116347219Y-111291966D01*
X116491966Y-111147219D01*
X116491968Y-111147215D01*
X116491971Y-111147213D01*
X116554579Y-111061039D01*
X116612287Y-110981610D01*
X116705220Y-110799219D01*
X116768477Y-110604534D01*
X116800500Y-110402352D01*
X116800500Y-110197648D01*
X116769568Y-110002352D01*
X116768477Y-109995465D01*
X116739127Y-109905137D01*
X116705220Y-109800781D01*
X116705218Y-109800778D01*
X116705218Y-109800776D01*
X116647610Y-109687715D01*
X116612287Y-109618390D01*
X116595134Y-109594781D01*
X116491971Y-109452786D01*
X116347213Y-109308028D01*
X116181613Y-109187715D01*
X116181612Y-109187714D01*
X116181610Y-109187713D01*
X116124653Y-109158691D01*
X115999223Y-109094781D01*
X115804534Y-109031522D01*
X115629995Y-109003878D01*
X115602352Y-108999500D01*
X115397648Y-108999500D01*
X115373329Y-109003351D01*
X115195465Y-109031522D01*
X115000776Y-109094781D01*
X114818386Y-109187715D01*
X114652786Y-109308028D01*
X114508028Y-109452786D01*
X114387715Y-109618386D01*
X114294781Y-109800776D01*
X114231522Y-109995465D01*
X114212054Y-110118385D01*
X114199500Y-110197648D01*
X103649671Y-110197648D01*
X103609287Y-110118390D01*
X103609285Y-110118387D01*
X103609284Y-110118385D01*
X103488971Y-109952786D01*
X103344213Y-109808028D01*
X103178613Y-109687715D01*
X103178612Y-109687714D01*
X103178610Y-109687713D01*
X103121653Y-109658691D01*
X102996223Y-109594781D01*
X102801534Y-109531522D01*
X102626995Y-109503878D01*
X102599352Y-109499500D01*
X102394648Y-109499500D01*
X102394643Y-109499500D01*
X102270125Y-109519222D01*
X102250067Y-109520747D01*
X102236064Y-109520672D01*
X101960898Y-109570597D01*
X101954289Y-109571613D01*
X101765451Y-109595447D01*
X101753547Y-109596370D01*
X101686393Y-109598333D01*
X101682492Y-109598447D01*
X101678872Y-109598500D01*
X101216791Y-109598500D01*
X101214740Y-109598483D01*
X101212564Y-109598447D01*
X100927789Y-109593736D01*
X100922736Y-109593694D01*
X100922660Y-109593694D01*
X100916280Y-109593768D01*
X100915594Y-109593776D01*
X100905866Y-109595829D01*
X100880267Y-109598500D01*
X98616255Y-109598500D01*
X98549216Y-109578815D01*
X98528574Y-109562181D01*
X97052230Y-108085837D01*
X118549500Y-108085837D01*
X118549500Y-108314162D01*
X118585215Y-108539660D01*
X118655770Y-108756803D01*
X118671520Y-108787713D01*
X118759421Y-108960228D01*
X118893621Y-109144937D01*
X119055063Y-109306379D01*
X119239772Y-109440579D01*
X119263730Y-109452786D01*
X119443196Y-109544229D01*
X119443198Y-109544229D01*
X119443201Y-109544231D01*
X119527474Y-109571613D01*
X119660339Y-109614784D01*
X119885838Y-109650500D01*
X119885843Y-109650500D01*
X120114162Y-109650500D01*
X120339660Y-109614784D01*
X120556799Y-109544231D01*
X120760228Y-109440579D01*
X120944937Y-109306379D01*
X121106379Y-109144937D01*
X121240579Y-108960228D01*
X121344231Y-108756799D01*
X121414784Y-108539660D01*
X121450500Y-108314162D01*
X121450500Y-108085837D01*
X121414784Y-107860339D01*
X121344229Y-107643196D01*
X121240578Y-107439771D01*
X121106379Y-107255063D01*
X120944937Y-107093621D01*
X120760228Y-106959421D01*
X120556803Y-106855770D01*
X120339660Y-106785215D01*
X120114162Y-106749500D01*
X120114157Y-106749500D01*
X119885843Y-106749500D01*
X119885838Y-106749500D01*
X119660339Y-106785215D01*
X119443196Y-106855770D01*
X119239771Y-106959421D01*
X119055061Y-107093622D01*
X118893622Y-107255061D01*
X118759421Y-107439771D01*
X118655770Y-107643196D01*
X118585215Y-107860339D01*
X118549500Y-108085837D01*
X97052230Y-108085837D01*
X91222771Y-102256378D01*
X91189286Y-102195055D01*
X91194270Y-102125363D01*
X91236142Y-102069430D01*
X91278352Y-102048925D01*
X91412485Y-102012984D01*
X91538015Y-101940509D01*
X91640509Y-101838015D01*
X91712984Y-101712485D01*
X91750500Y-101572475D01*
X91750500Y-101427525D01*
X91739266Y-101385598D01*
X91737861Y-101380354D01*
X91734558Y-101363355D01*
X91732497Y-101346547D01*
X91730856Y-101341369D01*
X91724573Y-101321539D01*
X91693469Y-101223361D01*
X91683501Y-101196381D01*
X91682645Y-101194362D01*
X91671148Y-101170426D01*
X91670283Y-101168624D01*
X91670272Y-101168604D01*
X91653775Y-101138011D01*
X91638935Y-101110491D01*
X91636464Y-101105658D01*
X91619472Y-101070539D01*
X91607339Y-101024334D01*
X91605587Y-100996547D01*
X91605586Y-100996543D01*
X91605586Y-100996538D01*
X91604161Y-100990803D01*
X91600500Y-100960896D01*
X91600500Y-100914665D01*
X91620185Y-100847626D01*
X91672989Y-100801871D01*
X91742147Y-100791927D01*
X91756576Y-100794886D01*
X91777525Y-100800500D01*
X91777528Y-100800500D01*
X91779856Y-100800806D01*
X91788946Y-100801335D01*
X91905657Y-100814950D01*
X91917340Y-100819129D01*
X91926184Y-100819127D01*
X91950270Y-100830908D01*
X91958294Y-100833779D01*
X91963474Y-100837106D01*
X91964757Y-100838217D01*
X91970618Y-100841694D01*
X91972473Y-100842885D01*
X91974056Y-100844711D01*
X91993147Y-100859540D01*
X96654087Y-105520480D01*
X96745412Y-105573207D01*
X96847273Y-105600500D01*
X102863645Y-105600500D01*
X102877000Y-105601221D01*
X102885230Y-105602112D01*
X102899547Y-105605636D01*
X102937652Y-105607791D01*
X102940796Y-105608132D01*
X102946793Y-105610621D01*
X102978227Y-105618289D01*
X102998017Y-105627175D01*
X103014720Y-105636276D01*
X103026880Y-105644169D01*
X103032141Y-105647508D01*
X103032552Y-105647763D01*
X103038013Y-105651073D01*
X103135282Y-105708642D01*
X103135295Y-105708649D01*
X103156025Y-105719862D01*
X103157623Y-105720648D01*
X103157630Y-105720651D01*
X103157642Y-105720657D01*
X103179211Y-105730252D01*
X103179225Y-105730257D01*
X103179235Y-105730262D01*
X103243425Y-105755894D01*
X103243431Y-105755896D01*
X103261489Y-105762456D01*
X103262885Y-105762914D01*
X103262893Y-105762916D01*
X103262895Y-105762917D01*
X103281488Y-105768370D01*
X103352859Y-105786864D01*
X103352876Y-105786868D01*
X103352887Y-105786871D01*
X103360788Y-105788806D01*
X103361156Y-105788891D01*
X103361402Y-105788948D01*
X103365286Y-105789742D01*
X103376513Y-105792038D01*
X103376520Y-105792037D01*
X103383008Y-105792668D01*
X103382931Y-105793453D01*
X103405257Y-105796297D01*
X103413975Y-105798632D01*
X103420943Y-105800500D01*
X103420944Y-105800500D01*
X103579055Y-105800500D01*
X103579057Y-105800500D01*
X103611651Y-105791765D01*
X103635522Y-105787815D01*
X103646359Y-105787096D01*
X103714616Y-105769589D01*
X103732398Y-105764450D01*
X103733742Y-105764017D01*
X103751068Y-105757853D01*
X103813413Y-105733537D01*
X103835447Y-105723928D01*
X103835452Y-105723926D01*
X103837103Y-105723127D01*
X103837105Y-105723125D01*
X103837111Y-105723123D01*
X103858505Y-105711704D01*
X103960856Y-105651737D01*
X103966096Y-105648596D01*
X103966463Y-105648371D01*
X103970824Y-105645647D01*
X103998438Y-105628070D01*
X104010360Y-105623886D01*
X104017434Y-105618173D01*
X104045750Y-105611466D01*
X104051622Y-105609406D01*
X104053901Y-105609158D01*
X104105130Y-105605500D01*
X104118159Y-105602175D01*
X104126900Y-105601226D01*
X104130036Y-105601788D01*
X104140295Y-105600500D01*
X107462132Y-105600500D01*
X107492019Y-105604156D01*
X107494067Y-105604664D01*
X107497919Y-105605621D01*
X107522035Y-105607036D01*
X107529372Y-105608905D01*
X107533918Y-105608309D01*
X107567653Y-105618663D01*
X107608849Y-105638088D01*
X107613430Y-105640367D01*
X107686164Y-105678436D01*
X107707636Y-105688413D01*
X107712329Y-105690594D01*
X107713180Y-105690941D01*
X107714372Y-105691428D01*
X107714385Y-105691432D01*
X107714391Y-105691435D01*
X107721530Y-105693962D01*
X107741681Y-105701097D01*
X107741691Y-105701100D01*
X107741696Y-105701102D01*
X107776857Y-105711704D01*
X107850739Y-105733982D01*
X107864038Y-105737657D01*
X107864447Y-105737770D01*
X107865491Y-105738033D01*
X107886117Y-105742467D01*
X107886122Y-105742468D01*
X107886126Y-105742467D01*
X107892892Y-105743161D01*
X107892796Y-105744096D01*
X107913466Y-105746732D01*
X107927525Y-105750500D01*
X107927526Y-105750500D01*
X108072472Y-105750500D01*
X108072475Y-105750500D01*
X108212485Y-105712984D01*
X108338015Y-105640509D01*
X108440509Y-105538015D01*
X108512984Y-105412485D01*
X108550500Y-105272475D01*
X108550500Y-105127525D01*
X108512984Y-104987515D01*
X108440509Y-104861985D01*
X108338015Y-104759491D01*
X108338013Y-104759490D01*
X108338011Y-104759488D01*
X108328365Y-104753919D01*
X119353184Y-104753919D01*
X119424197Y-104790102D01*
X119648752Y-104863065D01*
X119648751Y-104863065D01*
X119881948Y-104900000D01*
X120118052Y-104900000D01*
X120351247Y-104863065D01*
X120575797Y-104790104D01*
X120646814Y-104753919D01*
X120000001Y-104107106D01*
X120000000Y-104107106D01*
X119353184Y-104753919D01*
X108328365Y-104753919D01*
X108212488Y-104687017D01*
X108212489Y-104687017D01*
X108186820Y-104680139D01*
X108072475Y-104649500D01*
X107927525Y-104649500D01*
X107927521Y-104649500D01*
X107880368Y-104662135D01*
X107863373Y-104665437D01*
X107846557Y-104667499D01*
X107846546Y-104667502D01*
X107723361Y-104706529D01*
X107696400Y-104716488D01*
X107694423Y-104717326D01*
X107694361Y-104717354D01*
X107668630Y-104729711D01*
X107668601Y-104729726D01*
X107610462Y-104761077D01*
X107605614Y-104763555D01*
X107570536Y-104780527D01*
X107524338Y-104792660D01*
X107496539Y-104794413D01*
X107496527Y-104794415D01*
X107490811Y-104795837D01*
X107460894Y-104799500D01*
X104136359Y-104799500D01*
X104123001Y-104798778D01*
X104114764Y-104797885D01*
X104100450Y-104794363D01*
X104062383Y-104792209D01*
X104059201Y-104791865D01*
X104053208Y-104789377D01*
X104021767Y-104781707D01*
X104001999Y-104772831D01*
X103985286Y-104763726D01*
X103973051Y-104755785D01*
X103967592Y-104752326D01*
X103967537Y-104752292D01*
X103967507Y-104752273D01*
X103967098Y-104752020D01*
X103966435Y-104751619D01*
X103962045Y-104748962D01*
X103962021Y-104748948D01*
X103961985Y-104748926D01*
X103864716Y-104691357D01*
X103864710Y-104691353D01*
X103864702Y-104691349D01*
X103843972Y-104680136D01*
X103842364Y-104679345D01*
X103820783Y-104669745D01*
X103756552Y-104644096D01*
X103738362Y-104637493D01*
X103736990Y-104637044D01*
X103736982Y-104637041D01*
X103736977Y-104637040D01*
X103731895Y-104635551D01*
X103718532Y-104631635D01*
X103647033Y-104613108D01*
X103639221Y-104611194D01*
X103638649Y-104611062D01*
X103635164Y-104610349D01*
X103623486Y-104607961D01*
X103623484Y-104607961D01*
X103623480Y-104607960D01*
X103616994Y-104607331D01*
X103617069Y-104606551D01*
X103594750Y-104603704D01*
X103579061Y-104599500D01*
X103579057Y-104599500D01*
X103420943Y-104599500D01*
X103388356Y-104608231D01*
X103364485Y-104612182D01*
X103353649Y-104612901D01*
X103353636Y-104612903D01*
X103285364Y-104630414D01*
X103267583Y-104635553D01*
X103266283Y-104635972D01*
X103248952Y-104642137D01*
X103186591Y-104666458D01*
X103164506Y-104676090D01*
X103162860Y-104676886D01*
X103141513Y-104688282D01*
X103039098Y-104748287D01*
X103033815Y-104751454D01*
X103033565Y-104751607D01*
X103029289Y-104754280D01*
X103029234Y-104754314D01*
X103029218Y-104754325D01*
X103001559Y-104771929D01*
X102989637Y-104776112D01*
X102982567Y-104781824D01*
X102954248Y-104788532D01*
X102948379Y-104790592D01*
X102946093Y-104790840D01*
X102894864Y-104794500D01*
X102881838Y-104797823D01*
X102873093Y-104798774D01*
X102869955Y-104798211D01*
X102859696Y-104799500D01*
X100180582Y-104799500D01*
X100113543Y-104779815D01*
X100067788Y-104727011D01*
X100057844Y-104657853D01*
X100074626Y-104614054D01*
X100073592Y-104613502D01*
X100076461Y-104608131D01*
X100076465Y-104608127D01*
X100125501Y-104489744D01*
X100150500Y-104364069D01*
X100150500Y-104235931D01*
X100140061Y-104183453D01*
X100137910Y-104166831D01*
X100136605Y-104145472D01*
X100126978Y-104107106D01*
X100117197Y-104068124D01*
X100115627Y-104062518D01*
X100112742Y-104052206D01*
X100112366Y-104050990D01*
X100106980Y-104035126D01*
X100080865Y-103964621D01*
X100071872Y-103942939D01*
X100071125Y-103941317D01*
X100060637Y-103920646D01*
X99990928Y-103795282D01*
X99988301Y-103790654D01*
X99988074Y-103790262D01*
X99986914Y-103788307D01*
X99984767Y-103784687D01*
X99960637Y-103744995D01*
X99953704Y-103731883D01*
X99949335Y-103722269D01*
X99941826Y-103700633D01*
X99941734Y-103700260D01*
X99938607Y-103687569D01*
X99935299Y-103666393D01*
X99930533Y-103596760D01*
X99929282Y-103591814D01*
X99925500Y-103561420D01*
X99925500Y-103281947D01*
X118500000Y-103281947D01*
X118500000Y-103518052D01*
X118536934Y-103751247D01*
X118609898Y-103975805D01*
X118646078Y-104046813D01*
X118646079Y-104046814D01*
X119292894Y-103400000D01*
X119220485Y-103327591D01*
X119450000Y-103327591D01*
X119450000Y-103472409D01*
X119487482Y-103612292D01*
X119559890Y-103737708D01*
X119662292Y-103840110D01*
X119787708Y-103912518D01*
X119927591Y-103950000D01*
X120072409Y-103950000D01*
X120212292Y-103912518D01*
X120337708Y-103840110D01*
X120440110Y-103737708D01*
X120512518Y-103612292D01*
X120550000Y-103472409D01*
X120550000Y-103399999D01*
X120707106Y-103399999D01*
X120707106Y-103400001D01*
X121353919Y-104046814D01*
X121390104Y-103975797D01*
X121463065Y-103751247D01*
X121500000Y-103518052D01*
X121500000Y-103281947D01*
X121463065Y-103048752D01*
X121390102Y-102824197D01*
X121353919Y-102753184D01*
X120707106Y-103399999D01*
X120550000Y-103399999D01*
X120550000Y-103327591D01*
X120512518Y-103187708D01*
X120440110Y-103062292D01*
X120337708Y-102959890D01*
X120212292Y-102887482D01*
X120072409Y-102850000D01*
X119927591Y-102850000D01*
X119787708Y-102887482D01*
X119662292Y-102959890D01*
X119559890Y-103062292D01*
X119487482Y-103187708D01*
X119450000Y-103327591D01*
X119220485Y-103327591D01*
X118646078Y-102753184D01*
X118609894Y-102824202D01*
X118609894Y-102824203D01*
X118536934Y-103048751D01*
X118500000Y-103281947D01*
X99925500Y-103281947D01*
X99925500Y-101568712D01*
X99945185Y-101501673D01*
X99997989Y-101455918D01*
X100067147Y-101445974D01*
X100130703Y-101474999D01*
X100156885Y-101506709D01*
X100179520Y-101545913D01*
X100179522Y-101545915D01*
X100586468Y-101952861D01*
X100596299Y-101963943D01*
X100601051Y-101969992D01*
X100608154Y-101981789D01*
X100626726Y-102002676D01*
X100629056Y-102005643D01*
X100631950Y-102012884D01*
X100648247Y-102040334D01*
X100663623Y-102083152D01*
X100665263Y-102088035D01*
X100689767Y-102166360D01*
X100689774Y-102166380D01*
X100689776Y-102166386D01*
X100699685Y-102193494D01*
X100700341Y-102195055D01*
X100700542Y-102195534D01*
X100700554Y-102195561D01*
X100712993Y-102221633D01*
X100713012Y-102221672D01*
X100713022Y-102221690D01*
X100766880Y-102322049D01*
X100773800Y-102334262D01*
X100774346Y-102335177D01*
X100785920Y-102353098D01*
X100790221Y-102358380D01*
X100789493Y-102358972D01*
X100802227Y-102375435D01*
X100809487Y-102388009D01*
X100809489Y-102388011D01*
X100809491Y-102388015D01*
X100911985Y-102490509D01*
X100911986Y-102490510D01*
X100911988Y-102490511D01*
X101037511Y-102562982D01*
X101037512Y-102562982D01*
X101037515Y-102562984D01*
X101177525Y-102600500D01*
X101177528Y-102600500D01*
X101322472Y-102600500D01*
X101322475Y-102600500D01*
X101462485Y-102562984D01*
X101588015Y-102490509D01*
X101690509Y-102388015D01*
X101762984Y-102262485D01*
X101800500Y-102122475D01*
X101800500Y-102046078D01*
X119353184Y-102046078D01*
X120000000Y-102692894D01*
X120000001Y-102692894D01*
X120646814Y-102046079D01*
X120646813Y-102046078D01*
X120575805Y-102009898D01*
X120351247Y-101936934D01*
X120351248Y-101936934D01*
X120118052Y-101900000D01*
X119881948Y-101900000D01*
X119648751Y-101936934D01*
X119424203Y-102009894D01*
X119424202Y-102009894D01*
X119353184Y-102046078D01*
X101800500Y-102046078D01*
X101800500Y-101977525D01*
X101762984Y-101837515D01*
X101736673Y-101791944D01*
X101690511Y-101711988D01*
X101690506Y-101711982D01*
X101588017Y-101609493D01*
X101588015Y-101609491D01*
X101545727Y-101585076D01*
X101531377Y-101575394D01*
X101518029Y-101564962D01*
X101518026Y-101564960D01*
X101403351Y-101505464D01*
X101403328Y-101505453D01*
X101377397Y-101493503D01*
X101375363Y-101492679D01*
X101375361Y-101492678D01*
X101348207Y-101483136D01*
X101284945Y-101464198D01*
X101279768Y-101462524D01*
X101242933Y-101449711D01*
X101201686Y-101425623D01*
X101180784Y-101407201D01*
X101175721Y-101404154D01*
X101151991Y-101385598D01*
X100936819Y-101170426D01*
X100903334Y-101109103D01*
X100900500Y-101082745D01*
X100900500Y-100727525D01*
X108124500Y-100727525D01*
X108124500Y-100872475D01*
X108162016Y-101012485D01*
X108162017Y-101012488D01*
X108234488Y-101138011D01*
X108234490Y-101138013D01*
X108234491Y-101138015D01*
X108336985Y-101240509D01*
X108336986Y-101240510D01*
X108336988Y-101240511D01*
X108462511Y-101312982D01*
X108462512Y-101312982D01*
X108462515Y-101312984D01*
X108602525Y-101350500D01*
X108602528Y-101350500D01*
X108747474Y-101350500D01*
X108747475Y-101350500D01*
X108781598Y-101341355D01*
X108782531Y-101341110D01*
X108792764Y-101338457D01*
X108816852Y-101336441D01*
X108979327Y-101291762D01*
X108989553Y-101288756D01*
X108990336Y-101288511D01*
X109000557Y-101285114D01*
X109004219Y-101283824D01*
X109057969Y-101267999D01*
X109083181Y-101263342D01*
X109183525Y-101255400D01*
X109185732Y-101254822D01*
X109186859Y-101254529D01*
X109218210Y-101250500D01*
X114531369Y-101250500D01*
X114537326Y-101250643D01*
X114547506Y-101251132D01*
X114568699Y-101255697D01*
X114739499Y-101260366D01*
X114740783Y-101260428D01*
X114741425Y-101260650D01*
X114755933Y-101262094D01*
X114915481Y-101289656D01*
X114918454Y-101290209D01*
X114930102Y-101292530D01*
X114936499Y-101293733D01*
X114936501Y-101293732D01*
X114936502Y-101293733D01*
X114942538Y-101294267D01*
X114942497Y-101294725D01*
X114968073Y-101297967D01*
X114977525Y-101300500D01*
X114977528Y-101300500D01*
X115122472Y-101300500D01*
X115122475Y-101300500D01*
X115262485Y-101262984D01*
X115388015Y-101190509D01*
X115490509Y-101088015D01*
X115562984Y-100962485D01*
X115600500Y-100822475D01*
X115600500Y-100677525D01*
X115562984Y-100537515D01*
X115519378Y-100461988D01*
X115490511Y-100411988D01*
X115490506Y-100411982D01*
X115388017Y-100309493D01*
X115388011Y-100309488D01*
X115262488Y-100237017D01*
X115262489Y-100237017D01*
X115251006Y-100233940D01*
X115122475Y-100199500D01*
X114977525Y-100199500D01*
X114893519Y-100222009D01*
X114837513Y-100237016D01*
X114742279Y-100291998D01*
X114742265Y-100292007D01*
X114733914Y-100296829D01*
X114719656Y-100303750D01*
X114631157Y-100369180D01*
X114628941Y-100370836D01*
X114627173Y-100372067D01*
X114595939Y-100382492D01*
X114565076Y-100393966D01*
X114563894Y-100394043D01*
X114558139Y-100394393D01*
X114558135Y-100394394D01*
X114552065Y-100395891D01*
X114522369Y-100399500D01*
X109212872Y-100399500D01*
X109182988Y-100395845D01*
X109177084Y-100394379D01*
X109177080Y-100394378D01*
X109169857Y-100393954D01*
X109152956Y-100392962D01*
X109145619Y-100391091D01*
X109141077Y-100391688D01*
X109107337Y-100381331D01*
X109066187Y-100361927D01*
X109061571Y-100359632D01*
X108988871Y-100321580D01*
X108988857Y-100321573D01*
X108988836Y-100321562D01*
X108962602Y-100309377D01*
X108962594Y-100309373D01*
X108962586Y-100309370D01*
X108960546Y-100308538D01*
X108933330Y-100298905D01*
X108933317Y-100298901D01*
X108933314Y-100298900D01*
X108893685Y-100286951D01*
X108824229Y-100266008D01*
X108810461Y-100262205D01*
X108809449Y-100261951D01*
X108788875Y-100257530D01*
X108782103Y-100256837D01*
X108782197Y-100255911D01*
X108761533Y-100253266D01*
X108747480Y-100249500D01*
X108747475Y-100249500D01*
X108602525Y-100249500D01*
X108473993Y-100283940D01*
X108462511Y-100287017D01*
X108336988Y-100359488D01*
X108336982Y-100359493D01*
X108234493Y-100461982D01*
X108234488Y-100461988D01*
X108162017Y-100587511D01*
X108162016Y-100587515D01*
X108124500Y-100727525D01*
X100900500Y-100727525D01*
X100900500Y-99564071D01*
X111275499Y-99564071D01*
X111300497Y-99689738D01*
X111300499Y-99689744D01*
X111349533Y-99808124D01*
X111349538Y-99808133D01*
X111420723Y-99914668D01*
X111420726Y-99914672D01*
X111511327Y-100005273D01*
X111511331Y-100005276D01*
X111617866Y-100076461D01*
X111617872Y-100076464D01*
X111617873Y-100076465D01*
X111736256Y-100125501D01*
X111736260Y-100125501D01*
X111736261Y-100125502D01*
X111861928Y-100150500D01*
X111861931Y-100150500D01*
X111990071Y-100150500D01*
X112074615Y-100133682D01*
X112115744Y-100125501D01*
X112234127Y-100076465D01*
X112340669Y-100005276D01*
X112431276Y-99914669D01*
X112502465Y-99808127D01*
X112551501Y-99689744D01*
X112576500Y-99564069D01*
X112576500Y-99435931D01*
X112567188Y-99389122D01*
X112565846Y-99382368D01*
X112564848Y-99353559D01*
X112521520Y-99159300D01*
X112493646Y-99021771D01*
X112491319Y-99003109D01*
X112489179Y-98958709D01*
X112481683Y-98803156D01*
X112479835Y-98795349D01*
X112476500Y-98766785D01*
X112476500Y-98753386D01*
X112496185Y-98686347D01*
X112512814Y-98665710D01*
X112692687Y-98485837D01*
X118549500Y-98485837D01*
X118549500Y-98714162D01*
X118585215Y-98939660D01*
X118655770Y-99156803D01*
X118757022Y-99355519D01*
X118759421Y-99360228D01*
X118893621Y-99544937D01*
X119055063Y-99706379D01*
X119239772Y-99840579D01*
X119335884Y-99889550D01*
X119443196Y-99944229D01*
X119443198Y-99944229D01*
X119443201Y-99944231D01*
X119559592Y-99982049D01*
X119660339Y-100014784D01*
X119885838Y-100050500D01*
X119885843Y-100050500D01*
X120114162Y-100050500D01*
X120339660Y-100014784D01*
X120556799Y-99944231D01*
X120760228Y-99840579D01*
X120944937Y-99706379D01*
X121106379Y-99544937D01*
X121240579Y-99360228D01*
X121344231Y-99156799D01*
X121414784Y-98939660D01*
X121426615Y-98864964D01*
X121450500Y-98714162D01*
X121450500Y-98485837D01*
X121414784Y-98260339D01*
X121360587Y-98093540D01*
X121344231Y-98043201D01*
X121344229Y-98043198D01*
X121344229Y-98043196D01*
X121240578Y-97839771D01*
X121239302Y-97838015D01*
X121106379Y-97655063D01*
X120944937Y-97493621D01*
X120760228Y-97359421D01*
X120759027Y-97358809D01*
X120556803Y-97255770D01*
X120339660Y-97185215D01*
X120114162Y-97149500D01*
X120114157Y-97149500D01*
X119885843Y-97149500D01*
X119885838Y-97149500D01*
X119660339Y-97185215D01*
X119443196Y-97255770D01*
X119239771Y-97359421D01*
X119055061Y-97493622D01*
X118893622Y-97655061D01*
X118759421Y-97839771D01*
X118655770Y-98043196D01*
X118585215Y-98260339D01*
X118549500Y-98485837D01*
X112692687Y-98485837D01*
X114274594Y-96903929D01*
X114279254Y-96899506D01*
X114286693Y-96892802D01*
X114304615Y-96881262D01*
X114410015Y-96781690D01*
X114411082Y-96780730D01*
X114411441Y-96780557D01*
X114417798Y-96775096D01*
X114481218Y-96725606D01*
X114490941Y-96718745D01*
X114575612Y-96664912D01*
X114577681Y-96663597D01*
X114577684Y-96663597D01*
X114748186Y-96555282D01*
X114751452Y-96553178D01*
X114751651Y-96553048D01*
X114759404Y-96547812D01*
X114759411Y-96547805D01*
X114766512Y-96540579D01*
X114786072Y-96524383D01*
X114791574Y-96520707D01*
X114814669Y-96505276D01*
X114905276Y-96414669D01*
X114976465Y-96308127D01*
X115025501Y-96189744D01*
X115043390Y-96099812D01*
X115050500Y-96064071D01*
X115050500Y-95935928D01*
X115025502Y-95810261D01*
X115025501Y-95810260D01*
X115025501Y-95810256D01*
X114976465Y-95691873D01*
X114976464Y-95691872D01*
X114976461Y-95691866D01*
X114905276Y-95585331D01*
X114905273Y-95585327D01*
X114814672Y-95494726D01*
X114814668Y-95494723D01*
X114708133Y-95423538D01*
X114708124Y-95423533D01*
X114589744Y-95374499D01*
X114589738Y-95374497D01*
X114464071Y-95349500D01*
X114464069Y-95349500D01*
X114335931Y-95349500D01*
X114335929Y-95349500D01*
X114210261Y-95374497D01*
X114210255Y-95374499D01*
X114091875Y-95423533D01*
X114091866Y-95423538D01*
X113985331Y-95494723D01*
X113985327Y-95494726D01*
X113894728Y-95585325D01*
X113894722Y-95585333D01*
X113869975Y-95622369D01*
X113869964Y-95622386D01*
X113864386Y-95630729D01*
X113844717Y-95651813D01*
X113737995Y-95819807D01*
X113737278Y-95820887D01*
X113737152Y-95821077D01*
X113660453Y-95936768D01*
X113648904Y-95951608D01*
X113514330Y-96099812D01*
X113514324Y-96099819D01*
X113510112Y-96106646D01*
X113492272Y-96129201D01*
X111485491Y-98135983D01*
X111485489Y-98135985D01*
X111460324Y-98179574D01*
X111441428Y-98212304D01*
X111413016Y-98261515D01*
X111375500Y-98401525D01*
X111375500Y-98401527D01*
X111375500Y-98772121D01*
X111375332Y-98778571D01*
X111374810Y-98788577D01*
X111370301Y-98809405D01*
X111366178Y-98954298D01*
X111366101Y-98955786D01*
X111365969Y-98956161D01*
X111365336Y-98964519D01*
X111355491Y-99044320D01*
X111353460Y-99056085D01*
X111331111Y-99156465D01*
X111331101Y-99156511D01*
X111287149Y-99353562D01*
X111286720Y-99355519D01*
X111286681Y-99355701D01*
X111286631Y-99355933D01*
X111286626Y-99355956D01*
X111284493Y-99366810D01*
X111284582Y-99376943D01*
X111282848Y-99395375D01*
X111282723Y-99399451D01*
X111282477Y-99400850D01*
X111275500Y-99435931D01*
X111275500Y-99564069D01*
X111275500Y-99564071D01*
X111275499Y-99564071D01*
X100900500Y-99564071D01*
X100900500Y-97997275D01*
X100900500Y-97997273D01*
X100873207Y-97895413D01*
X100873207Y-97895412D01*
X100820480Y-97804087D01*
X99763529Y-96747136D01*
X99753698Y-96736054D01*
X99748947Y-96730006D01*
X99741843Y-96718207D01*
X99723269Y-96697317D01*
X99720940Y-96694352D01*
X99718047Y-96687114D01*
X99701750Y-96659664D01*
X99686362Y-96616814D01*
X99684734Y-96611968D01*
X99668952Y-96561520D01*
X99667725Y-96491662D01*
X99704460Y-96432229D01*
X99767496Y-96402091D01*
X99787298Y-96400500D01*
X102062132Y-96400500D01*
X102076918Y-96401385D01*
X102084556Y-96402302D01*
X102097919Y-96405621D01*
X102125821Y-96407258D01*
X102129559Y-96407707D01*
X102136725Y-96410780D01*
X102167654Y-96418663D01*
X102208849Y-96438088D01*
X102213430Y-96440367D01*
X102286164Y-96478436D01*
X102304629Y-96487016D01*
X102312329Y-96490594D01*
X102313180Y-96490941D01*
X102314372Y-96491428D01*
X102341681Y-96501097D01*
X102381369Y-96513063D01*
X102391198Y-96516485D01*
X102397059Y-96518805D01*
X102446672Y-96544545D01*
X102472650Y-96556514D01*
X102474679Y-96557336D01*
X102501779Y-96566858D01*
X102567663Y-96586580D01*
X102572694Y-96588330D01*
X102572699Y-96588332D01*
X102607062Y-96600285D01*
X102648311Y-96624374D01*
X102669211Y-96642795D01*
X102674269Y-96645839D01*
X102698008Y-96664400D01*
X103279518Y-97245910D01*
X103279520Y-97245913D01*
X103354087Y-97320480D01*
X103411924Y-97353872D01*
X103420471Y-97358806D01*
X103420474Y-97358809D01*
X103445407Y-97373204D01*
X103445410Y-97373206D01*
X103445412Y-97373206D01*
X103445413Y-97373207D01*
X103547273Y-97400501D01*
X103547275Y-97400501D01*
X103660323Y-97400501D01*
X103660339Y-97400500D01*
X106462132Y-97400500D01*
X106476918Y-97401385D01*
X106484556Y-97402302D01*
X106497919Y-97405621D01*
X106525821Y-97407258D01*
X106529559Y-97407707D01*
X106536725Y-97410780D01*
X106567654Y-97418663D01*
X106608849Y-97438088D01*
X106613430Y-97440367D01*
X106686164Y-97478436D01*
X106707636Y-97488413D01*
X106712329Y-97490594D01*
X106713180Y-97490941D01*
X106714372Y-97491428D01*
X106714385Y-97491432D01*
X106714391Y-97491435D01*
X106720566Y-97493621D01*
X106741681Y-97501097D01*
X106741691Y-97501100D01*
X106741696Y-97501102D01*
X106764686Y-97508034D01*
X106850739Y-97533982D01*
X106864443Y-97537769D01*
X106864447Y-97537770D01*
X106865491Y-97538033D01*
X106886117Y-97542467D01*
X106886122Y-97542468D01*
X106886126Y-97542467D01*
X106892892Y-97543161D01*
X106892796Y-97544096D01*
X106913466Y-97546732D01*
X106927525Y-97550500D01*
X106927526Y-97550500D01*
X107072472Y-97550500D01*
X107072475Y-97550500D01*
X107212485Y-97512984D01*
X107338015Y-97440509D01*
X107440509Y-97338015D01*
X107512984Y-97212485D01*
X107550500Y-97072475D01*
X107550500Y-96927525D01*
X107512984Y-96787515D01*
X107483478Y-96736410D01*
X107440511Y-96661988D01*
X107440506Y-96661982D01*
X107338017Y-96559493D01*
X107338011Y-96559488D01*
X107212488Y-96487017D01*
X107212489Y-96487017D01*
X107180050Y-96478325D01*
X107072475Y-96449500D01*
X106927525Y-96449500D01*
X106927521Y-96449500D01*
X106880368Y-96462135D01*
X106863373Y-96465437D01*
X106846557Y-96467499D01*
X106846546Y-96467502D01*
X106723361Y-96506529D01*
X106696400Y-96516488D01*
X106694423Y-96517326D01*
X106694361Y-96517354D01*
X106668630Y-96529711D01*
X106668601Y-96529726D01*
X106610462Y-96561077D01*
X106605614Y-96563555D01*
X106570536Y-96580527D01*
X106524338Y-96592660D01*
X106496539Y-96594413D01*
X106496527Y-96594415D01*
X106490811Y-96595837D01*
X106460894Y-96599500D01*
X103817254Y-96599500D01*
X103750215Y-96579815D01*
X103729573Y-96563181D01*
X103504409Y-96338017D01*
X103263529Y-96097136D01*
X103253698Y-96086054D01*
X103248948Y-96080007D01*
X103241843Y-96068207D01*
X103223269Y-96047317D01*
X103220940Y-96044352D01*
X103218047Y-96037114D01*
X103201750Y-96009664D01*
X103186362Y-95966814D01*
X103184726Y-95961940D01*
X103160225Y-95883620D01*
X103160219Y-95883603D01*
X103150318Y-95856514D01*
X103150314Y-95856504D01*
X103149457Y-95854464D01*
X103149450Y-95854451D01*
X103149448Y-95854444D01*
X103136987Y-95828326D01*
X103136987Y-95828325D01*
X103083122Y-95727955D01*
X103083121Y-95727953D01*
X103076212Y-95715759D01*
X103075648Y-95714815D01*
X103075644Y-95714808D01*
X103064080Y-95696903D01*
X103064079Y-95696902D01*
X103064078Y-95696900D01*
X103059778Y-95691619D01*
X103060505Y-95691026D01*
X103047770Y-95674562D01*
X103040509Y-95661985D01*
X102938015Y-95559491D01*
X102938013Y-95559490D01*
X102938011Y-95559488D01*
X102812488Y-95487017D01*
X102812489Y-95487017D01*
X102801006Y-95483940D01*
X102672475Y-95449500D01*
X102527525Y-95449500D01*
X102527521Y-95449500D01*
X102480368Y-95462135D01*
X102463373Y-95465437D01*
X102446557Y-95467499D01*
X102446546Y-95467502D01*
X102323361Y-95506529D01*
X102296400Y-95516488D01*
X102294423Y-95517326D01*
X102294361Y-95517354D01*
X102268630Y-95529711D01*
X102268601Y-95529726D01*
X102210462Y-95561077D01*
X102205614Y-95563555D01*
X102170536Y-95580527D01*
X102124338Y-95592660D01*
X102096539Y-95594413D01*
X102096527Y-95594415D01*
X102090811Y-95595837D01*
X102060894Y-95599500D01*
X98737872Y-95599500D01*
X98723082Y-95598615D01*
X98715448Y-95597697D01*
X98702080Y-95594378D01*
X98674188Y-95592741D01*
X98670433Y-95592290D01*
X98663269Y-95589217D01*
X98632337Y-95581331D01*
X98591187Y-95561927D01*
X98586571Y-95559632D01*
X98513871Y-95521580D01*
X98513857Y-95521573D01*
X98513836Y-95521562D01*
X98487602Y-95509377D01*
X98487594Y-95509373D01*
X98487586Y-95509370D01*
X98485546Y-95508538D01*
X98458330Y-95498905D01*
X98458317Y-95498901D01*
X98458314Y-95498900D01*
X98418901Y-95487016D01*
X98349229Y-95466008D01*
X98335461Y-95462205D01*
X98334449Y-95461951D01*
X98313875Y-95457530D01*
X98307103Y-95456837D01*
X98307197Y-95455911D01*
X98286533Y-95453266D01*
X98272480Y-95449500D01*
X98272475Y-95449500D01*
X98127525Y-95449500D01*
X97998993Y-95483940D01*
X97987511Y-95487017D01*
X97861988Y-95559488D01*
X97861982Y-95559493D01*
X97759493Y-95661982D01*
X97759488Y-95661988D01*
X97687017Y-95787511D01*
X97687016Y-95787515D01*
X97649500Y-95927525D01*
X97649500Y-96072475D01*
X97687016Y-96212485D01*
X97687017Y-96212488D01*
X97759488Y-96338011D01*
X97759490Y-96338013D01*
X97759491Y-96338015D01*
X97861985Y-96440509D01*
X97861986Y-96440510D01*
X97861988Y-96440511D01*
X97987511Y-96512982D01*
X97987512Y-96512982D01*
X97987515Y-96512984D01*
X98127525Y-96550500D01*
X98127528Y-96550500D01*
X98272474Y-96550500D01*
X98272475Y-96550500D01*
X98319683Y-96537850D01*
X98322510Y-96537129D01*
X98329496Y-96535434D01*
X98353453Y-96532497D01*
X98392121Y-96520245D01*
X98396273Y-96519239D01*
X98427075Y-96520707D01*
X98457901Y-96520053D01*
X98461659Y-96522357D01*
X98466063Y-96522567D01*
X98491179Y-96540454D01*
X98517468Y-96556571D01*
X98519384Y-96560541D01*
X98522975Y-96563099D01*
X98534434Y-96591727D01*
X98547835Y-96619496D01*
X98548425Y-96626683D01*
X98548939Y-96627965D01*
X98548653Y-96629447D01*
X98549500Y-96639745D01*
X98549500Y-96722475D01*
X98565110Y-96780730D01*
X98587017Y-96862488D01*
X98659488Y-96988011D01*
X98659490Y-96988013D01*
X98659491Y-96988015D01*
X98761985Y-97090509D01*
X98804271Y-97114922D01*
X98818622Y-97124604D01*
X98831972Y-97135038D01*
X98946672Y-97194545D01*
X98972650Y-97206514D01*
X98974679Y-97207336D01*
X99001779Y-97216858D01*
X99033294Y-97226292D01*
X99065053Y-97235799D01*
X99070232Y-97237474D01*
X99107062Y-97250285D01*
X99148311Y-97274374D01*
X99169211Y-97292795D01*
X99172509Y-97294780D01*
X99174267Y-97295838D01*
X99198006Y-97314399D01*
X100063181Y-98179574D01*
X100096666Y-98240897D01*
X100099500Y-98267255D01*
X100099500Y-100224590D01*
X100079815Y-100291629D01*
X100027011Y-100337384D01*
X99957853Y-100347328D01*
X99894297Y-100318303D01*
X99880236Y-100303967D01*
X99873428Y-100295797D01*
X99840485Y-100238737D01*
X99761263Y-100159515D01*
X99761260Y-100159513D01*
X98819864Y-99218117D01*
X98801800Y-99195197D01*
X98797923Y-99188866D01*
X98791373Y-99181610D01*
X98761271Y-99148265D01*
X98751678Y-99136210D01*
X98749714Y-99133400D01*
X98737248Y-99110910D01*
X98721606Y-99074145D01*
X98715186Y-99054760D01*
X98707307Y-99022197D01*
X98707293Y-99022138D01*
X98706107Y-99017404D01*
X98706013Y-99017041D01*
X98704744Y-99012296D01*
X98704733Y-99012254D01*
X98669962Y-98886358D01*
X98669959Y-98886346D01*
X98663201Y-98864970D01*
X98662627Y-98863362D01*
X98662621Y-98863345D01*
X98654415Y-98842751D01*
X98621982Y-98769247D01*
X98614184Y-98752905D01*
X98613541Y-98751654D01*
X98604676Y-98735615D01*
X98604673Y-98735609D01*
X98575484Y-98686347D01*
X98560101Y-98660384D01*
X98555916Y-98653530D01*
X98555632Y-98653077D01*
X98554089Y-98650748D01*
X98547498Y-98640803D01*
X98541572Y-98634980D01*
X98525391Y-98615436D01*
X98505276Y-98585331D01*
X98505275Y-98585329D01*
X98414672Y-98494726D01*
X98414668Y-98494723D01*
X98308133Y-98423538D01*
X98308124Y-98423533D01*
X98189744Y-98374499D01*
X98189738Y-98374497D01*
X98064071Y-98349500D01*
X98064069Y-98349500D01*
X97935931Y-98349500D01*
X97935929Y-98349500D01*
X97810261Y-98374497D01*
X97810255Y-98374499D01*
X97691875Y-98423533D01*
X97691866Y-98423538D01*
X97585331Y-98494723D01*
X97585327Y-98494726D01*
X97494726Y-98585327D01*
X97494723Y-98585331D01*
X97423538Y-98691866D01*
X97423533Y-98691875D01*
X97374499Y-98810255D01*
X97374497Y-98810261D01*
X97349500Y-98935928D01*
X97349500Y-98935931D01*
X97349500Y-99064069D01*
X97349500Y-99064071D01*
X97349499Y-99064071D01*
X97374497Y-99189738D01*
X97374499Y-99189744D01*
X97423533Y-99308124D01*
X97423538Y-99308133D01*
X97494723Y-99414668D01*
X97494726Y-99414672D01*
X97585328Y-99505274D01*
X97585331Y-99505276D01*
X97629812Y-99534997D01*
X97643086Y-99545229D01*
X97659120Y-99559416D01*
X97689793Y-99577782D01*
X97727557Y-99600396D01*
X97741963Y-99608501D01*
X97743089Y-99609095D01*
X97743111Y-99609106D01*
X97743117Y-99609109D01*
X97758083Y-99616488D01*
X97758090Y-99616491D01*
X97826408Y-99647879D01*
X97848052Y-99656835D01*
X97849727Y-99657454D01*
X97871812Y-99664673D01*
X98009771Y-99704032D01*
X98015372Y-99705573D01*
X98015810Y-99705689D01*
X98021646Y-99707173D01*
X98066737Y-99718168D01*
X98080877Y-99722527D01*
X98090782Y-99726242D01*
X98111394Y-99736233D01*
X98122912Y-99743198D01*
X98140235Y-99755841D01*
X98192827Y-99801693D01*
X98192835Y-99801699D01*
X98197213Y-99804310D01*
X98221379Y-99823127D01*
X98636989Y-100238737D01*
X99038181Y-100639928D01*
X99071666Y-100701251D01*
X99074500Y-100727609D01*
X99074500Y-103566029D01*
X99073975Y-103577428D01*
X99073153Y-103586321D01*
X99069330Y-103602232D01*
X99066408Y-103659392D01*
X99066174Y-103661929D01*
X99065874Y-103662683D01*
X99064796Y-103672170D01*
X99064198Y-103675544D01*
X99057110Y-103700260D01*
X99042174Y-103737316D01*
X99033010Y-103755558D01*
X99015542Y-103784179D01*
X99013231Y-103788028D01*
X99013066Y-103788307D01*
X99010402Y-103792908D01*
X99010375Y-103792956D01*
X98945898Y-103906637D01*
X98945893Y-103906647D01*
X98935646Y-103926352D01*
X98934922Y-103927876D01*
X98926065Y-103948449D01*
X98897023Y-104023361D01*
X98890912Y-104040644D01*
X98890500Y-104041928D01*
X98885485Y-104059358D01*
X98863808Y-104144074D01*
X98861993Y-104151557D01*
X98861862Y-104152132D01*
X98861856Y-104152159D01*
X98860473Y-104158959D01*
X98858862Y-104166884D01*
X98858935Y-104175174D01*
X98856558Y-104200445D01*
X98849500Y-104235931D01*
X98849500Y-104364069D01*
X98849500Y-104364071D01*
X98849499Y-104364071D01*
X98874497Y-104489738D01*
X98874499Y-104489744D01*
X98923533Y-104608124D01*
X98926408Y-104613502D01*
X98924926Y-104614293D01*
X98943398Y-104673287D01*
X98924913Y-104740667D01*
X98872934Y-104787357D01*
X98819418Y-104799500D01*
X97117255Y-104799500D01*
X97050216Y-104779815D01*
X97029574Y-104763181D01*
X92553344Y-100286951D01*
X92547335Y-100280499D01*
X92541138Y-100273352D01*
X92530987Y-100257232D01*
X92470634Y-100192032D01*
X92469310Y-100190505D01*
X92469030Y-100189893D01*
X92462714Y-100182206D01*
X92439550Y-100150353D01*
X92432985Y-100140342D01*
X92409295Y-100100099D01*
X92407592Y-100097242D01*
X92407487Y-100097068D01*
X92406458Y-100095375D01*
X92324735Y-99961913D01*
X92321938Y-99957432D01*
X92321714Y-99957080D01*
X92321703Y-99957063D01*
X92314687Y-99946527D01*
X92310625Y-99941609D01*
X92311097Y-99941218D01*
X92296465Y-99922302D01*
X92290509Y-99911985D01*
X92188015Y-99809491D01*
X92188013Y-99809490D01*
X92188011Y-99809488D01*
X92062488Y-99737017D01*
X92062489Y-99737017D01*
X92022261Y-99726238D01*
X91922475Y-99699500D01*
X91777525Y-99699500D01*
X91756592Y-99705108D01*
X91686743Y-99703446D01*
X91628881Y-99664283D01*
X91601377Y-99600055D01*
X91600500Y-99585334D01*
X91600500Y-98367254D01*
X91620185Y-98300215D01*
X91636819Y-98279573D01*
X91873196Y-98043196D01*
X92125846Y-97790545D01*
X92187167Y-97757062D01*
X92256858Y-97762046D01*
X92312792Y-97803917D01*
X92320909Y-97816222D01*
X92333491Y-97838015D01*
X92435985Y-97940509D01*
X92435986Y-97940510D01*
X92435988Y-97940511D01*
X92561511Y-98012982D01*
X92561512Y-98012982D01*
X92561515Y-98012984D01*
X92701525Y-98050500D01*
X92701528Y-98050500D01*
X92846472Y-98050500D01*
X92846475Y-98050500D01*
X92986485Y-98012984D01*
X93112015Y-97940509D01*
X93214509Y-97838015D01*
X93286984Y-97712485D01*
X93317384Y-97599031D01*
X93323028Y-97582899D01*
X93339785Y-97473319D01*
X93340202Y-97470509D01*
X93340781Y-97466468D01*
X93341198Y-97464186D01*
X93355866Y-97435031D01*
X93369397Y-97405333D01*
X93370299Y-97404301D01*
X93378008Y-97395616D01*
X93381323Y-97390138D01*
X93399717Y-97366674D01*
X94929573Y-95836819D01*
X94990896Y-95803334D01*
X95017254Y-95800500D01*
X96552725Y-95800500D01*
X96552727Y-95800500D01*
X96654588Y-95773207D01*
X96745913Y-95720480D01*
X98129574Y-94336819D01*
X98190897Y-94303334D01*
X98217255Y-94300500D01*
X102952725Y-94300500D01*
X102952727Y-94300500D01*
X103054588Y-94273207D01*
X103145913Y-94220480D01*
X104502874Y-92863517D01*
X104513949Y-92853693D01*
X104519991Y-92848946D01*
X104531796Y-92841839D01*
X104552682Y-92823267D01*
X104555645Y-92820940D01*
X104562889Y-92818044D01*
X104590331Y-92801750D01*
X104633183Y-92786362D01*
X104638014Y-92784739D01*
X104716385Y-92760223D01*
X104716417Y-92760211D01*
X104716424Y-92760209D01*
X104743484Y-92750318D01*
X104743483Y-92750318D01*
X104743495Y-92750314D01*
X104745535Y-92749457D01*
X104771674Y-92736987D01*
X104872044Y-92683122D01*
X104884262Y-92676199D01*
X104885191Y-92675644D01*
X104903096Y-92664080D01*
X104903102Y-92664073D01*
X104908382Y-92659776D01*
X104908979Y-92660509D01*
X104925439Y-92647768D01*
X104938015Y-92640509D01*
X105040509Y-92538015D01*
X105112984Y-92412485D01*
X105150500Y-92272475D01*
X105150500Y-92127525D01*
X105112984Y-91987515D01*
X105094338Y-91955220D01*
X105040511Y-91861988D01*
X105040506Y-91861982D01*
X104938017Y-91759493D01*
X104938011Y-91759488D01*
X104812488Y-91687017D01*
X104812489Y-91687017D01*
X104801006Y-91683940D01*
X104672475Y-91649500D01*
X104527525Y-91649500D01*
X104398993Y-91683940D01*
X104387511Y-91687017D01*
X104261988Y-91759488D01*
X104261982Y-91759493D01*
X104159493Y-91861982D01*
X104159491Y-91861985D01*
X104135081Y-91904263D01*
X104125401Y-91918611D01*
X104114968Y-91931961D01*
X104114961Y-91931972D01*
X104055460Y-92046657D01*
X104043533Y-92072527D01*
X104043527Y-92072540D01*
X104042712Y-92074550D01*
X104033133Y-92101798D01*
X104014197Y-92165055D01*
X104012523Y-92170231D01*
X103999711Y-92207064D01*
X103975622Y-92248312D01*
X103957208Y-92269205D01*
X103957203Y-92269212D01*
X103954152Y-92274281D01*
X103935600Y-92298005D01*
X102770426Y-93463181D01*
X102709103Y-93496666D01*
X102682745Y-93499500D01*
X98666255Y-93499500D01*
X98599216Y-93479815D01*
X98553461Y-93427011D01*
X98543517Y-93357853D01*
X98572542Y-93294297D01*
X98578574Y-93287819D01*
X99152794Y-92713599D01*
X102035703Y-89830687D01*
X102035708Y-89830684D01*
X102045911Y-89820480D01*
X102045913Y-89820480D01*
X102120480Y-89745913D01*
X102173207Y-89654587D01*
X102176230Y-89643304D01*
X102200501Y-89552727D01*
X102200501Y-89447273D01*
X102200500Y-89447269D01*
X102200500Y-89137866D01*
X102204156Y-89107977D01*
X102205621Y-89102080D01*
X102207036Y-89077959D01*
X102208906Y-89070623D01*
X102208309Y-89066076D01*
X102218662Y-89032346D01*
X102238103Y-88991118D01*
X102240344Y-88986611D01*
X102278435Y-88913837D01*
X102290591Y-88887676D01*
X102291427Y-88885629D01*
X102301096Y-88858321D01*
X102333982Y-88749261D01*
X102337769Y-88735556D01*
X102338033Y-88734506D01*
X102342468Y-88713877D01*
X102342467Y-88713871D01*
X102343161Y-88707107D01*
X102344096Y-88707202D01*
X102346734Y-88686527D01*
X102350500Y-88672475D01*
X102350500Y-88527527D01*
X102350500Y-88527525D01*
X102312984Y-88387515D01*
X102255239Y-88287498D01*
X102238767Y-88219601D01*
X102261619Y-88153574D01*
X102316540Y-88110383D01*
X102362627Y-88101500D01*
X105683745Y-88101500D01*
X105750784Y-88121185D01*
X105771426Y-88137819D01*
X108363181Y-90729574D01*
X108396666Y-90790897D01*
X108399500Y-90817255D01*
X108399500Y-92097128D01*
X108398615Y-92111920D01*
X108397698Y-92119551D01*
X108394379Y-92132916D01*
X108392741Y-92160803D01*
X108392290Y-92164565D01*
X108389218Y-92171727D01*
X108381331Y-92202659D01*
X108361927Y-92243809D01*
X108359633Y-92248424D01*
X108321566Y-92321154D01*
X108321555Y-92321176D01*
X108309424Y-92347279D01*
X108309417Y-92347297D01*
X108308584Y-92349336D01*
X108299276Y-92375623D01*
X108298897Y-92376692D01*
X108289009Y-92409488D01*
X108267277Y-92481564D01*
X108266002Y-92485791D01*
X108262162Y-92499707D01*
X108261900Y-92500755D01*
X108257531Y-92521121D01*
X108256840Y-92527883D01*
X108255912Y-92527788D01*
X108253267Y-92548464D01*
X108249500Y-92562522D01*
X108249500Y-92562525D01*
X108249500Y-92707475D01*
X108285503Y-92841839D01*
X108287017Y-92847488D01*
X108359488Y-92973011D01*
X108359490Y-92973013D01*
X108359491Y-92973015D01*
X108461985Y-93075509D01*
X108461986Y-93075510D01*
X108461988Y-93075511D01*
X108587511Y-93147982D01*
X108587512Y-93147982D01*
X108587515Y-93147984D01*
X108727525Y-93185500D01*
X108727528Y-93185500D01*
X108872473Y-93185500D01*
X108872475Y-93185500D01*
X108876120Y-93184523D01*
X108879316Y-93184599D01*
X108880532Y-93184439D01*
X108880556Y-93184628D01*
X108890252Y-93184859D01*
X108903661Y-93180381D01*
X108924487Y-93185673D01*
X108945969Y-93186184D01*
X108957675Y-93194106D01*
X108971379Y-93197589D01*
X108986038Y-93213301D01*
X109003832Y-93225344D01*
X109010336Y-93239346D01*
X109019042Y-93248677D01*
X109029847Y-93281344D01*
X109030223Y-93282153D01*
X109030312Y-93282647D01*
X109034296Y-93305346D01*
X109035109Y-93309786D01*
X109035175Y-93310132D01*
X109036088Y-93314726D01*
X109036190Y-93315222D01*
X109036506Y-93316775D01*
X109036507Y-93316778D01*
X109053123Y-93398328D01*
X109054336Y-93404006D01*
X109054338Y-93404012D01*
X109060500Y-93418403D01*
X109066284Y-93435117D01*
X109087015Y-93512483D01*
X109087017Y-93512488D01*
X109159488Y-93638011D01*
X109159490Y-93638013D01*
X109159491Y-93638015D01*
X109261985Y-93740509D01*
X109261986Y-93740510D01*
X109261988Y-93740511D01*
X109387511Y-93812982D01*
X109387512Y-93812982D01*
X109387515Y-93812984D01*
X109527525Y-93850500D01*
X109527528Y-93850500D01*
X109672472Y-93850500D01*
X109672475Y-93850500D01*
X109812485Y-93812984D01*
X109938015Y-93740509D01*
X110040509Y-93638015D01*
X110112984Y-93512485D01*
X110150500Y-93372475D01*
X110150500Y-93227525D01*
X110112984Y-93087515D01*
X110106053Y-93075511D01*
X110040511Y-92961988D01*
X110040506Y-92961982D01*
X109938016Y-92859492D01*
X109938015Y-92859491D01*
X109889442Y-92831448D01*
X109879593Y-92825123D01*
X109878180Y-92824118D01*
X109862968Y-92812649D01*
X109859908Y-92811128D01*
X109852650Y-92805968D01*
X109833404Y-92781533D01*
X109812623Y-92758381D01*
X109811594Y-92753842D01*
X109809418Y-92751080D01*
X109808274Y-92739198D01*
X109800500Y-92704906D01*
X109800500Y-90564933D01*
X109820185Y-90497894D01*
X109872989Y-90452139D01*
X109892394Y-90445162D01*
X110012485Y-90412984D01*
X110138015Y-90340509D01*
X110240509Y-90238015D01*
X110312984Y-90112485D01*
X110350500Y-89972475D01*
X110350500Y-89827525D01*
X110312984Y-89687515D01*
X110291859Y-89650926D01*
X110240511Y-89561988D01*
X110240506Y-89561982D01*
X110138017Y-89459493D01*
X110138015Y-89459491D01*
X110095727Y-89435076D01*
X110081377Y-89425394D01*
X110068029Y-89414962D01*
X110068026Y-89414960D01*
X109953351Y-89355464D01*
X109953328Y-89355453D01*
X109927397Y-89343503D01*
X109925363Y-89342679D01*
X109925361Y-89342678D01*
X109898207Y-89333136D01*
X109834945Y-89314198D01*
X109829768Y-89312524D01*
X109792933Y-89299711D01*
X109751686Y-89275623D01*
X109744311Y-89269123D01*
X109730784Y-89257201D01*
X109725721Y-89254154D01*
X109701991Y-89235598D01*
X107125841Y-86659448D01*
X114724500Y-86659448D01*
X114724500Y-86840551D01*
X114752829Y-87019410D01*
X114808787Y-87191636D01*
X114808788Y-87191639D01*
X114847115Y-87266858D01*
X114885807Y-87342795D01*
X114891006Y-87352997D01*
X114997441Y-87499494D01*
X114997445Y-87499499D01*
X115125500Y-87627554D01*
X115125505Y-87627558D01*
X115253287Y-87720396D01*
X115272006Y-87733996D01*
X115377484Y-87787740D01*
X115433360Y-87816211D01*
X115433363Y-87816212D01*
X115519476Y-87844191D01*
X115605591Y-87872171D01*
X115630291Y-87876083D01*
X115639406Y-87877527D01*
X115702540Y-87907457D01*
X115739471Y-87966768D01*
X115738473Y-88036631D01*
X115699863Y-88094863D01*
X115639406Y-88122473D01*
X115605589Y-88127829D01*
X115433363Y-88183787D01*
X115433360Y-88183788D01*
X115272002Y-88266006D01*
X115125505Y-88372441D01*
X115125500Y-88372445D01*
X114997445Y-88500500D01*
X114997441Y-88500505D01*
X114891006Y-88647002D01*
X114808788Y-88808360D01*
X114808787Y-88808363D01*
X114752829Y-88980589D01*
X114724500Y-89159448D01*
X114724500Y-89340551D01*
X114752829Y-89519410D01*
X114808787Y-89691636D01*
X114808788Y-89691639D01*
X114842616Y-89758028D01*
X114879640Y-89830692D01*
X114891006Y-89852997D01*
X114997441Y-89999494D01*
X114997445Y-89999499D01*
X115125500Y-90127554D01*
X115125505Y-90127558D01*
X115186634Y-90171970D01*
X115272006Y-90233996D01*
X115370291Y-90284075D01*
X115433360Y-90316211D01*
X115433363Y-90316212D01*
X115560649Y-90357569D01*
X115618324Y-90397006D01*
X115645523Y-90461364D01*
X115633609Y-90530211D01*
X115586365Y-90581687D01*
X115522331Y-90599500D01*
X115231898Y-90599500D01*
X115192853Y-90604188D01*
X115143438Y-90610122D01*
X115002656Y-90665639D01*
X114882077Y-90757077D01*
X114790639Y-90877656D01*
X114735122Y-91018438D01*
X114734803Y-91021098D01*
X114724500Y-91106898D01*
X114724500Y-92393102D01*
X114729308Y-92433136D01*
X114735122Y-92481561D01*
X114790639Y-92622343D01*
X114882077Y-92742922D01*
X115002656Y-92834360D01*
X115002657Y-92834360D01*
X115002658Y-92834361D01*
X115143436Y-92889877D01*
X115231898Y-92900500D01*
X115231903Y-92900500D01*
X116768097Y-92900500D01*
X116768102Y-92900500D01*
X116856564Y-92889877D01*
X116997342Y-92834361D01*
X117117922Y-92742922D01*
X117209361Y-92622342D01*
X117264877Y-92481564D01*
X117275500Y-92393102D01*
X117275500Y-91106898D01*
X117264877Y-91018436D01*
X117209361Y-90877658D01*
X117209360Y-90877657D01*
X117209360Y-90877656D01*
X117117922Y-90757077D01*
X116997343Y-90665639D01*
X116856561Y-90610122D01*
X116810926Y-90604642D01*
X116768102Y-90599500D01*
X116477669Y-90599500D01*
X116410630Y-90579815D01*
X116364875Y-90527011D01*
X116354931Y-90457853D01*
X116383956Y-90394297D01*
X116439351Y-90357569D01*
X116566636Y-90316212D01*
X116566639Y-90316211D01*
X116727994Y-90233996D01*
X116874501Y-90127553D01*
X117002553Y-89999501D01*
X117108996Y-89852994D01*
X117191211Y-89691639D01*
X117247171Y-89519409D01*
X117264760Y-89408355D01*
X117275500Y-89340551D01*
X117275500Y-89159448D01*
X117258059Y-89049338D01*
X117247171Y-88980591D01*
X117216322Y-88885646D01*
X117191212Y-88808363D01*
X117191211Y-88808360D01*
X117161089Y-88749244D01*
X117108996Y-88647006D01*
X117082844Y-88611011D01*
X117002558Y-88500505D01*
X117002554Y-88500500D01*
X116874499Y-88372445D01*
X116874494Y-88372441D01*
X116727997Y-88266006D01*
X116727996Y-88266005D01*
X116727994Y-88266004D01*
X116652226Y-88227398D01*
X116566639Y-88183788D01*
X116566636Y-88183787D01*
X116394410Y-88127829D01*
X116360594Y-88122473D01*
X116297459Y-88092544D01*
X116260528Y-88033232D01*
X116261526Y-87963370D01*
X116300136Y-87905137D01*
X116360594Y-87877527D01*
X116368388Y-87876292D01*
X116394409Y-87872171D01*
X116566639Y-87816211D01*
X116727994Y-87733996D01*
X116874501Y-87627553D01*
X117002553Y-87499501D01*
X117108996Y-87352994D01*
X117191211Y-87191639D01*
X117247171Y-87019409D01*
X117264106Y-86912485D01*
X117275500Y-86840551D01*
X117275500Y-86659448D01*
X117254731Y-86528325D01*
X117247171Y-86480591D01*
X117191211Y-86308361D01*
X117191211Y-86308360D01*
X117162740Y-86252484D01*
X117108996Y-86147006D01*
X117095396Y-86128287D01*
X117002558Y-86000505D01*
X117002554Y-86000500D01*
X116874499Y-85872445D01*
X116874494Y-85872441D01*
X116727997Y-85766006D01*
X116727996Y-85766005D01*
X116727994Y-85766004D01*
X116676300Y-85739664D01*
X116566639Y-85683788D01*
X116566636Y-85683787D01*
X116444040Y-85643954D01*
X116386365Y-85604517D01*
X116359166Y-85540158D01*
X116371081Y-85471312D01*
X116418325Y-85419836D01*
X116444041Y-85408092D01*
X116585635Y-85362086D01*
X116753940Y-85276329D01*
X116906741Y-85165314D01*
X116906746Y-85165310D01*
X117040310Y-85031746D01*
X117040314Y-85031741D01*
X117151329Y-84878941D01*
X117217028Y-84750000D01*
X114782971Y-84750000D01*
X114848670Y-84878941D01*
X114959685Y-85031741D01*
X114959689Y-85031746D01*
X115093253Y-85165310D01*
X115093258Y-85165314D01*
X115246059Y-85276329D01*
X115414364Y-85362086D01*
X115555958Y-85408092D01*
X115613634Y-85447529D01*
X115640833Y-85511887D01*
X115628919Y-85580734D01*
X115581675Y-85632210D01*
X115555959Y-85643954D01*
X115433363Y-85683787D01*
X115433360Y-85683788D01*
X115272002Y-85766006D01*
X115125505Y-85872441D01*
X115125500Y-85872445D01*
X114997445Y-86000500D01*
X114997441Y-86000505D01*
X114891006Y-86147002D01*
X114808788Y-86308360D01*
X114808787Y-86308363D01*
X114752829Y-86480589D01*
X114724500Y-86659448D01*
X107125841Y-86659448D01*
X106845915Y-86379522D01*
X106845913Y-86379520D01*
X106800250Y-86353156D01*
X106754589Y-86326793D01*
X106685797Y-86308361D01*
X106652727Y-86299500D01*
X95952727Y-86299500D01*
X95847273Y-86299500D01*
X95745410Y-86326793D01*
X95654087Y-86379520D01*
X95654084Y-86379522D01*
X93797137Y-88236468D01*
X93786054Y-88246300D01*
X93780003Y-88251052D01*
X93768206Y-88258157D01*
X93747327Y-88276720D01*
X93744353Y-88279057D01*
X93737115Y-88281949D01*
X93709664Y-88298247D01*
X93666861Y-88313618D01*
X93661977Y-88315258D01*
X93648827Y-88319372D01*
X93648792Y-88319383D01*
X93648640Y-88319431D01*
X93583586Y-88339784D01*
X93556530Y-88349674D01*
X93556511Y-88349681D01*
X93554485Y-88350532D01*
X93554479Y-88350534D01*
X93554450Y-88350547D01*
X93528370Y-88362989D01*
X93528300Y-88363024D01*
X93427964Y-88416871D01*
X93415476Y-88423954D01*
X93414567Y-88424499D01*
X93396904Y-88435918D01*
X93396289Y-88436419D01*
X93388270Y-88444313D01*
X93361985Y-88459491D01*
X93259491Y-88561985D01*
X93247290Y-88583116D01*
X93235306Y-88594916D01*
X93218733Y-88603798D01*
X93205125Y-88616773D01*
X93188578Y-88619961D01*
X93173724Y-88627923D01*
X93154979Y-88626435D01*
X93136517Y-88629993D01*
X93120872Y-88623729D01*
X93104074Y-88622396D01*
X93089109Y-88611011D01*
X93071654Y-88604022D01*
X93060629Y-88594236D01*
X91263529Y-86797136D01*
X91244982Y-86773420D01*
X91241843Y-86768207D01*
X91225782Y-86750144D01*
X91221917Y-86743633D01*
X91218283Y-86740843D01*
X91201750Y-86709666D01*
X91186362Y-86666814D01*
X91184726Y-86661940D01*
X91160225Y-86583620D01*
X91160219Y-86583603D01*
X91150318Y-86556514D01*
X91150314Y-86556504D01*
X91149457Y-86554464D01*
X91149450Y-86554451D01*
X91149448Y-86554444D01*
X91136987Y-86528326D01*
X91136987Y-86528325D01*
X91083122Y-86427955D01*
X91083121Y-86427953D01*
X91076212Y-86415759D01*
X91075648Y-86414815D01*
X91075644Y-86414808D01*
X91064080Y-86396903D01*
X91064079Y-86396902D01*
X91064078Y-86396900D01*
X91059778Y-86391619D01*
X91060505Y-86391026D01*
X91047770Y-86374562D01*
X91040509Y-86361985D01*
X90938015Y-86259491D01*
X90938013Y-86259490D01*
X90938011Y-86259488D01*
X90812488Y-86187017D01*
X90812489Y-86187017D01*
X90801006Y-86183940D01*
X90672475Y-86149500D01*
X90527525Y-86149500D01*
X90398993Y-86183940D01*
X90387511Y-86187017D01*
X90261988Y-86259488D01*
X90261982Y-86259493D01*
X90159493Y-86361982D01*
X90159488Y-86361988D01*
X90087017Y-86487511D01*
X90087016Y-86487515D01*
X90049500Y-86627525D01*
X90049500Y-86772475D01*
X90087016Y-86912485D01*
X90087017Y-86912488D01*
X90159488Y-87038011D01*
X90159490Y-87038013D01*
X90159491Y-87038015D01*
X90261985Y-87140509D01*
X90304271Y-87164922D01*
X90318622Y-87174604D01*
X90331972Y-87185038D01*
X90446672Y-87244545D01*
X90472650Y-87256514D01*
X90474679Y-87257336D01*
X90501779Y-87266858D01*
X90533294Y-87276292D01*
X90565053Y-87285799D01*
X90570232Y-87287474D01*
X90607062Y-87300285D01*
X90648311Y-87324374D01*
X90669211Y-87342795D01*
X90674267Y-87345838D01*
X90698006Y-87364399D01*
X93489860Y-90156253D01*
X93523345Y-90217576D01*
X93518361Y-90287268D01*
X93489861Y-90331615D01*
X93420577Y-90400899D01*
X93419491Y-90402315D01*
X93418272Y-90403204D01*
X93414836Y-90406641D01*
X93414299Y-90406104D01*
X93363058Y-90443512D01*
X93293312Y-90447659D01*
X93232395Y-90413440D01*
X93213736Y-90388818D01*
X93204125Y-90372171D01*
X93140509Y-90261985D01*
X93038015Y-90159491D01*
X93038013Y-90159490D01*
X93038011Y-90159488D01*
X92912488Y-90087017D01*
X92912489Y-90087017D01*
X92877691Y-90077693D01*
X92772475Y-90049500D01*
X92674500Y-90049500D01*
X92607461Y-90029815D01*
X92561706Y-89977011D01*
X92550500Y-89925500D01*
X92550500Y-89827527D01*
X92550500Y-89827525D01*
X92512984Y-89687515D01*
X92491859Y-89650926D01*
X92440511Y-89561988D01*
X92440506Y-89561982D01*
X92338017Y-89459493D01*
X92338011Y-89459488D01*
X92212488Y-89387017D01*
X92212489Y-89387017D01*
X92201006Y-89383940D01*
X92072475Y-89349500D01*
X91927525Y-89349500D01*
X91862565Y-89366906D01*
X91792715Y-89365243D01*
X91734853Y-89326080D01*
X91715907Y-89294574D01*
X91712984Y-89287518D01*
X91712984Y-89287515D01*
X91706118Y-89275623D01*
X91640511Y-89161988D01*
X91640506Y-89161982D01*
X91538017Y-89059493D01*
X91538011Y-89059488D01*
X91412488Y-88987017D01*
X91412489Y-88987017D01*
X91388499Y-88980589D01*
X91272475Y-88949500D01*
X91127525Y-88949500D01*
X91011501Y-88980589D01*
X90987511Y-88987017D01*
X90861988Y-89059488D01*
X90861986Y-89059490D01*
X90759492Y-89161983D01*
X90743140Y-89190305D01*
X90729800Y-89209119D01*
X90721571Y-89218694D01*
X90692352Y-89269123D01*
X90682220Y-89288119D01*
X90681499Y-89289593D01*
X90672634Y-89309496D01*
X90651389Y-89362171D01*
X90642107Y-89388628D01*
X90642093Y-89388671D01*
X90641487Y-89390692D01*
X90634652Y-89417986D01*
X90634645Y-89418020D01*
X90615528Y-89512699D01*
X90614877Y-89515728D01*
X90609260Y-89540358D01*
X90582800Y-89593147D01*
X90578475Y-89598229D01*
X90578470Y-89598236D01*
X90576834Y-89601036D01*
X90557459Y-89626147D01*
X88597137Y-91586468D01*
X88586054Y-91596300D01*
X88580003Y-91601052D01*
X88568206Y-91608157D01*
X88547327Y-91626720D01*
X88544353Y-91629057D01*
X88537115Y-91631949D01*
X88509664Y-91648247D01*
X88466861Y-91663618D01*
X88461977Y-91665258D01*
X88448827Y-91669372D01*
X88448792Y-91669383D01*
X88448640Y-91669431D01*
X88383586Y-91689784D01*
X88356530Y-91699674D01*
X88356511Y-91699681D01*
X88354485Y-91700532D01*
X88354479Y-91700534D01*
X88354450Y-91700547D01*
X88328370Y-91712989D01*
X88328300Y-91713024D01*
X88227964Y-91766871D01*
X88215476Y-91773954D01*
X88214567Y-91774499D01*
X88196904Y-91785918D01*
X88191632Y-91790212D01*
X88191047Y-91789493D01*
X88174571Y-91802222D01*
X88161994Y-91809484D01*
X88161981Y-91809494D01*
X88059493Y-91911982D01*
X88059488Y-91911988D01*
X87987017Y-92037511D01*
X87987016Y-92037515D01*
X87949500Y-92177525D01*
X87949500Y-92322475D01*
X87979152Y-92433136D01*
X87987017Y-92462488D01*
X88059488Y-92588011D01*
X88059490Y-92588013D01*
X88059491Y-92588015D01*
X88161985Y-92690509D01*
X88191366Y-92707472D01*
X88201978Y-92713599D01*
X88250194Y-92764166D01*
X88263417Y-92832773D01*
X88247365Y-92882986D01*
X88187017Y-92987511D01*
X88187016Y-92987515D01*
X88149500Y-93127525D01*
X88149500Y-93127527D01*
X88149500Y-93275500D01*
X88129815Y-93342539D01*
X88077011Y-93388294D01*
X88025500Y-93399500D01*
X84917255Y-93399500D01*
X84850216Y-93379815D01*
X84829574Y-93363181D01*
X84413529Y-92947136D01*
X84403698Y-92936054D01*
X84398947Y-92930006D01*
X84391843Y-92918207D01*
X84373269Y-92897317D01*
X84370940Y-92894352D01*
X84368047Y-92887114D01*
X84351750Y-92859664D01*
X84336362Y-92816814D01*
X84334726Y-92811940D01*
X84310225Y-92733620D01*
X84310219Y-92733603D01*
X84300318Y-92706514D01*
X84300314Y-92706504D01*
X84299457Y-92704464D01*
X84299450Y-92704451D01*
X84299448Y-92704444D01*
X84286987Y-92678326D01*
X84286987Y-92678325D01*
X84233122Y-92577955D01*
X84233121Y-92577953D01*
X84226212Y-92565759D01*
X84225648Y-92564815D01*
X84225644Y-92564808D01*
X84214080Y-92546903D01*
X84214079Y-92546902D01*
X84214078Y-92546900D01*
X84209778Y-92541619D01*
X84210505Y-92541026D01*
X84197770Y-92524562D01*
X84190509Y-92511985D01*
X84088015Y-92409491D01*
X84088013Y-92409490D01*
X84088011Y-92409488D01*
X83962488Y-92337017D01*
X83962489Y-92337017D01*
X83951006Y-92333940D01*
X83822475Y-92299500D01*
X83677525Y-92299500D01*
X83548993Y-92333940D01*
X83537511Y-92337017D01*
X83411988Y-92409488D01*
X83411982Y-92409493D01*
X83309493Y-92511982D01*
X83309488Y-92511988D01*
X83237017Y-92637511D01*
X83237016Y-92637515D01*
X83199500Y-92777525D01*
X71300500Y-92777525D01*
X71300500Y-90647648D01*
X74699500Y-90647648D01*
X74699500Y-90852351D01*
X74731522Y-91054534D01*
X74794781Y-91249223D01*
X74849221Y-91356066D01*
X74866585Y-91390145D01*
X74887715Y-91431613D01*
X75008028Y-91597213D01*
X75152786Y-91741971D01*
X75300201Y-91849072D01*
X75318390Y-91862287D01*
X75415922Y-91911982D01*
X75500776Y-91955218D01*
X75500778Y-91955218D01*
X75500781Y-91955220D01*
X75600175Y-91987515D01*
X75695465Y-92018477D01*
X75796557Y-92034488D01*
X75897648Y-92050500D01*
X75897649Y-92050500D01*
X76102351Y-92050500D01*
X76102352Y-92050500D01*
X76304534Y-92018477D01*
X76384803Y-91992396D01*
X80464708Y-91992396D01*
X80481780Y-92001094D01*
X80683871Y-92066757D01*
X80893754Y-92100000D01*
X81106246Y-92100000D01*
X81316127Y-92066757D01*
X81316130Y-92066757D01*
X81518218Y-92001094D01*
X81518220Y-92001093D01*
X81535289Y-91992395D01*
X81535290Y-91992395D01*
X81000001Y-91457106D01*
X81000000Y-91457106D01*
X80464708Y-91992396D01*
X76384803Y-91992396D01*
X76499219Y-91955220D01*
X76681610Y-91862287D01*
X76689584Y-91856493D01*
X76699800Y-91849072D01*
X76699800Y-91849071D01*
X76754288Y-91809484D01*
X76847219Y-91741966D01*
X76991966Y-91597219D01*
X76991968Y-91597215D01*
X76991971Y-91597213D01*
X77044732Y-91524590D01*
X77112287Y-91431610D01*
X77205220Y-91249219D01*
X77268477Y-91054534D01*
X77300500Y-90852352D01*
X77300500Y-90647648D01*
X77299883Y-90643753D01*
X79650000Y-90643753D01*
X79650000Y-90856246D01*
X79683242Y-91066127D01*
X79683242Y-91066130D01*
X79748903Y-91268213D01*
X79748908Y-91268225D01*
X79757602Y-91285289D01*
X79757603Y-91285290D01*
X80292894Y-90750000D01*
X80227068Y-90684174D01*
X80500000Y-90684174D01*
X80500000Y-90815826D01*
X80534075Y-90942993D01*
X80599901Y-91057007D01*
X80692993Y-91150099D01*
X80807007Y-91215925D01*
X80934174Y-91250000D01*
X81065826Y-91250000D01*
X81192993Y-91215925D01*
X81307007Y-91150099D01*
X81400099Y-91057007D01*
X81465925Y-90942993D01*
X81500000Y-90815826D01*
X81500000Y-90749999D01*
X81707106Y-90749999D01*
X81707106Y-90750001D01*
X82242395Y-91285290D01*
X82242395Y-91285289D01*
X82251093Y-91268220D01*
X82251094Y-91268218D01*
X82316757Y-91066130D01*
X82316757Y-91066127D01*
X82350000Y-90856246D01*
X82350000Y-90643753D01*
X82316757Y-90433872D01*
X82316757Y-90433869D01*
X82251094Y-90231781D01*
X82251094Y-90231780D01*
X82242396Y-90214708D01*
X81707106Y-90749999D01*
X81500000Y-90749999D01*
X81500000Y-90684174D01*
X81465925Y-90557007D01*
X81400099Y-90442993D01*
X81307007Y-90349901D01*
X81192993Y-90284075D01*
X81065826Y-90250000D01*
X80934174Y-90250000D01*
X80807007Y-90284075D01*
X80692993Y-90349901D01*
X80599901Y-90442993D01*
X80534075Y-90557007D01*
X80500000Y-90684174D01*
X80227068Y-90684174D01*
X79757603Y-90214709D01*
X79748904Y-90231783D01*
X79683242Y-90433869D01*
X79683242Y-90433872D01*
X79650000Y-90643753D01*
X77299883Y-90643753D01*
X77270439Y-90457853D01*
X77268477Y-90445465D01*
X77234373Y-90340506D01*
X77205220Y-90250781D01*
X77205218Y-90250778D01*
X77205218Y-90250776D01*
X77165064Y-90171970D01*
X77112287Y-90068390D01*
X77062237Y-89999501D01*
X76991971Y-89902786D01*
X76847213Y-89758028D01*
X76699819Y-89650941D01*
X76699796Y-89650926D01*
X76681609Y-89637712D01*
X76499223Y-89544781D01*
X76384802Y-89507603D01*
X80464709Y-89507603D01*
X81000000Y-90042894D01*
X81000001Y-90042894D01*
X81535290Y-89507603D01*
X81535289Y-89507602D01*
X81518225Y-89498908D01*
X81518213Y-89498903D01*
X81316128Y-89433242D01*
X81106246Y-89400000D01*
X80893754Y-89400000D01*
X80683872Y-89433242D01*
X80683869Y-89433242D01*
X80481783Y-89498904D01*
X80464709Y-89507603D01*
X76384802Y-89507603D01*
X76304534Y-89481522D01*
X76129995Y-89453878D01*
X76102352Y-89449500D01*
X75897648Y-89449500D01*
X75873329Y-89453351D01*
X75695465Y-89481522D01*
X75500776Y-89544781D01*
X75318386Y-89637715D01*
X75152786Y-89758028D01*
X75008028Y-89902786D01*
X74887715Y-90068386D01*
X74794781Y-90250776D01*
X74731522Y-90445465D01*
X74699500Y-90647648D01*
X71300500Y-90647648D01*
X71300500Y-82105131D01*
X71599500Y-82105131D01*
X71599500Y-85394856D01*
X71599502Y-85394882D01*
X71602413Y-85419987D01*
X71602415Y-85419991D01*
X71647793Y-85522764D01*
X71647794Y-85522765D01*
X71727235Y-85602206D01*
X71830009Y-85647585D01*
X71855135Y-85650500D01*
X73944864Y-85650499D01*
X73944879Y-85650497D01*
X73944882Y-85650497D01*
X73969987Y-85647586D01*
X73969988Y-85647585D01*
X73969991Y-85647585D01*
X74072765Y-85602206D01*
X74152206Y-85522765D01*
X74197585Y-85419991D01*
X74200500Y-85394865D01*
X74200499Y-82105136D01*
X74200499Y-82105135D01*
X74200499Y-82105131D01*
X82799500Y-82105131D01*
X82799500Y-85394856D01*
X82799502Y-85394882D01*
X82802413Y-85419987D01*
X82802415Y-85419991D01*
X82847793Y-85522764D01*
X82847794Y-85522765D01*
X82927235Y-85602206D01*
X83030009Y-85647585D01*
X83055135Y-85650500D01*
X85144864Y-85650499D01*
X85144879Y-85650497D01*
X85144882Y-85650497D01*
X85169987Y-85647586D01*
X85169988Y-85647585D01*
X85169991Y-85647585D01*
X85272765Y-85602206D01*
X85352206Y-85522765D01*
X85397585Y-85419991D01*
X85400500Y-85394865D01*
X85400499Y-84187465D01*
X115525000Y-84187465D01*
X115525000Y-84312535D01*
X115557370Y-84433343D01*
X115619905Y-84541657D01*
X115708343Y-84630095D01*
X115816657Y-84692630D01*
X115937465Y-84725000D01*
X116062535Y-84725000D01*
X116183343Y-84692630D01*
X116291657Y-84630095D01*
X116380095Y-84541657D01*
X116442630Y-84433343D01*
X116475000Y-84312535D01*
X116475000Y-84187465D01*
X116442630Y-84066657D01*
X116380095Y-83958343D01*
X116291657Y-83869905D01*
X116183343Y-83807370D01*
X116062535Y-83775000D01*
X115937465Y-83775000D01*
X115816657Y-83807370D01*
X115708343Y-83869905D01*
X115619905Y-83958343D01*
X115557370Y-84066657D01*
X115525000Y-84187465D01*
X85400499Y-84187465D01*
X85400499Y-83750000D01*
X85400499Y-83749999D01*
X114782971Y-83749999D01*
X114782972Y-83750000D01*
X115500000Y-83750000D01*
X116500000Y-83750000D01*
X117217028Y-83750000D01*
X117217028Y-83749999D01*
X117151329Y-83621058D01*
X117040314Y-83468258D01*
X117040310Y-83468253D01*
X116906746Y-83334689D01*
X116906741Y-83334685D01*
X116753941Y-83223670D01*
X116585638Y-83137916D01*
X116500000Y-83110089D01*
X116500000Y-83750000D01*
X115500000Y-83750000D01*
X115500000Y-83110089D01*
X115414361Y-83137916D01*
X115246058Y-83223670D01*
X115093258Y-83334685D01*
X115093253Y-83334689D01*
X114959689Y-83468253D01*
X114959685Y-83468258D01*
X114848670Y-83621058D01*
X114782971Y-83749999D01*
X85400499Y-83749999D01*
X85400499Y-82105143D01*
X85400499Y-82105136D01*
X85400497Y-82105117D01*
X85397586Y-82080012D01*
X85397585Y-82080010D01*
X85397585Y-82080009D01*
X85352206Y-81977235D01*
X85272765Y-81897794D01*
X85272763Y-81897793D01*
X85169992Y-81852415D01*
X85144865Y-81849500D01*
X83055143Y-81849500D01*
X83055117Y-81849502D01*
X83030012Y-81852413D01*
X83030008Y-81852415D01*
X82927235Y-81897793D01*
X82847794Y-81977234D01*
X82802415Y-82080006D01*
X82802415Y-82080008D01*
X82799500Y-82105131D01*
X74200499Y-82105131D01*
X74200499Y-82105130D01*
X74197586Y-82080012D01*
X74197585Y-82080010D01*
X74197585Y-82080009D01*
X74152206Y-81977235D01*
X74072765Y-81897794D01*
X74072763Y-81897793D01*
X73969992Y-81852415D01*
X73944865Y-81849500D01*
X71855143Y-81849500D01*
X71855117Y-81849502D01*
X71830012Y-81852413D01*
X71830008Y-81852415D01*
X71727235Y-81897793D01*
X71647794Y-81977234D01*
X71602415Y-82080006D01*
X71602415Y-82080008D01*
X71599500Y-82105131D01*
X71300500Y-82105131D01*
X71300500Y-76147648D01*
X74699500Y-76147648D01*
X74699500Y-76352351D01*
X74731522Y-76554534D01*
X74794781Y-76749223D01*
X74858691Y-76874653D01*
X74871657Y-76900099D01*
X74887715Y-76931613D01*
X75008028Y-77097213D01*
X75152786Y-77241971D01*
X75300201Y-77349072D01*
X75318390Y-77362287D01*
X75422461Y-77415314D01*
X75500776Y-77455218D01*
X75500778Y-77455218D01*
X75500781Y-77455220D01*
X75605137Y-77489127D01*
X75695465Y-77518477D01*
X75745009Y-77526324D01*
X75897648Y-77550500D01*
X75897649Y-77550500D01*
X76102351Y-77550500D01*
X76102352Y-77550500D01*
X76304534Y-77518477D01*
X76384803Y-77492396D01*
X77964708Y-77492396D01*
X77981780Y-77501094D01*
X78183871Y-77566757D01*
X78393754Y-77600000D01*
X78606246Y-77600000D01*
X78816127Y-77566757D01*
X78816130Y-77566757D01*
X79018218Y-77501094D01*
X79018220Y-77501093D01*
X79035289Y-77492395D01*
X79035290Y-77492395D01*
X78500001Y-76957106D01*
X78500000Y-76957106D01*
X77964708Y-77492396D01*
X76384803Y-77492396D01*
X76499219Y-77455220D01*
X76681610Y-77362287D01*
X76689584Y-77356493D01*
X76699800Y-77349072D01*
X76699800Y-77349071D01*
X76774411Y-77294864D01*
X76847219Y-77241966D01*
X76991966Y-77097219D01*
X76991968Y-77097215D01*
X76991971Y-77097213D01*
X77112284Y-76931614D01*
X77112285Y-76931613D01*
X77112287Y-76931610D01*
X77151225Y-76855189D01*
X77199198Y-76804395D01*
X77251434Y-76791459D01*
X77792894Y-76250000D01*
X77727068Y-76184174D01*
X78000000Y-76184174D01*
X78000000Y-76315826D01*
X78034075Y-76442993D01*
X78099901Y-76557007D01*
X78192993Y-76650099D01*
X78307007Y-76715925D01*
X78434174Y-76750000D01*
X78565826Y-76750000D01*
X78692993Y-76715925D01*
X78807007Y-76650099D01*
X78900099Y-76557007D01*
X78965925Y-76442993D01*
X79000000Y-76315826D01*
X79000000Y-76249999D01*
X79207106Y-76249999D01*
X79207106Y-76250000D01*
X79663181Y-76706075D01*
X79696666Y-76767398D01*
X79699500Y-76793756D01*
X79699500Y-77294856D01*
X79699502Y-77294882D01*
X79702413Y-77319987D01*
X79702415Y-77319991D01*
X79747793Y-77422764D01*
X79747794Y-77422765D01*
X79827235Y-77502206D01*
X79930009Y-77547585D01*
X79955135Y-77550500D01*
X82044864Y-77550499D01*
X82044879Y-77550497D01*
X82044882Y-77550497D01*
X82069987Y-77547586D01*
X82069988Y-77547585D01*
X82069991Y-77547585D01*
X82172765Y-77502206D01*
X82252206Y-77422765D01*
X82297585Y-77319991D01*
X82300500Y-77294865D01*
X82300499Y-76409448D01*
X87529500Y-76409448D01*
X87529500Y-76590551D01*
X87557829Y-76769410D01*
X87613787Y-76941636D01*
X87613788Y-76941639D01*
X87669664Y-77051300D01*
X87693061Y-77097219D01*
X87696006Y-77102997D01*
X87802441Y-77249494D01*
X87802445Y-77249499D01*
X87930500Y-77377554D01*
X87930505Y-77377558D01*
X87992728Y-77422765D01*
X88077006Y-77483996D01*
X88153094Y-77522765D01*
X88238360Y-77566211D01*
X88238363Y-77566212D01*
X88317816Y-77592027D01*
X88410591Y-77622171D01*
X88493429Y-77635291D01*
X88589449Y-77650500D01*
X88589454Y-77650500D01*
X88770551Y-77650500D01*
X88857259Y-77636765D01*
X88949409Y-77622171D01*
X89121639Y-77566211D01*
X89282994Y-77483996D01*
X89429501Y-77377553D01*
X89557553Y-77249501D01*
X89663996Y-77102994D01*
X89746211Y-76941639D01*
X89802171Y-76769409D01*
X89821068Y-76650099D01*
X89827527Y-76609321D01*
X89857456Y-76546186D01*
X89916768Y-76509255D01*
X89986630Y-76510253D01*
X90044863Y-76548863D01*
X90072473Y-76609321D01*
X90097829Y-76769410D01*
X90153787Y-76941636D01*
X90153788Y-76941639D01*
X90209664Y-77051300D01*
X90233061Y-77097219D01*
X90236006Y-77102997D01*
X90342441Y-77249494D01*
X90342445Y-77249499D01*
X90470500Y-77377554D01*
X90470505Y-77377558D01*
X90532728Y-77422765D01*
X90617006Y-77483996D01*
X90693094Y-77522765D01*
X90778360Y-77566211D01*
X90778363Y-77566212D01*
X90857816Y-77592027D01*
X90950591Y-77622171D01*
X91033429Y-77635291D01*
X91129449Y-77650500D01*
X91129454Y-77650500D01*
X91310551Y-77650500D01*
X91397259Y-77636765D01*
X91489409Y-77622171D01*
X91661639Y-77566211D01*
X91822994Y-77483996D01*
X91969501Y-77377553D01*
X92097553Y-77249501D01*
X92203996Y-77102994D01*
X92286211Y-76941639D01*
X92342171Y-76769409D01*
X92342467Y-76767539D01*
X92342777Y-76766885D01*
X92343307Y-76764678D01*
X92343770Y-76764789D01*
X92372390Y-76704404D01*
X92431698Y-76667468D01*
X92501561Y-76668460D01*
X92559797Y-76707065D01*
X92587414Y-76767528D01*
X92589548Y-76781004D01*
X92647914Y-76960637D01*
X92733670Y-77128940D01*
X92844685Y-77281741D01*
X92844689Y-77281746D01*
X92978253Y-77415310D01*
X92978258Y-77415314D01*
X93131052Y-77526324D01*
X93131066Y-77526333D01*
X93260000Y-77592027D01*
X93260000Y-76565826D01*
X93294075Y-76692993D01*
X93359901Y-76807007D01*
X93452993Y-76900099D01*
X93567007Y-76965925D01*
X93694174Y-77000000D01*
X93825826Y-77000000D01*
X93952993Y-76965925D01*
X94067007Y-76900099D01*
X94160099Y-76807007D01*
X94225925Y-76692993D01*
X94260000Y-76565826D01*
X94260000Y-77592027D01*
X94388933Y-77526333D01*
X94388947Y-77526324D01*
X94541741Y-77415314D01*
X94541746Y-77415310D01*
X94675310Y-77281746D01*
X94675314Y-77281741D01*
X94786329Y-77128940D01*
X94872086Y-76960635D01*
X94907569Y-76851428D01*
X94947006Y-76793752D01*
X95011364Y-76766553D01*
X95080210Y-76778467D01*
X95131687Y-76825711D01*
X95149500Y-76889745D01*
X95149500Y-77394856D01*
X95149502Y-77394882D01*
X95152413Y-77419987D01*
X95152415Y-77419991D01*
X95197793Y-77522764D01*
X95197794Y-77522765D01*
X95277235Y-77602206D01*
X95380009Y-77647585D01*
X95405135Y-77650500D01*
X97194864Y-77650499D01*
X97194879Y-77650497D01*
X97194882Y-77650497D01*
X97219987Y-77647586D01*
X97219988Y-77647585D01*
X97219991Y-77647585D01*
X97322765Y-77602206D01*
X97402206Y-77522765D01*
X97447585Y-77419991D01*
X97450500Y-77394865D01*
X97450499Y-75605136D01*
X97448128Y-75584689D01*
X97447586Y-75580012D01*
X97447585Y-75580010D01*
X97447585Y-75580009D01*
X97402206Y-75477235D01*
X97322765Y-75397794D01*
X97322763Y-75397793D01*
X97219992Y-75352415D01*
X97194865Y-75349500D01*
X95405143Y-75349500D01*
X95405117Y-75349502D01*
X95380012Y-75352413D01*
X95380008Y-75352415D01*
X95277235Y-75397793D01*
X95197794Y-75477234D01*
X95152415Y-75580006D01*
X95152415Y-75580008D01*
X95149500Y-75605131D01*
X95149500Y-76110253D01*
X95129815Y-76177292D01*
X95077011Y-76223047D01*
X95007853Y-76232991D01*
X94944297Y-76203966D01*
X94907569Y-76148571D01*
X94872085Y-76039362D01*
X94786329Y-75871059D01*
X94675314Y-75718258D01*
X94675310Y-75718253D01*
X94541746Y-75584689D01*
X94541741Y-75584685D01*
X94388941Y-75473670D01*
X94260000Y-75407971D01*
X94260000Y-76434174D01*
X94225925Y-76307007D01*
X94160099Y-76192993D01*
X94067007Y-76099901D01*
X93952993Y-76034075D01*
X93825826Y-76000000D01*
X93694174Y-76000000D01*
X93567007Y-76034075D01*
X93452993Y-76099901D01*
X93359901Y-76192993D01*
X93294075Y-76307007D01*
X93260000Y-76434174D01*
X93260000Y-75407972D01*
X93259999Y-75407971D01*
X93131058Y-75473670D01*
X92978258Y-75584685D01*
X92978253Y-75584689D01*
X92844689Y-75718253D01*
X92844685Y-75718258D01*
X92733670Y-75871059D01*
X92647914Y-76039362D01*
X92589548Y-76218994D01*
X92587414Y-76232472D01*
X92557482Y-76295605D01*
X92498170Y-76332535D01*
X92428307Y-76331535D01*
X92370076Y-76292923D01*
X92343726Y-76235221D01*
X92343307Y-76235322D01*
X92342790Y-76233171D01*
X92342467Y-76232463D01*
X92342171Y-76230591D01*
X92312307Y-76138679D01*
X92286212Y-76058363D01*
X92286211Y-76058360D01*
X92256474Y-76000000D01*
X92203996Y-75897006D01*
X92185145Y-75871059D01*
X92097558Y-75750505D01*
X92097554Y-75750500D01*
X91969499Y-75622445D01*
X91969494Y-75622441D01*
X91822997Y-75516006D01*
X91822996Y-75516005D01*
X91822994Y-75516004D01*
X91746906Y-75477235D01*
X91661639Y-75433788D01*
X91661636Y-75433787D01*
X91489410Y-75377829D01*
X91310551Y-75349500D01*
X91310546Y-75349500D01*
X91129454Y-75349500D01*
X91129449Y-75349500D01*
X90950589Y-75377829D01*
X90778363Y-75433787D01*
X90778360Y-75433788D01*
X90617002Y-75516006D01*
X90470505Y-75622441D01*
X90470500Y-75622445D01*
X90342445Y-75750500D01*
X90342441Y-75750505D01*
X90236006Y-75897002D01*
X90153788Y-76058360D01*
X90153787Y-76058363D01*
X90097829Y-76230589D01*
X90072473Y-76390678D01*
X90042544Y-76453813D01*
X89983232Y-76490744D01*
X89913369Y-76489746D01*
X89855137Y-76451136D01*
X89827527Y-76390678D01*
X89805245Y-76250000D01*
X89802171Y-76230591D01*
X89774191Y-76144476D01*
X89746212Y-76058363D01*
X89746211Y-76058360D01*
X89716474Y-76000000D01*
X89663996Y-75897006D01*
X89645145Y-75871059D01*
X89557558Y-75750505D01*
X89557554Y-75750500D01*
X89429499Y-75622445D01*
X89429494Y-75622441D01*
X89282997Y-75516006D01*
X89282996Y-75516005D01*
X89282994Y-75516004D01*
X89206906Y-75477235D01*
X89121639Y-75433788D01*
X89121636Y-75433787D01*
X88949410Y-75377829D01*
X88770551Y-75349500D01*
X88770546Y-75349500D01*
X88589454Y-75349500D01*
X88589449Y-75349500D01*
X88410589Y-75377829D01*
X88238363Y-75433787D01*
X88238360Y-75433788D01*
X88077002Y-75516006D01*
X87930505Y-75622441D01*
X87930500Y-75622445D01*
X87802445Y-75750500D01*
X87802441Y-75750505D01*
X87696006Y-75897002D01*
X87613788Y-76058360D01*
X87613787Y-76058363D01*
X87557829Y-76230589D01*
X87529500Y-76409448D01*
X82300499Y-76409448D01*
X82300499Y-76250000D01*
X82300499Y-75205143D01*
X82300499Y-75205136D01*
X82300497Y-75205117D01*
X82297586Y-75180012D01*
X82297585Y-75180010D01*
X82297585Y-75180009D01*
X82252206Y-75077235D01*
X82172765Y-74997794D01*
X82135915Y-74981523D01*
X82069992Y-74952415D01*
X82044865Y-74949500D01*
X79955143Y-74949500D01*
X79955117Y-74949502D01*
X79930012Y-74952413D01*
X79930008Y-74952415D01*
X79827235Y-74997793D01*
X79747794Y-75077234D01*
X79702415Y-75180006D01*
X79702415Y-75180008D01*
X79699500Y-75205131D01*
X79699500Y-75706243D01*
X79679815Y-75773282D01*
X79663181Y-75793924D01*
X79207106Y-76249999D01*
X79000000Y-76249999D01*
X79000000Y-76184174D01*
X78965925Y-76057007D01*
X78900099Y-75942993D01*
X78807007Y-75849901D01*
X78692993Y-75784075D01*
X78565826Y-75750000D01*
X78434174Y-75750000D01*
X78307007Y-75784075D01*
X78192993Y-75849901D01*
X78099901Y-75942993D01*
X78034075Y-76057007D01*
X78000000Y-76184174D01*
X77727068Y-76184174D01*
X77249838Y-75706944D01*
X77211812Y-75702030D01*
X77158360Y-75657034D01*
X77151223Y-75644807D01*
X77131013Y-75605143D01*
X77112287Y-75568390D01*
X77112285Y-75568387D01*
X77112284Y-75568385D01*
X76991971Y-75402786D01*
X76847213Y-75258028D01*
X76699819Y-75150941D01*
X76699796Y-75150926D01*
X76681609Y-75137712D01*
X76499223Y-75044781D01*
X76384802Y-75007603D01*
X77964709Y-75007603D01*
X78500000Y-75542894D01*
X78500001Y-75542894D01*
X79035290Y-75007603D01*
X79035289Y-75007602D01*
X79018225Y-74998908D01*
X79018213Y-74998903D01*
X78816128Y-74933242D01*
X78606246Y-74900000D01*
X78393754Y-74900000D01*
X78183872Y-74933242D01*
X78183869Y-74933242D01*
X77981783Y-74998904D01*
X77964709Y-75007603D01*
X76384802Y-75007603D01*
X76304534Y-74981522D01*
X76120756Y-74952415D01*
X76102352Y-74949500D01*
X75897648Y-74949500D01*
X75879244Y-74952415D01*
X75695465Y-74981522D01*
X75500776Y-75044781D01*
X75318386Y-75137715D01*
X75152786Y-75258028D01*
X75008028Y-75402786D01*
X74887715Y-75568386D01*
X74794781Y-75750776D01*
X74731522Y-75945465D01*
X74699500Y-76147648D01*
X71300500Y-76147648D01*
X71300500Y-72123555D01*
X71320185Y-72056516D01*
X71372989Y-72010761D01*
X71442147Y-72000817D01*
X71505703Y-72029842D01*
X71541541Y-72082600D01*
X71585191Y-72207345D01*
X71585197Y-72207359D01*
X71738700Y-72526112D01*
X71926937Y-72825689D01*
X71926939Y-72825693D01*
X71944801Y-72848089D01*
X71944802Y-72848090D01*
X73071728Y-71721164D01*
X73131557Y-71838583D01*
X73279588Y-72042330D01*
X73457670Y-72220412D01*
X73661417Y-72368443D01*
X73778834Y-72428270D01*
X72651908Y-73555196D01*
X72651909Y-73555197D01*
X72674308Y-73573061D01*
X72973887Y-73761299D01*
X73292640Y-73914802D01*
X73292654Y-73914808D01*
X73626582Y-74031655D01*
X73626590Y-74031658D01*
X73971524Y-74110386D01*
X73971536Y-74110388D01*
X74323095Y-74149999D01*
X74323097Y-74150000D01*
X74676903Y-74150000D01*
X74676904Y-74149999D01*
X75028463Y-74110388D01*
X75028475Y-74110386D01*
X75373409Y-74031658D01*
X75373417Y-74031655D01*
X75707345Y-73914808D01*
X75707359Y-73914802D01*
X76026112Y-73761299D01*
X76325687Y-73573063D01*
X76348090Y-73555197D01*
X75221164Y-72428270D01*
X75338583Y-72368443D01*
X75542330Y-72220412D01*
X75720412Y-72042330D01*
X75868443Y-71838583D01*
X75928270Y-71721164D01*
X77055197Y-72848090D01*
X77073063Y-72825687D01*
X77261299Y-72526112D01*
X77414802Y-72207359D01*
X77414808Y-72207345D01*
X77531655Y-71873417D01*
X77531658Y-71873409D01*
X77610386Y-71528475D01*
X77610388Y-71528463D01*
X77649999Y-71176904D01*
X77650000Y-71176902D01*
X77650000Y-70823097D01*
X77649999Y-70823095D01*
X77610388Y-70471536D01*
X77610386Y-70471524D01*
X77531658Y-70126590D01*
X77531655Y-70126582D01*
X77414808Y-69792654D01*
X77414802Y-69792640D01*
X77261299Y-69473887D01*
X77073061Y-69174308D01*
X77055197Y-69151909D01*
X77055196Y-69151908D01*
X75928270Y-70278834D01*
X75868443Y-70161417D01*
X75720412Y-69957670D01*
X75542330Y-69779588D01*
X75338583Y-69631557D01*
X75221163Y-69571728D01*
X76348090Y-68444802D01*
X76348089Y-68444801D01*
X76325693Y-68426939D01*
X76325689Y-68426937D01*
X76026112Y-68238700D01*
X75707359Y-68085197D01*
X75707345Y-68085191D01*
X75582600Y-68041541D01*
X75525824Y-68000820D01*
X75500077Y-67935867D01*
X75513533Y-67867305D01*
X75561921Y-67816903D01*
X75623555Y-67800500D01*
X118376445Y-67800500D01*
X118443484Y-67820185D01*
G37*
%TD.AperFunction*%
%TD*%
%TA.AperFunction,Conductor*%
%TO.N,+5V*%
G36*
X98296972Y-98815637D02*
G01*
X98297292Y-98816146D01*
X98341846Y-98891340D01*
X98342484Y-98892581D01*
X98374909Y-98966067D01*
X98375483Y-98967675D01*
X98410268Y-99093625D01*
X98410362Y-99093988D01*
X98426601Y-99161098D01*
X98473655Y-99271695D01*
X98473659Y-99271702D01*
X98516575Y-99333117D01*
X98571157Y-99393579D01*
X98574157Y-99402016D01*
X98570745Y-99409692D01*
X98409557Y-99570880D01*
X98401284Y-99574307D01*
X98393595Y-99571426D01*
X98312893Y-99501067D01*
X98261218Y-99469819D01*
X98235380Y-99454195D01*
X98235378Y-99454194D01*
X98235376Y-99454193D01*
X98164085Y-99427455D01*
X98094022Y-99410370D01*
X98093584Y-99410254D01*
X97955625Y-99370895D01*
X97953950Y-99370276D01*
X97885632Y-99338888D01*
X97884506Y-99338294D01*
X97816067Y-99297312D01*
X97810730Y-99290122D01*
X97812040Y-99281263D01*
X97812315Y-99280827D01*
X97997989Y-99001255D01*
X98001255Y-98997989D01*
X98280754Y-98812363D01*
X98289541Y-98810641D01*
X98296972Y-98815637D01*
G37*
%TD.AperFunction*%
%TD*%
%TA.AperFunction,Conductor*%
%TO.N,+5V*%
G36*
X99622346Y-103610152D02*
G01*
X99625746Y-103617626D01*
X99633059Y-103724445D01*
X99654724Y-103812391D01*
X99654726Y-103812396D01*
X99686228Y-103881712D01*
X99723702Y-103943355D01*
X99723929Y-103943747D01*
X99793638Y-104069111D01*
X99794385Y-104070733D01*
X99820500Y-104141238D01*
X99820876Y-104142454D01*
X99840291Y-104219826D01*
X99838981Y-104228685D01*
X99831791Y-104234022D01*
X99831258Y-104234143D01*
X99502315Y-104300532D01*
X99497685Y-104300532D01*
X99168798Y-104234154D01*
X99161367Y-104229158D01*
X99159644Y-104220370D01*
X99159778Y-104219785D01*
X99181447Y-104135098D01*
X99181862Y-104133802D01*
X99210911Y-104058874D01*
X99211632Y-104057355D01*
X99276109Y-103943674D01*
X99276288Y-103943371D01*
X99312253Y-103884446D01*
X99312252Y-103884446D01*
X99312258Y-103884438D01*
X99357194Y-103772952D01*
X99370274Y-103699175D01*
X99374432Y-103617827D01*
X99378277Y-103609740D01*
X99386117Y-103606725D01*
X99614073Y-103606725D01*
X99622346Y-103610152D01*
G37*
%TD.AperFunction*%
%TD*%
%TA.AperFunction,Conductor*%
%TO.N,+5V*%
G36*
X112173124Y-98810152D02*
G01*
X112176537Y-98817862D01*
X112187746Y-99050436D01*
X112187746Y-99050439D01*
X112222701Y-99222907D01*
X112266675Y-99420064D01*
X112265132Y-99428885D01*
X112257803Y-99434030D01*
X112257571Y-99434080D01*
X111928315Y-99500532D01*
X111923685Y-99500532D01*
X111594428Y-99434080D01*
X111586997Y-99429084D01*
X111585274Y-99420296D01*
X111585324Y-99420064D01*
X111629299Y-99222907D01*
X111656154Y-99102295D01*
X111656154Y-99102291D01*
X111656158Y-99102276D01*
X111671020Y-98981807D01*
X111675677Y-98818092D01*
X111679337Y-98809920D01*
X111687372Y-98806725D01*
X112164851Y-98806725D01*
X112173124Y-98810152D01*
G37*
%TD.AperFunction*%
%TD*%
%TA.AperFunction,Conductor*%
%TO.N,+5V*%
G36*
X114118733Y-95812026D02*
G01*
X114118932Y-95812156D01*
X114239287Y-95892088D01*
X114398741Y-95997987D01*
X114402013Y-96001259D01*
X114587843Y-96281067D01*
X114589566Y-96289855D01*
X114584570Y-96297286D01*
X114584371Y-96297416D01*
X114413869Y-96405731D01*
X114413868Y-96405730D01*
X114309585Y-96472032D01*
X114309574Y-96472040D01*
X114213881Y-96546715D01*
X114213873Y-96546723D01*
X114094824Y-96659186D01*
X114086456Y-96662376D01*
X114078516Y-96658954D01*
X113740887Y-96321325D01*
X113737460Y-96313052D01*
X113740496Y-96305190D01*
X113897030Y-96132802D01*
X113994268Y-95986132D01*
X114102584Y-95815627D01*
X114109912Y-95810483D01*
X114118733Y-95812026D01*
G37*
%TD.AperFunction*%
%TD*%
%TA.AperFunction,Conductor*%
%TO.N,/SENS1+*%
G36*
X108736048Y-100558505D02*
G01*
X108845121Y-100591393D01*
X108847167Y-100592228D01*
X108927813Y-100634439D01*
X109030069Y-100682658D01*
X109090664Y-100695332D01*
X109159182Y-100699353D01*
X109167240Y-100703259D01*
X109170196Y-100711033D01*
X109170196Y-100939189D01*
X109166769Y-100947462D01*
X109159419Y-100950853D01*
X109106250Y-100955061D01*
X109014538Y-100962321D01*
X108910317Y-100993005D01*
X108910304Y-100993009D01*
X108899107Y-100996951D01*
X108898324Y-100997196D01*
X108735849Y-101041875D01*
X108726964Y-101040765D01*
X108721466Y-101033696D01*
X108721281Y-101032922D01*
X108714007Y-100997087D01*
X108674472Y-100802325D01*
X108674472Y-100797674D01*
X108721219Y-100567381D01*
X108726223Y-100559957D01*
X108735013Y-100558245D01*
X108736048Y-100558505D01*
G37*
%TD.AperFunction*%
%TD*%
%TA.AperFunction,Conductor*%
%TO.N,/SENS1+*%
G36*
X114917636Y-100551855D02*
G01*
X114917935Y-100552279D01*
X115048266Y-100745938D01*
X115050042Y-100754714D01*
X115050025Y-100754798D01*
X115003546Y-100983771D01*
X114998542Y-100991197D01*
X114989794Y-100992918D01*
X114978583Y-100990685D01*
X114972871Y-100989547D01*
X114972864Y-100989545D01*
X114972845Y-100989542D01*
X114777467Y-100955790D01*
X114577048Y-100950311D01*
X114568872Y-100946659D01*
X114565668Y-100938615D01*
X114565668Y-100711010D01*
X114569095Y-100702737D01*
X114576658Y-100699332D01*
X114653062Y-100694691D01*
X114653068Y-100694689D01*
X114653071Y-100694689D01*
X114677064Y-100688474D01*
X114714630Y-100678746D01*
X114763493Y-100652136D01*
X114812775Y-100614832D01*
X114901274Y-100549402D01*
X114909962Y-100547240D01*
X114917636Y-100551855D01*
G37*
%TD.AperFunction*%
%TD*%
%TA.AperFunction,Conductor*%
%TO.N,/NRST*%
G36*
X90813381Y-86571488D02*
G01*
X90813936Y-86572417D01*
X90867801Y-86672787D01*
X90868658Y-86674827D01*
X90895835Y-86761699D01*
X90934045Y-86868099D01*
X90950511Y-86893274D01*
X90967930Y-86919908D01*
X91013536Y-86971201D01*
X91016472Y-86979659D01*
X91013065Y-86987247D01*
X90887213Y-87113099D01*
X90878940Y-87116526D01*
X90871205Y-87113604D01*
X90816059Y-87065002D01*
X90816054Y-87064999D01*
X90816051Y-87064996D01*
X90761269Y-87030473D01*
X90761256Y-87030467D01*
X90661713Y-86995840D01*
X90589389Y-86974190D01*
X90587360Y-86973368D01*
X90472660Y-86913861D01*
X90466896Y-86907011D01*
X90467664Y-86898089D01*
X90468290Y-86897025D01*
X90597981Y-86701272D01*
X90601273Y-86697981D01*
X90639300Y-86672787D01*
X90797167Y-86568195D01*
X90805954Y-86566484D01*
X90813381Y-86571488D01*
G37*
%TD.AperFunction*%
%TD*%
%TA.AperFunction,Conductor*%
%TO.N,/NRST*%
G36*
X96628792Y-92586394D02*
G01*
X96683941Y-92634998D01*
X96683945Y-92635000D01*
X96683948Y-92635003D01*
X96738729Y-92669526D01*
X96738731Y-92669526D01*
X96738735Y-92669529D01*
X96838303Y-92704164D01*
X96910610Y-92725808D01*
X96912643Y-92726632D01*
X97027337Y-92786137D01*
X97033103Y-92792988D01*
X97032334Y-92801910D01*
X97031703Y-92802984D01*
X96902018Y-92998726D01*
X96898726Y-93002018D01*
X96702834Y-93131803D01*
X96694045Y-93133515D01*
X96686618Y-93128511D01*
X96686063Y-93127582D01*
X96632198Y-93027211D01*
X96631341Y-93025171D01*
X96623687Y-93000707D01*
X96619572Y-92987554D01*
X96604163Y-92938298D01*
X96565955Y-92831904D01*
X96565954Y-92831901D01*
X96532069Y-92780092D01*
X96486462Y-92728797D01*
X96483527Y-92720339D01*
X96486933Y-92712753D01*
X96612787Y-92586899D01*
X96621059Y-92583473D01*
X96628792Y-92586394D01*
G37*
%TD.AperFunction*%
%TD*%
%TA.AperFunction,Conductor*%
%TO.N,/SENS0_PTC+*%
G36*
X92063975Y-100121095D02*
G01*
X92064199Y-100121447D01*
X92145922Y-100254909D01*
X92146027Y-100255083D01*
X92180253Y-100313222D01*
X92230563Y-100382406D01*
X92306794Y-100464759D01*
X92309899Y-100473157D01*
X92306481Y-100480979D01*
X92180721Y-100606739D01*
X92172448Y-100610166D01*
X92164787Y-100607309D01*
X92109143Y-100559106D01*
X92054764Y-100529447D01*
X92054762Y-100529446D01*
X92002449Y-100516661D01*
X92002450Y-100516661D01*
X91944949Y-100511956D01*
X91944547Y-100511916D01*
X91813777Y-100496660D01*
X91805957Y-100492298D01*
X91803512Y-100483683D01*
X91803645Y-100482823D01*
X91848354Y-100254094D01*
X91853303Y-100246636D01*
X92047760Y-100117802D01*
X92056549Y-100116091D01*
X92063975Y-100121095D01*
G37*
%TD.AperFunction*%
%TD*%
%TA.AperFunction,Conductor*%
%TO.N,/SENS0_PTC+*%
G36*
X103570459Y-104908856D02*
G01*
X103641889Y-104927365D01*
X103643266Y-104927816D01*
X103707495Y-104953464D01*
X103709115Y-104954261D01*
X103806384Y-105011830D01*
X103806793Y-105012083D01*
X103846690Y-105037978D01*
X103846694Y-105037980D01*
X103846693Y-105037980D01*
X103945481Y-105082336D01*
X103945482Y-105082337D01*
X103945485Y-105082337D01*
X103945486Y-105082338D01*
X104011011Y-105095292D01*
X104083198Y-105099375D01*
X104091263Y-105103263D01*
X104094236Y-105111056D01*
X104094236Y-105289106D01*
X104090809Y-105297379D01*
X104083369Y-105300776D01*
X103993426Y-105307199D01*
X103918228Y-105326534D01*
X103918226Y-105326534D01*
X103859112Y-105354618D01*
X103806787Y-105387922D01*
X103806420Y-105388147D01*
X103704069Y-105448114D01*
X103702405Y-105448919D01*
X103640060Y-105473235D01*
X103638716Y-105473668D01*
X103570459Y-105491175D01*
X103561594Y-105489911D01*
X103556219Y-105482749D01*
X103556084Y-105482162D01*
X103549359Y-105448919D01*
X103499469Y-105202318D01*
X103499469Y-105197680D01*
X103519357Y-105099375D01*
X103556078Y-104917866D01*
X103561078Y-104910438D01*
X103569866Y-104908719D01*
X103570459Y-104908856D01*
G37*
%TD.AperFunction*%
%TD*%
%TA.AperFunction,Conductor*%
%TO.N,/SENS0_PTC+*%
G36*
X107947738Y-104959504D02*
G01*
X107953504Y-104966355D01*
X107953816Y-104967561D01*
X108000527Y-105197672D01*
X108000527Y-105202328D01*
X107953780Y-105432616D01*
X107948776Y-105440042D01*
X107939986Y-105441754D01*
X107938936Y-105441490D01*
X107829878Y-105408605D01*
X107827831Y-105407769D01*
X107747181Y-105365557D01*
X107644933Y-105317343D01*
X107644931Y-105317342D01*
X107644929Y-105317341D01*
X107644925Y-105317340D01*
X107584345Y-105304669D01*
X107584332Y-105304667D01*
X107515818Y-105300646D01*
X107507760Y-105296740D01*
X107504804Y-105288966D01*
X107504804Y-105110985D01*
X107508231Y-105102712D01*
X107515765Y-105099308D01*
X107589128Y-105094681D01*
X107589132Y-105094680D01*
X107589133Y-105094680D01*
X107652287Y-105080354D01*
X107652288Y-105080353D01*
X107652290Y-105080353D01*
X107747186Y-105034439D01*
X107813617Y-104998615D01*
X107815625Y-104997764D01*
X107938818Y-104958735D01*
X107947738Y-104959504D01*
G37*
%TD.AperFunction*%
%TD*%
%TA.AperFunction,Conductor*%
%TO.N,/SENS0_PTC+*%
G36*
X103438405Y-104910088D02*
G01*
X103443780Y-104917250D01*
X103443915Y-104917837D01*
X103500530Y-105197680D01*
X103500530Y-105202320D01*
X103443921Y-105482132D01*
X103438921Y-105489561D01*
X103430133Y-105491280D01*
X103429518Y-105491138D01*
X103394762Y-105482132D01*
X103358119Y-105472637D01*
X103356723Y-105472179D01*
X103328669Y-105460976D01*
X103292503Y-105446535D01*
X103290883Y-105445738D01*
X103193614Y-105388169D01*
X103193203Y-105387914D01*
X103153308Y-105362020D01*
X103054518Y-105317663D01*
X103054517Y-105317662D01*
X102988991Y-105304708D01*
X102916803Y-105300624D01*
X102908737Y-105296736D01*
X102905764Y-105288943D01*
X102905764Y-105110893D01*
X102909191Y-105102620D01*
X102916628Y-105099224D01*
X103006574Y-105092800D01*
X103081776Y-105073464D01*
X103140883Y-105045383D01*
X103193254Y-105012050D01*
X103193541Y-105011874D01*
X103295939Y-104951879D01*
X103297584Y-104951083D01*
X103359956Y-104926758D01*
X103361266Y-104926336D01*
X103429541Y-104908824D01*
X103438405Y-104910088D01*
G37*
%TD.AperFunction*%
%TD*%
%TA.AperFunction,Conductor*%
%TO.N,/PWM_HTR0*%
G36*
X93663001Y-90606574D02*
G01*
X93664075Y-90607205D01*
X93859817Y-90736890D01*
X93863109Y-90740182D01*
X93992894Y-90936074D01*
X93994606Y-90944863D01*
X93989602Y-90952290D01*
X93988673Y-90952845D01*
X93888303Y-91006710D01*
X93886263Y-91007567D01*
X93799391Y-91034744D01*
X93692995Y-91072952D01*
X93692991Y-91072954D01*
X93641179Y-91106841D01*
X93589890Y-91152445D01*
X93581431Y-91155381D01*
X93573843Y-91151974D01*
X93447991Y-91026122D01*
X93444564Y-91017849D01*
X93447486Y-91010114D01*
X93496089Y-90954968D01*
X93530620Y-90900173D01*
X93565255Y-90800606D01*
X93586900Y-90728294D01*
X93587723Y-90726265D01*
X93647229Y-90611569D01*
X93654079Y-90605805D01*
X93663001Y-90606574D01*
G37*
%TD.AperFunction*%
%TD*%
%TA.AperFunction,Conductor*%
%TO.N,/PWM_HTR0*%
G36*
X88957699Y-98510535D02*
G01*
X89867887Y-98692511D01*
X89875328Y-98697493D01*
X89877066Y-98706278D01*
X89876721Y-98707599D01*
X89861336Y-98754959D01*
X89860209Y-98757416D01*
X89836651Y-98796217D01*
X89836617Y-98796272D01*
X89816366Y-98829215D01*
X89804545Y-98863751D01*
X89800981Y-98902336D01*
X89796808Y-98910259D01*
X89789331Y-98912960D01*
X89674624Y-98912960D01*
X89713301Y-98949888D01*
X89715963Y-98953714D01*
X89739028Y-99007164D01*
X89739759Y-99014093D01*
X89734901Y-99038400D01*
X89729919Y-99045841D01*
X89721135Y-99047580D01*
X89716920Y-99045830D01*
X88948899Y-98531732D01*
X88943930Y-98524282D01*
X88945684Y-98515501D01*
X88953134Y-98510532D01*
X88957699Y-98510535D01*
G37*
%TD.AperFunction*%
%TD*%
%TA.AperFunction,Conductor*%
%TO.N,/PWM_HTR0*%
G36*
X85145938Y-105729187D02*
G01*
X85271550Y-105854799D01*
X85274977Y-105863072D01*
X85272284Y-105870539D01*
X85229273Y-105922419D01*
X85229271Y-105922422D01*
X85229270Y-105922424D01*
X85208085Y-105969086D01*
X85205415Y-105974970D01*
X85199087Y-106025209D01*
X85199086Y-106025213D01*
X85201846Y-106078392D01*
X85204792Y-106123570D01*
X85204782Y-106125236D01*
X85196212Y-106235674D01*
X85192155Y-106243657D01*
X85183642Y-106246434D01*
X85182303Y-106246252D01*
X84954098Y-106201646D01*
X84946635Y-106196695D01*
X84946630Y-106196688D01*
X84817368Y-106001583D01*
X84815656Y-105992793D01*
X84820355Y-105985576D01*
X84977890Y-105873902D01*
X85115444Y-105743151D01*
X85129392Y-105729193D01*
X85137663Y-105725763D01*
X85145938Y-105729187D01*
G37*
%TD.AperFunction*%
%TD*%
%TA.AperFunction,Conductor*%
%TO.N,/OPA0_OUT*%
G36*
X99313381Y-96521488D02*
G01*
X99313936Y-96522417D01*
X99367801Y-96622787D01*
X99368658Y-96624827D01*
X99395835Y-96711699D01*
X99434045Y-96818099D01*
X99450511Y-96843274D01*
X99467930Y-96869908D01*
X99513536Y-96921201D01*
X99516472Y-96929659D01*
X99513065Y-96937247D01*
X99387213Y-97063099D01*
X99378940Y-97066526D01*
X99371205Y-97063604D01*
X99316059Y-97015002D01*
X99316054Y-97014999D01*
X99316051Y-97014996D01*
X99261269Y-96980473D01*
X99261256Y-96980467D01*
X99161713Y-96945840D01*
X99089389Y-96924190D01*
X99087360Y-96923368D01*
X98972660Y-96863861D01*
X98966896Y-96857011D01*
X98967664Y-96848089D01*
X98968290Y-96847025D01*
X99097981Y-96651272D01*
X99101273Y-96647981D01*
X99139300Y-96622787D01*
X99297167Y-96518195D01*
X99305954Y-96516484D01*
X99313381Y-96521488D01*
G37*
%TD.AperFunction*%
%TD*%
%TA.AperFunction,Conductor*%
%TO.N,/OPA0_OUT*%
G36*
X100978792Y-101636394D02*
G01*
X101033941Y-101684998D01*
X101033945Y-101685000D01*
X101033948Y-101685003D01*
X101088729Y-101719526D01*
X101088731Y-101719526D01*
X101088735Y-101719529D01*
X101188303Y-101754164D01*
X101260610Y-101775808D01*
X101262643Y-101776632D01*
X101377337Y-101836137D01*
X101383103Y-101842988D01*
X101382334Y-101851910D01*
X101381703Y-101852984D01*
X101252018Y-102048726D01*
X101248726Y-102052018D01*
X101052834Y-102181803D01*
X101044045Y-102183515D01*
X101036618Y-102178511D01*
X101036063Y-102177582D01*
X100982198Y-102077211D01*
X100981341Y-102075171D01*
X100973687Y-102050707D01*
X100969572Y-102037554D01*
X100954163Y-101988298D01*
X100915955Y-101881904D01*
X100915954Y-101881901D01*
X100882069Y-101830092D01*
X100836462Y-101778797D01*
X100833527Y-101770339D01*
X100836933Y-101762753D01*
X100962787Y-101636899D01*
X100971059Y-101633473D01*
X100978792Y-101636394D01*
G37*
%TD.AperFunction*%
%TD*%
%TA.AperFunction,Conductor*%
%TO.N,/PWM_HTR1*%
G36*
X102299353Y-109823161D02*
G01*
X102304163Y-109830484D01*
X102496464Y-110792320D01*
X102494726Y-110801105D01*
X102491486Y-110804346D01*
X101676148Y-111348483D01*
X101667364Y-111350225D01*
X101659921Y-111345246D01*
X101659399Y-111344386D01*
X101566383Y-111174689D01*
X101565622Y-111172991D01*
X101502149Y-110994602D01*
X101501764Y-110993276D01*
X101500527Y-110987842D01*
X101462376Y-110820157D01*
X101462243Y-110819469D01*
X101435902Y-110655453D01*
X101408628Y-110489858D01*
X101366543Y-110341083D01*
X101366543Y-110341082D01*
X101343222Y-110300413D01*
X101308526Y-110239903D01*
X101308524Y-110239901D01*
X101225443Y-110167239D01*
X101225438Y-110167235D01*
X101168886Y-110139240D01*
X101168883Y-110139239D01*
X101168881Y-110139238D01*
X101132484Y-110127913D01*
X101101536Y-110118283D01*
X101014138Y-110103909D01*
X100922104Y-110099530D01*
X100914003Y-110095714D01*
X100910960Y-110087843D01*
X100910960Y-109910894D01*
X100914387Y-109902621D01*
X100922660Y-109899194D01*
X100922736Y-109899194D01*
X101344368Y-109906169D01*
X101487396Y-109909780D01*
X101487396Y-109909779D01*
X101487397Y-109909780D01*
X101487408Y-109909780D01*
X101674196Y-109904320D01*
X101783163Y-109901136D01*
X102004044Y-109873257D01*
X102290603Y-109821266D01*
X102299353Y-109823161D01*
G37*
%TD.AperFunction*%
%TD*%
%TA.AperFunction,Conductor*%
%TO.N,/PWM_HTR1*%
G36*
X94847738Y-91559504D02*
G01*
X94853504Y-91566355D01*
X94853816Y-91567561D01*
X94900527Y-91797672D01*
X94900527Y-91802328D01*
X94853780Y-92032616D01*
X94848776Y-92040042D01*
X94839986Y-92041754D01*
X94838936Y-92041490D01*
X94729878Y-92008605D01*
X94727831Y-92007769D01*
X94647181Y-91965557D01*
X94544933Y-91917343D01*
X94544931Y-91917342D01*
X94544929Y-91917341D01*
X94544925Y-91917340D01*
X94484345Y-91904669D01*
X94484332Y-91904667D01*
X94415818Y-91900646D01*
X94407760Y-91896740D01*
X94404804Y-91888966D01*
X94404804Y-91710985D01*
X94408231Y-91702712D01*
X94415765Y-91699308D01*
X94489128Y-91694681D01*
X94489132Y-91694680D01*
X94489133Y-91694680D01*
X94552287Y-91680354D01*
X94552288Y-91680353D01*
X94552290Y-91680353D01*
X94647186Y-91634439D01*
X94713617Y-91598615D01*
X94715625Y-91597764D01*
X94838818Y-91558735D01*
X94847738Y-91559504D01*
G37*
%TD.AperFunction*%
%TD*%
%TA.AperFunction,Conductor*%
%TO.N,/OPA1_OUT*%
G36*
X106947738Y-96759504D02*
G01*
X106953504Y-96766355D01*
X106953816Y-96767561D01*
X107000527Y-96997672D01*
X107000527Y-97002328D01*
X106953780Y-97232616D01*
X106948776Y-97240042D01*
X106939986Y-97241754D01*
X106938936Y-97241490D01*
X106829878Y-97208605D01*
X106827831Y-97207769D01*
X106747181Y-97165557D01*
X106644933Y-97117343D01*
X106644931Y-97117342D01*
X106644929Y-97117341D01*
X106644925Y-97117340D01*
X106584345Y-97104669D01*
X106584332Y-97104667D01*
X106515818Y-97100646D01*
X106507760Y-97096740D01*
X106504804Y-97088966D01*
X106504804Y-96910985D01*
X106508231Y-96902712D01*
X106515765Y-96899308D01*
X106589128Y-96894681D01*
X106589132Y-96894680D01*
X106589133Y-96894680D01*
X106652287Y-96880354D01*
X106652288Y-96880353D01*
X106652290Y-96880353D01*
X106747186Y-96834439D01*
X106813617Y-96798615D01*
X106815625Y-96797764D01*
X106938818Y-96758735D01*
X106947738Y-96759504D01*
G37*
%TD.AperFunction*%
%TD*%
%TA.AperFunction,Conductor*%
%TO.N,/OPA1_OUT*%
G36*
X102547738Y-95759504D02*
G01*
X102553504Y-95766355D01*
X102553816Y-95767561D01*
X102600527Y-95997672D01*
X102600527Y-96002328D01*
X102553780Y-96232616D01*
X102548776Y-96240042D01*
X102539986Y-96241754D01*
X102538936Y-96241490D01*
X102429878Y-96208605D01*
X102427831Y-96207769D01*
X102347181Y-96165557D01*
X102244933Y-96117343D01*
X102244931Y-96117342D01*
X102244929Y-96117341D01*
X102244925Y-96117340D01*
X102184345Y-96104669D01*
X102184332Y-96104667D01*
X102115818Y-96100646D01*
X102107760Y-96096740D01*
X102104804Y-96088966D01*
X102104804Y-95910985D01*
X102108231Y-95902712D01*
X102115765Y-95899308D01*
X102189128Y-95894681D01*
X102189132Y-95894680D01*
X102189133Y-95894680D01*
X102252287Y-95880354D01*
X102252288Y-95880353D01*
X102252290Y-95880353D01*
X102347186Y-95834439D01*
X102413617Y-95798615D01*
X102415625Y-95797764D01*
X102538818Y-95758735D01*
X102547738Y-95759504D01*
G37*
%TD.AperFunction*%
%TD*%
%TA.AperFunction,Conductor*%
%TO.N,/OPA1_OUT*%
G36*
X98261048Y-95758505D02*
G01*
X98370121Y-95791393D01*
X98372167Y-95792228D01*
X98452813Y-95834439D01*
X98555069Y-95882658D01*
X98615664Y-95895332D01*
X98684182Y-95899353D01*
X98692240Y-95903259D01*
X98695196Y-95911033D01*
X98695196Y-96089014D01*
X98691769Y-96097287D01*
X98684233Y-96100691D01*
X98610866Y-96105319D01*
X98547711Y-96119645D01*
X98452806Y-96165564D01*
X98386387Y-96201380D01*
X98384368Y-96202236D01*
X98261183Y-96241264D01*
X98252261Y-96240496D01*
X98246495Y-96233644D01*
X98246183Y-96232438D01*
X98239985Y-96201905D01*
X98199472Y-96002325D01*
X98199472Y-95997674D01*
X98246219Y-95767381D01*
X98251223Y-95759957D01*
X98260013Y-95758245D01*
X98261048Y-95758505D01*
G37*
%TD.AperFunction*%
%TD*%
%TA.AperFunction,Conductor*%
%TO.N,/OPA1_OUT*%
G36*
X102813381Y-95871488D02*
G01*
X102813936Y-95872417D01*
X102867801Y-95972787D01*
X102868658Y-95974827D01*
X102895835Y-96061699D01*
X102934045Y-96168099D01*
X102950511Y-96193274D01*
X102967930Y-96219908D01*
X103013536Y-96271201D01*
X103016472Y-96279659D01*
X103013065Y-96287247D01*
X102887213Y-96413099D01*
X102878940Y-96416526D01*
X102871205Y-96413604D01*
X102816059Y-96365002D01*
X102816054Y-96364999D01*
X102816051Y-96364996D01*
X102761269Y-96330473D01*
X102761256Y-96330467D01*
X102661713Y-96295840D01*
X102589389Y-96274190D01*
X102587360Y-96273368D01*
X102472660Y-96213861D01*
X102466896Y-96207011D01*
X102467664Y-96198089D01*
X102468290Y-96197025D01*
X102597981Y-96001272D01*
X102601273Y-95997981D01*
X102639300Y-95972787D01*
X102797167Y-95868195D01*
X102805954Y-95866484D01*
X102813381Y-95871488D01*
G37*
%TD.AperFunction*%
%TD*%
%TA.AperFunction,Conductor*%
%TO.N,/SENS0_CTL*%
G36*
X91297288Y-101008231D02*
G01*
X91300692Y-101015767D01*
X91305319Y-101089133D01*
X91319645Y-101152288D01*
X91365564Y-101247193D01*
X91401380Y-101313611D01*
X91402236Y-101315630D01*
X91441264Y-101438816D01*
X91440495Y-101447738D01*
X91433644Y-101453504D01*
X91432438Y-101453816D01*
X91202328Y-101500527D01*
X91197672Y-101500527D01*
X90967383Y-101453780D01*
X90959957Y-101448776D01*
X90958245Y-101439986D01*
X90958503Y-101438956D01*
X90991394Y-101329873D01*
X90992227Y-101327834D01*
X91034439Y-101247186D01*
X91082658Y-101144931D01*
X91095332Y-101084336D01*
X91099354Y-101015818D01*
X91103260Y-101007760D01*
X91111034Y-101004804D01*
X91289015Y-101004804D01*
X91297288Y-101008231D01*
G37*
%TD.AperFunction*%
%TD*%
%TA.AperFunction,Conductor*%
%TO.N,/SENS0_CTL*%
G36*
X102032616Y-88646219D02*
G01*
X102040042Y-88651223D01*
X102041754Y-88660013D01*
X102041490Y-88661063D01*
X102008604Y-88770123D01*
X102007768Y-88772170D01*
X101965557Y-88852818D01*
X101917343Y-88955066D01*
X101917340Y-88955074D01*
X101904669Y-89015654D01*
X101904667Y-89015667D01*
X101900646Y-89084182D01*
X101896740Y-89092240D01*
X101888966Y-89095196D01*
X101710985Y-89095196D01*
X101702712Y-89091769D01*
X101699308Y-89084233D01*
X101694983Y-89015664D01*
X101694681Y-89010872D01*
X101682022Y-88955066D01*
X101680354Y-88947711D01*
X101634441Y-88852818D01*
X101634439Y-88852813D01*
X101598617Y-88786385D01*
X101597762Y-88784368D01*
X101558735Y-88661181D01*
X101559504Y-88652261D01*
X101566355Y-88646495D01*
X101567553Y-88646184D01*
X101797675Y-88599472D01*
X101802325Y-88599472D01*
X102032616Y-88646219D01*
G37*
%TD.AperFunction*%
%TD*%
%TA.AperFunction,Conductor*%
%TO.N,/SPI_CS0*%
G36*
X108897288Y-92143231D02*
G01*
X108900692Y-92150767D01*
X108905319Y-92224133D01*
X108919645Y-92287288D01*
X108965564Y-92382193D01*
X109001380Y-92448611D01*
X109002236Y-92450630D01*
X109041264Y-92573816D01*
X109040495Y-92582738D01*
X109033644Y-92588504D01*
X109032438Y-92588816D01*
X108802328Y-92635527D01*
X108797672Y-92635527D01*
X108567383Y-92588780D01*
X108559957Y-92583776D01*
X108558245Y-92574986D01*
X108558503Y-92573956D01*
X108591394Y-92464873D01*
X108592227Y-92462834D01*
X108634439Y-92382186D01*
X108682658Y-92279931D01*
X108695332Y-92219336D01*
X108699354Y-92150818D01*
X108703260Y-92142760D01*
X108711034Y-92139804D01*
X108889015Y-92139804D01*
X108897288Y-92143231D01*
G37*
%TD.AperFunction*%
%TD*%
%TA.AperFunction,Conductor*%
%TO.N,/SPI_CS0*%
G36*
X96887247Y-87686934D02*
G01*
X97013099Y-87812786D01*
X97016526Y-87821059D01*
X97013604Y-87828795D01*
X96964996Y-87883948D01*
X96930472Y-87938730D01*
X96930470Y-87938736D01*
X96895834Y-88038307D01*
X96874190Y-88110610D01*
X96873366Y-88112643D01*
X96813861Y-88227337D01*
X96807011Y-88233103D01*
X96798089Y-88232335D01*
X96797015Y-88231703D01*
X96601273Y-88102018D01*
X96597981Y-88098726D01*
X96546328Y-88020764D01*
X96468195Y-87902832D01*
X96466484Y-87894045D01*
X96471488Y-87886618D01*
X96472410Y-87886066D01*
X96572794Y-87832194D01*
X96574820Y-87831343D01*
X96639837Y-87811002D01*
X96661701Y-87804163D01*
X96714897Y-87785059D01*
X96768098Y-87765954D01*
X96819908Y-87732069D01*
X96871202Y-87686461D01*
X96879659Y-87683527D01*
X96887247Y-87686934D01*
G37*
%TD.AperFunction*%
%TD*%
%TA.AperFunction,Conductor*%
%TO.N,/SPI_SCK*%
G36*
X95704405Y-87569776D02*
G01*
X95830257Y-87695628D01*
X95833684Y-87703901D01*
X95830762Y-87711637D01*
X95782154Y-87766790D01*
X95747630Y-87821572D01*
X95747628Y-87821578D01*
X95712992Y-87921149D01*
X95691348Y-87993452D01*
X95690524Y-87995485D01*
X95631019Y-88110179D01*
X95624169Y-88115945D01*
X95615247Y-88115177D01*
X95614173Y-88114545D01*
X95418431Y-87984860D01*
X95415139Y-87981568D01*
X95363486Y-87903606D01*
X95285353Y-87785674D01*
X95283642Y-87776887D01*
X95288646Y-87769460D01*
X95289568Y-87768908D01*
X95389952Y-87715036D01*
X95391978Y-87714185D01*
X95456995Y-87693844D01*
X95478859Y-87687005D01*
X95532055Y-87667901D01*
X95585256Y-87648796D01*
X95637066Y-87614911D01*
X95688360Y-87569303D01*
X95696817Y-87566369D01*
X95704405Y-87569776D01*
G37*
%TD.AperFunction*%
%TD*%
%TA.AperFunction,Conductor*%
%TO.N,/SPI_SCK*%
G36*
X109498047Y-92891589D02*
G01*
X109501369Y-92898296D01*
X109508564Y-92951561D01*
X109532679Y-92991224D01*
X109532681Y-92991227D01*
X109569988Y-93016093D01*
X109569991Y-93016094D01*
X109569994Y-93016096D01*
X109569993Y-93016096D01*
X109611516Y-93032479D01*
X109618123Y-93035086D01*
X109640193Y-93043161D01*
X109641375Y-93043670D01*
X109727008Y-93086227D01*
X109732892Y-93092977D01*
X109732278Y-93101911D01*
X109731544Y-93103183D01*
X109602706Y-93296929D01*
X109595271Y-93301920D01*
X109595201Y-93301934D01*
X109366190Y-93346554D01*
X109357414Y-93344773D01*
X109352488Y-93337406D01*
X109335468Y-93253876D01*
X109335468Y-93253877D01*
X109335264Y-93252890D01*
X109335198Y-93252544D01*
X109307045Y-93092110D01*
X109306876Y-93090485D01*
X109302155Y-92951561D01*
X109300411Y-92900258D01*
X109303555Y-92891875D01*
X109311707Y-92888169D01*
X109312104Y-92888162D01*
X109489774Y-92888162D01*
X109498047Y-92891589D01*
G37*
%TD.AperFunction*%
%TD*%
%TA.AperFunction,Conductor*%
%TO.N,/SPI_MISO*%
G36*
X109528792Y-89486394D02*
G01*
X109583941Y-89534998D01*
X109583945Y-89535000D01*
X109583948Y-89535003D01*
X109638729Y-89569526D01*
X109638731Y-89569526D01*
X109638735Y-89569529D01*
X109738303Y-89604164D01*
X109810610Y-89625808D01*
X109812643Y-89626632D01*
X109927337Y-89686137D01*
X109933103Y-89692988D01*
X109932334Y-89701910D01*
X109931703Y-89702984D01*
X109802018Y-89898726D01*
X109798726Y-89902018D01*
X109602834Y-90031803D01*
X109594045Y-90033515D01*
X109586618Y-90028511D01*
X109586063Y-90027582D01*
X109532198Y-89927211D01*
X109531341Y-89925171D01*
X109523687Y-89900707D01*
X109519572Y-89887554D01*
X109504163Y-89838298D01*
X109465955Y-89731904D01*
X109465954Y-89731901D01*
X109432069Y-89680092D01*
X109386462Y-89628797D01*
X109383527Y-89620339D01*
X109386933Y-89612753D01*
X109512787Y-89486899D01*
X109521059Y-89483473D01*
X109528792Y-89486394D01*
G37*
%TD.AperFunction*%
%TD*%
%TA.AperFunction,Conductor*%
%TO.N,/SPI_MISO*%
G36*
X93987247Y-88486934D02*
G01*
X94113099Y-88612786D01*
X94116526Y-88621059D01*
X94113604Y-88628795D01*
X94064996Y-88683948D01*
X94030472Y-88738730D01*
X94030470Y-88738736D01*
X93995834Y-88838307D01*
X93974190Y-88910610D01*
X93973366Y-88912643D01*
X93913861Y-89027337D01*
X93907011Y-89033103D01*
X93898089Y-89032335D01*
X93897015Y-89031703D01*
X93701273Y-88902018D01*
X93697981Y-88898726D01*
X93646328Y-88820764D01*
X93568195Y-88702832D01*
X93566484Y-88694045D01*
X93571488Y-88686618D01*
X93572410Y-88686066D01*
X93672794Y-88632194D01*
X93674820Y-88631343D01*
X93739837Y-88611002D01*
X93761701Y-88604163D01*
X93814897Y-88585059D01*
X93868098Y-88565954D01*
X93919908Y-88532069D01*
X93971202Y-88486461D01*
X93979659Y-88483527D01*
X93987247Y-88486934D01*
G37*
%TD.AperFunction*%
%TD*%
%TA.AperFunction,Conductor*%
%TO.N,/ENC_CLK*%
G36*
X83963381Y-92721488D02*
G01*
X83963936Y-92722417D01*
X84017801Y-92822787D01*
X84018658Y-92824827D01*
X84045835Y-92911699D01*
X84084045Y-93018099D01*
X84100511Y-93043274D01*
X84117930Y-93069908D01*
X84163536Y-93121201D01*
X84166472Y-93129659D01*
X84163065Y-93137247D01*
X84037213Y-93263099D01*
X84028940Y-93266526D01*
X84021205Y-93263604D01*
X83966059Y-93215002D01*
X83966054Y-93214999D01*
X83966051Y-93214996D01*
X83911269Y-93180473D01*
X83911256Y-93180467D01*
X83811713Y-93145840D01*
X83739389Y-93124190D01*
X83737360Y-93123368D01*
X83622660Y-93063861D01*
X83616896Y-93057011D01*
X83617664Y-93048089D01*
X83618290Y-93047025D01*
X83747981Y-92851272D01*
X83751273Y-92847981D01*
X83789300Y-92822787D01*
X83947167Y-92718195D01*
X83955954Y-92716484D01*
X83963381Y-92721488D01*
G37*
%TD.AperFunction*%
%TD*%
%TA.AperFunction,Conductor*%
%TO.N,/ENC_CLK*%
G36*
X92501910Y-90467665D02*
G01*
X92502984Y-90468296D01*
X92698726Y-90597981D01*
X92702018Y-90601273D01*
X92831803Y-90797165D01*
X92833515Y-90805954D01*
X92828511Y-90813381D01*
X92827582Y-90813936D01*
X92727212Y-90867801D01*
X92725172Y-90868658D01*
X92638300Y-90895835D01*
X92531904Y-90934043D01*
X92531900Y-90934045D01*
X92480088Y-90967932D01*
X92428799Y-91013536D01*
X92420340Y-91016472D01*
X92412752Y-91013065D01*
X92286900Y-90887213D01*
X92283473Y-90878940D01*
X92286395Y-90871205D01*
X92334998Y-90816059D01*
X92369529Y-90761264D01*
X92404164Y-90661697D01*
X92425809Y-90589385D01*
X92426632Y-90587356D01*
X92486138Y-90472660D01*
X92492988Y-90466896D01*
X92501910Y-90467665D01*
G37*
%TD.AperFunction*%
%TD*%
%TA.AperFunction,Conductor*%
%TO.N,/ENC_SW*%
G36*
X91001893Y-89367599D02*
G01*
X91002489Y-89367968D01*
X91198726Y-89497981D01*
X91202018Y-89501273D01*
X91332066Y-89697563D01*
X91333778Y-89706352D01*
X91328774Y-89713779D01*
X91328231Y-89714118D01*
X91237092Y-89767565D01*
X91235922Y-89768165D01*
X91158784Y-89802426D01*
X91072928Y-89842821D01*
X91072927Y-89842822D01*
X91015306Y-89882689D01*
X90953806Y-89938391D01*
X90945374Y-89941405D01*
X90937679Y-89937992D01*
X90811767Y-89812080D01*
X90808340Y-89803807D01*
X90811130Y-89796224D01*
X90858751Y-89740266D01*
X90889980Y-89683415D01*
X90913920Y-89578439D01*
X90934102Y-89478482D01*
X90934715Y-89476439D01*
X90955954Y-89423778D01*
X90956681Y-89422291D01*
X90985905Y-89371854D01*
X90993016Y-89366416D01*
X91001893Y-89367599D01*
G37*
%TD.AperFunction*%
%TD*%
%TA.AperFunction,Conductor*%
%TO.N,/ENC_SW*%
G36*
X88787247Y-91836934D02*
G01*
X88913099Y-91962786D01*
X88916526Y-91971059D01*
X88913604Y-91978795D01*
X88864996Y-92033948D01*
X88830472Y-92088730D01*
X88830470Y-92088736D01*
X88795834Y-92188307D01*
X88774190Y-92260610D01*
X88773366Y-92262643D01*
X88713861Y-92377337D01*
X88707011Y-92383103D01*
X88698089Y-92382335D01*
X88697015Y-92381703D01*
X88501273Y-92252018D01*
X88497981Y-92248726D01*
X88446328Y-92170764D01*
X88368195Y-92052832D01*
X88366484Y-92044045D01*
X88371488Y-92036618D01*
X88372410Y-92036066D01*
X88472794Y-91982194D01*
X88474820Y-91981343D01*
X88539837Y-91961002D01*
X88561701Y-91954163D01*
X88614897Y-91935059D01*
X88668098Y-91915954D01*
X88719908Y-91882069D01*
X88771202Y-91836461D01*
X88779659Y-91833527D01*
X88787247Y-91836934D01*
G37*
%TD.AperFunction*%
%TD*%
%TA.AperFunction,Conductor*%
%TO.N,/ENC_DT*%
G36*
X88987247Y-92786934D02*
G01*
X89113099Y-92912786D01*
X89116526Y-92921059D01*
X89113604Y-92928795D01*
X89064996Y-92983948D01*
X89030472Y-93038730D01*
X89030470Y-93038736D01*
X88995834Y-93138307D01*
X88974190Y-93210610D01*
X88973366Y-93212643D01*
X88913861Y-93327337D01*
X88907011Y-93333103D01*
X88898089Y-93332335D01*
X88897015Y-93331703D01*
X88701273Y-93202018D01*
X88697981Y-93198726D01*
X88646328Y-93120764D01*
X88568195Y-93002832D01*
X88566484Y-92994045D01*
X88571488Y-92986618D01*
X88572410Y-92986066D01*
X88672794Y-92932194D01*
X88674820Y-92931343D01*
X88739837Y-92911002D01*
X88761701Y-92904163D01*
X88814897Y-92885059D01*
X88868098Y-92865954D01*
X88919908Y-92832069D01*
X88971202Y-92786461D01*
X88979659Y-92783527D01*
X88987247Y-92786934D01*
G37*
%TD.AperFunction*%
%TD*%
%TA.AperFunction,Conductor*%
%TO.N,/ENC_DT*%
G36*
X91801910Y-89767665D02*
G01*
X91802984Y-89768296D01*
X91998726Y-89897981D01*
X92002018Y-89901273D01*
X92131803Y-90097165D01*
X92133515Y-90105954D01*
X92128511Y-90113381D01*
X92127582Y-90113936D01*
X92027212Y-90167801D01*
X92025172Y-90168658D01*
X91938300Y-90195835D01*
X91831904Y-90234043D01*
X91831900Y-90234045D01*
X91780088Y-90267932D01*
X91728799Y-90313536D01*
X91720340Y-90316472D01*
X91712752Y-90313065D01*
X91586900Y-90187213D01*
X91583473Y-90178940D01*
X91586395Y-90171205D01*
X91634998Y-90116059D01*
X91669529Y-90061264D01*
X91704164Y-89961697D01*
X91725809Y-89889385D01*
X91726632Y-89887356D01*
X91786138Y-89772660D01*
X91792988Y-89766896D01*
X91801910Y-89767665D01*
G37*
%TD.AperFunction*%
%TD*%
%TA.AperFunction,Conductor*%
%TO.N,/SENS0_TH+*%
G36*
X93023319Y-97051088D02*
G01*
X93149031Y-97176800D01*
X93152458Y-97185073D01*
X93149509Y-97192839D01*
X93096825Y-97252205D01*
X93096824Y-97252207D01*
X93066966Y-97302578D01*
X93063377Y-97308632D01*
X93046899Y-97363667D01*
X93046897Y-97363677D01*
X93037811Y-97427031D01*
X93037796Y-97427139D01*
X93021039Y-97536719D01*
X93016400Y-97544379D01*
X93007704Y-97546516D01*
X93007229Y-97546433D01*
X92778098Y-97501646D01*
X92770635Y-97496695D01*
X92770630Y-97496688D01*
X92642026Y-97302577D01*
X92640315Y-97293788D01*
X92645319Y-97286362D01*
X92645972Y-97285961D01*
X92801449Y-97197645D01*
X92801660Y-97197530D01*
X92875642Y-97158449D01*
X92937629Y-97114353D01*
X93007149Y-97050728D01*
X93015563Y-97047672D01*
X93023319Y-97051088D01*
G37*
%TD.AperFunction*%
%TD*%
%TA.AperFunction,Conductor*%
%TO.N,/SENS0_TH+*%
G36*
X104401910Y-92067665D02*
G01*
X104402984Y-92068296D01*
X104598726Y-92197981D01*
X104602018Y-92201273D01*
X104731803Y-92397165D01*
X104733515Y-92405954D01*
X104728511Y-92413381D01*
X104727582Y-92413936D01*
X104627212Y-92467801D01*
X104625172Y-92468658D01*
X104538300Y-92495835D01*
X104431904Y-92534043D01*
X104431900Y-92534045D01*
X104380088Y-92567932D01*
X104328799Y-92613536D01*
X104320340Y-92616472D01*
X104312752Y-92613065D01*
X104186900Y-92487213D01*
X104183473Y-92478940D01*
X104186395Y-92471205D01*
X104234998Y-92416059D01*
X104269529Y-92361264D01*
X104304164Y-92261697D01*
X104325809Y-92189385D01*
X104326632Y-92187356D01*
X104386138Y-92072660D01*
X104392988Y-92066896D01*
X104401910Y-92067665D01*
G37*
%TD.AperFunction*%
%TD*%
M02*
