M48
; DRILL file {KiCad 9.99.0-679-g5f620f0fa1} date 2025-04-01T17:45:59+0600
; FORMAT={-:-/ absolute / metric / decimal}
; #@! TF.CreationDate,2025-04-01T17:45:59+06:00
; #@! TF.GenerationSoftware,Kicad,Pcbnew,9.99.0-679-g5f620f0fa1
; #@! TF.FileFunction,Plated,1,2,PTH
FMAT,2
METRIC
; #@! TA.AperFunction,Plated,PTH,ViaDrill
T1C0.300
; #@! TA.AperFunction,Plated,PTH,ComponentDrill
T2C0.300
; #@! TA.AperFunction,Plated,PTH,ComponentDrill
T3C0.950
; #@! TA.AperFunction,Plated,PTH,ComponentDrill
T4C1.000
; #@! TA.AperFunction,Plated,PTH,ComponentDrill
T5C1.100
; #@! TA.AperFunction,Plated,PTH,ComponentDrill
T6C1.500
; #@! TA.AperFunction,Plated,PTH,ComponentDrill
T7C1.550
; #@! TA.AperFunction,Plated,PTH,ComponentDrill
T8C3.200
%
G90
G05
T1
X75.917Y-78.502
X75.917Y-83.502
X75.917Y-88.502
X75.917Y-103.502
X75.917Y-108.502
X78.2Y-100.7
X80.75Y-93.75
X80.917Y-68.502
X80.917Y-73.502
X80.917Y-78.502
X80.917Y-83.502
X80.917Y-88.502
X80.917Y-103.502
X80.917Y-108.502
X83.2Y-110.5
X83.75Y-92.85
X84.95Y-106.2
X85.917Y-68.502
X85.917Y-73.502
X85.917Y-78.502
X85.917Y-83.502
X85.917Y-88.502
X85.917Y-98.502
X85.917Y-103.502
X88.5Y-92.25
X88.7Y-93.2
X90.0Y-118.4
X90.1Y-111.5
X90.6Y-78.5
X90.6Y-86.7
X90.917Y-68.502
X90.917Y-73.502
X90.917Y-108.502
X91.2Y-89.5
X91.2Y-101.5
X91.85Y-100.25
X92.0Y-89.9
X92.0Y-98.9
X92.5Y-101.8
X92.7Y-90.6
X92.774Y-97.5
X93.3Y-94.2
X93.7Y-87.8
X93.7Y-88.9
X93.85Y-116.3
X93.861Y-90.739
X94.5Y-104.5
X94.9Y-88.7
X94.9Y-91.8
X95.3Y-96.3
X95.417Y-87.983
X95.917Y-68.502
X95.917Y-73.502
X95.917Y-78.502
X95.917Y-83.502
X96.3Y-111.0
X96.6Y-88.1
X96.9Y-93.0
X97.6Y-96.9
X98.0Y-99.0
X98.1Y-102.7
X98.2Y-96.0
X99.1Y-96.65
X99.5Y-104.3
X99.6Y-98.7
X99.7Y-93.0
X100.917Y-68.502
X100.917Y-73.502
X100.917Y-78.502
X100.917Y-83.502
X100.917Y-103.502
X100.917Y-118.502
X101.25Y-102.05
X101.4Y-99.0
X101.6Y-90.8
X101.8Y-88.6
X102.6Y-96.0
X103.0Y-106.9
X103.5Y-94.88
X103.5Y-105.2
X104.6Y-92.2
X104.9Y-90.1
X105.917Y-68.502
X105.917Y-73.502
X105.917Y-78.502
X105.917Y-83.502
X105.917Y-118.502
X106.1Y-111.0
X107.0Y-97.0
X108.0Y-105.2
X108.675Y-100.8
X108.8Y-92.635
X108.9Y-111.0
X109.6Y-93.3
X109.8Y-89.9
X109.9Y-105.2
X110.917Y-68.502
X110.917Y-73.502
X110.917Y-78.502
X110.917Y-83.502
X111.926Y-99.5
X114.4Y-96.0
X115.05Y-100.75
X115.11Y-106.5
X115.917Y-68.502
X115.917Y-73.502
X115.917Y-78.502
X115.917Y-103.502
X120.917Y-78.502
X120.917Y-83.502
X120.917Y-88.502
X120.917Y-93.502
T2
X96.843Y-90.54
X97.409Y-89.975
X97.409Y-91.106
X97.975Y-90.54
T3
X116.0Y-84.25
X116.0Y-86.75
X116.0Y-89.25
X116.0Y-91.75
T4
X76.0Y-76.25
X76.0Y-90.75
X78.5Y-76.25
X78.5Y-109.9
X81.0Y-76.25
X81.0Y-90.75
X88.68Y-76.5
X88.9Y-98.5
X91.22Y-76.5
X93.76Y-76.5
X96.3Y-76.5
X102.497Y-110.8
X115.5Y-110.3
T5
X74.0Y-98.6
X74.0Y-103.4
X74.0Y-108.2
X74.0Y-113.0
X74.0Y-117.8
X120.0Y-98.6
X120.0Y-103.4
X120.0Y-108.2
X120.0Y-113.0
X120.0Y-117.8
T7
X95.5Y-124.6
X102.5Y-124.6
X109.5Y-124.6
T8
X74.5Y-71.0
X74.5Y-124.5
X119.5Y-71.0
X119.5Y-124.5
T6
X72.9Y-83.1G85X72.9Y-84.4
G05
X84.1Y-83.1G85X84.1Y-84.4
G05
M30
